SplineFontDB: 3.0
FontName: KAN-KaveriBoldItalic
FullName: KAN Kaveri Bold Italic
FamilyName: KAN Kaveri
Weight: Bold
Copyright: Copyright (c) 2009-2015, NLCI (http://www.nlci.in/fonts/)
Version: 1.0 Wed May 17 15:32:13 1995
ItalicAngle: 12
UnderlinePosition: -593.92
UnderlineWidth: 40.96
Ascent: 1638
Descent: 410
InvalidEm: 0
LayerCount: 2
Layer: 0 1 "Back" 1
Layer: 1 1 "Fore" 0
XUID: [1021 122 585067096 5556871]
FSType: 0
OS2Version: 0
OS2_WeightWidthSlopeOnly: 0
OS2_UseTypoMetrics: 1
CreationTime: 1250825690
ModificationTime: 1522367376
PfmFamily: 81
TTFWeight: 700
TTFWidth: 5
LineGap: 0
VLineGap: 0
Panose: 5 0 0 0 0 0 0 0 0 0
OS2TypoAscent: -147
OS2TypoAOffset: 1
OS2TypoDescent: -401
OS2TypoDOffset: 1
OS2TypoLinegap: 0
OS2WinAscent: -467
OS2WinAOffset: 1
OS2WinDescent: -213
OS2WinDOffset: 1
HheadAscent: -467
HheadAOffset: 1
HheadDescent: 213
HheadDOffset: 1
OS2SubXSize: 1434
OS2SubYSize: 1331
OS2SubXOff: 0
OS2SubYOff: 293
OS2SupXSize: 1434
OS2SupYSize: 1331
OS2SupXOff: 0
OS2SupYOff: 928
OS2StrikeYSize: 102
OS2StrikeYPos: 530
OS2Vendor: 'Alts'
OS2UnicodeRanges: 00000000.00000000.00000000.00000000
Lookup: 262 0 0 "blwm" { "blwm-2sub"  } []
MarkAttachClasses: 1
DEI: 91125
TtTable: prep
NPUSHB
 1
 1
SCANTYPE
PUSHW_1
 511
SCANCTRL
EndTTInstrs
ShortTable: maxp 16
  1
  0
  319
  206
  5
  177
  6
  2
  8
  64
  10
  0
  3
  417
  4
  2
EndShort
LangName: 1033 "" "" "Bold Italic" "NLCI:KAN Kaveri Bold Italic" "" "1.0 Wed May 17 15:32:13 1995"
Encoding: Original
UnicodeInterp: none
NameList: Adobe Glyph List
DisplaySize: -48
AntiAlias: 1
FitToEm: 1
BeginPrivate: 0
EndPrivate
AnchorClass2: "Sub" "blwm-2sub" "Nukta"""  "s"""  "V""" 
BeginChars: 608 608

StartChar: .notdef
Encoding: 0 -1 0
Width: 1024
Flags: W
LayerCount: 2
Fore
SplineSet
63 0 m 1,0,-1
 63 1237 l 1,1,-1
 961 1237 l 1,2,-1
 961 0 l 1,3,-1
 63 0 l 1,0,-1
897 63 m 1,4,-1
 897 1174 l 1,5,-1
 127 1174 l 1,6,-1
 127 63 l 1,7,-1
 897 63 l 1,4,-1
EndSplineSet
EndChar

StartChar: exclam
Encoding: 4 33 4
Width: 557
VWidth: 1024
Flags: W
LayerCount: 2
Fore
SplineSet
152 31 m 0,0,-1
 152 39 l 0,1,-1
 186 248 l 0,2,3
 192 291 192 291 236 291 c 0,4,-1
 412 291 l 0,5,6
 449 291 449 291 449 260 c 0,7,-1
 449 248 l 0,8,-1
 414 39 l 0,9,10
 410 -2 410 -2 365 -2 c 0,11,-1
 188 -2 l 0,12,13
 172 -2 172 -2 162 7 c 0,14,15
 152 16 152 16 152 31 c 0,0,-1
367 1513 m 0,16,-1
 670 1513 l 0,17,-1
 453 416 l 0,18,-1
 229 416 l 0,19,-1
 367 1513 l 0,16,-1
EndSplineSet
EndChar

StartChar: quotedbl
Encoding: 5 34 5
Width: 819
VWidth: 1024
Flags: W
LayerCount: 2
Fore
SplineSet
883 1403 m 0,0,1
 883 1393 883 1393 871 1356 c 0,2,3
 860 1319 860 1319 842 1268 c 0,4,5
 824 1217 824 1217 802 1157 c 0,6,7
 780 1097 780 1097 760 1041 c 0,8,9
 740 986 740 986 723 941 c 0,10,11
 707 896 707 896 698 874 c 0,12,-1
 621 874 l 0,13,-1
 638 1365 l 0,14,15
 639 1394 639 1394 651 1418 c 0,16,17
 663 1442 663 1442 684 1459 c 0,18,19
 704 1476 704 1476 730 1487 c 0,20,21
 756 1497 756 1497 782 1497 c 0,22,23
 828 1497 828 1497 856 1475 c 0,24,25
 883 1452 883 1452 883 1403 c 0,0,1
472 1403 m 0,26,27
 472 1393 472 1393 461 1356 c 0,28,29
 450 1319 450 1319 432 1268 c 0,30,31
 414 1217 414 1217 392 1157 c 0,32,33
 370 1097 370 1097 349 1041 c 0,34,35
 329 986 329 986 312 941 c 0,36,37
 295 896 295 896 288 874 c 0,38,-1
 210 874 l 0,39,-1
 224 1365 l 0,40,41
 225 1394 225 1394 239 1418 c 0,42,43
 252 1442 252 1442 272 1459 c 0,44,45
 292 1476 292 1476 318 1487 c 0,46,47
 344 1497 344 1497 371 1497 c 0,48,49
 417 1497 417 1497 444 1475 c 0,50,51
 472 1452 472 1452 472 1403 c 0,26,27
EndSplineSet
Refer: 10 39 N 1 0 0 1 373 0 2
Refer: 10 39 N 1 0 0 1 0 0 2
EndChar

StartChar: numbersign
Encoding: 6 35 6
Width: 1480
VWidth: 1024
Flags: W
LayerCount: 2
Fore
SplineSet
928 627 m 0,0,-1
 1008 870 l 0,1,-1
 766 870 l 0,2,-1
 684 627 l 0,3,-1
 928 627 l 0,0,-1
408 424 m 0,4,-1
 98 424 l 0,5,-1
 162 627 l 0,6,-1
 479 627 l 0,7,-1
 561 870 l 0,8,-1
 240 870 l 0,9,-1
 305 1073 l 0,10,-1
 633 1073 l 0,11,-1
 778 1499 l 0,12,-1
 983 1499 l 0,13,-1
 838 1073 l 0,14,-1
 1071 1073 l 0,15,-1
 1214 1499 l 0,16,-1
 1419 1499 l 0,17,-1
 1276 1073 l 0,18,-1
 1624 1073 l 0,19,-1
 1563 870 l 0,20,-1
 1212 870 l 0,21,-1
 1130 627 l 0,22,-1
 1481 627 l 0,23,-1
 1419 424 l 0,24,-1
 1053 424 l 0,25,-1
 909 0 l 0,26,-1
 705 0 l 0,27,-1
 848 424 l 0,28,-1
 612 424 l 0,29,-1
 469 0 l 0,30,-1
 264 0 l 0,31,-1
 408 424 l 0,4,-1
EndSplineSet
EndChar

StartChar: dollar
Encoding: 7 36 7
Width: 1247
VWidth: 1024
Flags: W
LayerCount: 2
Fore
SplineSet
553 1051 m 0,0,1
 549 1018 549 1018 549 1006 c 0,2,3
 549 949 549 949 581.5 923 c 0,4,5
 614 897 614 897 686 897 c 0,6,-1
 815 897 l 0,7,8
 1001 897 1001 897 1101.5 810 c 0,9,10
 1202 723 1202 723 1202 578 c 0,11,12
 1202 543 1202 543 1196 496 c 0,13,-1
 1176 354 l 0,14,15
 1147 174 1147 174 1035.5 87 c 0,16,17
 924 0 924 0 698 -10 c 0,18,-1
 672 -182 l 0,19,-1
 500 -182 l 0,20,-1
 526 -10 l 0,21,22
 297 -2 297 -2 127 37 c 0,23,-1
 164 276 l 0,24,25
 361 260 361 260 621 260 c 0,26,27
 756 260 756 260 818.5 292 c 0,28,29
 881 324 881 324 895 410 c 0,30,-1
 903 463 l 0,31,32
 907 492 907 492 907 504 c 0,33,34
 907 561 907 561 866 585.5 c 0,35,36
 825 610 825 610 735 610 c 0,37,-1
 614 610 l 0,38,39
 444 610 444 610 348 697 c 0,40,41
 252 784 252 784 252 930 c 0,42,43
 252 971 252 971 258 1016 c 0,44,-1
 279 1139 l 0,45,46
 310 1340 310 1340 434.5 1430 c 0,47,48
 559 1520 559 1520 776 1528 c 0,49,-1
 788 1638 l 0,50,-1
 956 1688 l 0,51,-1
 942 1528 l 0,52,-1
 930 1524 l 0,53,54
 1131 1514 1131 1514 1282 1477 c 0,55,-1
 1243 1237 l 0,56,57
 1053 1253 1053 1253 782 1253 c 0,58,59
 682 1253 682 1253 628.5 1220.5 c 0,60,61
 575 1188 575 1188 561 1104 c 0,62,-1
 553 1051 l 0,0,1
EndSplineSet
EndChar

StartChar: percent
Encoding: 8 37 8
Width: 1974
VWidth: 1024
Flags: W
LayerCount: 2
Fore
SplineSet
1622 203 m 0,0,1
 1692 203 1692 203 1723.5 230.5 c 0,2,3
 1755 258 1755 258 1765 322 c 0,4,-1
 1788 475 l 0,5,6
 1792 489 1792 489 1792 516 c 0,7,8
 1792 559 1792 559 1767.5 576.5 c 0,9,10
 1743 594 1743 594 1690 594 c 0,11,-1
 1559 594 l 0,12,13
 1496 594 1496 594 1463 569.5 c 0,14,15
 1430 545 1430 545 1419 475 c 0,16,-1
 1397 322 l 0,17,18
 1391 302 1391 302 1391 281 c 0,19,20
 1391 240 1391 240 1414.5 221.5 c 0,21,22
 1438 203 1438 203 1493 203 c 0,23,-1
 1622 203 l 0,0,1
1186 203 m 0,24,25
 1186 238 1186 238 1192 276 c 0,26,-1
 1231 520 l 0,27,28
 1251 655 1251 655 1326 723 c 0,29,30
 1401 791 1401 791 1550 791 c 0,31,-1
 1759 791 l 0,32,33
 1884 791 1884 791 1941.5 741.5 c 0,34,35
 1999 692 1999 692 1999 594 c 0,36,37
 1999 557 1999 557 1993 520 c 0,38,-1
 1954 276 l 0,39,40
 1931 141 1931 141 1855.5 73.5 c 0,41,42
 1780 6 1780 6 1630 6 c 0,43,-1
 1421 6 l 0,44,45
 1298 6 1298 6 1242 55 c 0,46,47
 1186 104 1186 104 1186 203 c 0,24,25
655 911 m 0,48,49
 725 911 725 911 754.5 939 c 0,50,51
 784 967 784 967 795 1030 c 0,52,-1
 819 1184 l 0,53,54
 823 1198 823 1198 823 1225 c 0,55,56
 823 1268 823 1268 799.5 1285.5 c 0,57,58
 776 1303 776 1303 721 1303 c 0,59,-1
 590 1303 l 0,60,61
 529 1303 529 1303 496 1278 c 0,62,63
 463 1253 463 1253 451 1184 c 0,64,-1
 426 1030 l 0,65,66
 422 1001 422 1001 422 989 c 0,67,68
 422 948 422 948 445.5 929.5 c 0,69,70
 469 911 469 911 524 911 c 0,71,-1
 655 911 l 0,48,49
1579 1499 m 0,72,-1
 1776 1499 l 0,73,-1
 629 0 l 0,74,-1
 420 0 l 0,75,-1
 1579 1499 l 0,72,-1
217 911 m 0,76,77
 217 948 217 948 223 985 c 0,78,-1
 262 1229 l 0,79,80
 282 1364 282 1364 358 1431.5 c 0,81,82
 434 1499 434 1499 584 1499 c 0,83,-1
 791 1499 l 0,84,85
 916 1499 916 1499 973 1450 c 0,86,87
 1030 1401 1030 1401 1030 1303 c 0,88,89
 1030 1266 1030 1266 1024 1229 c 0,90,-1
 985 985 l 0,91,92
 962 850 962 850 886.5 782.5 c 0,93,94
 811 715 811 715 662 715 c 0,95,-1
 455 715 l 0,96,97
 332 715 332 715 274.5 764 c 0,98,99
 217 813 217 813 217 911 c 0,76,77
EndSplineSet
EndChar

StartChar: ampersand
Encoding: 9 38 9
Width: 1429
VWidth: 1024
Flags: W
LayerCount: 2
Fore
SplineSet
754 340 m 0,0,-1
 813 391 l 0,1,-1
 643 676 l 0,2,-1
 571 635 l 0,3,4
 489 590 489 590 458.5 536.5 c 0,5,6
 428 483 428 483 428 410 c 0,7,8
 428 344 428 344 465 305 c 0,9,10
 502 266 502 266 565 266 c 0,11,12
 616 266 616 266 660.5 282.5 c 0,13,14
 705 299 705 299 754 340 c 0,0,-1
119 336 m 0,15,16
 119 500 119 500 182.5 608.5 c 0,17,18
 246 717 246 717 385 799 c 0,19,-1
 532 883 l 0,20,-1
 510 924 l 0,21,22
 451 1039 451 1039 451 1155 c 0,23,24
 451 1311 451 1311 563.5 1410 c 0,25,26
 676 1509 676 1509 893 1509 c 0,27,28
 989 1509 989 1509 1082.5 1495 c 0,29,30
 1176 1481 1176 1481 1243 1462 c 0,31,-1
 1208 1241 l 0,32,-1
 909 1241 l 0,33,34
 751 1241 751 1241 752 1122 c 0,35,36
 752 1061 752 1061 819 944 c 0,37,-1
 1042 555 l 0,38,-1
 1376 819 l 0,39,-1
 1466 682 l 0,40,-1
 1307 453 l 0,41,-1
 1171 340 l 0,42,-1
 1372 0 l 0,43,-1
 1061 0 l 0,44,-1
 940 188 l 0,45,-1
 854 123 l 0,46,47
 760 51 760 51 671 19.5 c 0,48,49
 582 -12 582 -12 473 -12 c 0,50,51
 313 -12 313 -12 216 83 c 0,52,53
 119 178 119 178 119 336 c 0,15,16
EndSplineSet
EndChar

StartChar: quotesingle
Encoding: 10 39 10
Width: 446
VWidth: 1024
Flags: W
LayerCount: 2
Fore
SplineSet
295 1407 m 0,0,-1
 315 1544 l 0,1,-1
 606 1544 l 0,2,-1
 586 1407 l 0,3,-1
 506 1018 l 0,4,-1
 252 1018 l 0,5,-1
 295 1407 l 0,0,-1
EndSplineSet
EndChar

StartChar: parenleft
Encoding: 11 40 11
Width: 792
VWidth: 1024
Flags: W
LayerCount: 2
Fore
SplineSet
197 340 m 0,0,1
 197 592 197 592 276.5 864.5 c 0,2,3
 356 1137 356 1137 487 1373.5 c 0,4,5
 618 1610 618 1610 768 1761 c 0,6,-1
 1038 1761 l 0,7,8
 891 1583 891 1583 769 1346.5 c 0,9,10
 647 1110 647 1110 574.5 852 c 0,11,12
 502 594 502 594 502 358 c 0,13,14
 502 147 502 147 550 -41 c 0,15,16
 598 -229 598 -229 692 -430 c 0,17,-1
 422 -430 l 0,18,19
 197 -100 197 -100 197 340 c 0,0,1
EndSplineSet
EndChar

StartChar: parenright
Encoding: 12 41 12
Width: 790
VWidth: 1024
Flags: W
LayerCount: 2
Fore
SplineSet
502 979 m 0,0,1
 502 1186 502 1186 454 1371 c 0,2,3
 406 1556 406 1556 309 1761 c 0,4,-1
 582 1761 l 0,5,6
 688 1601 688 1601 746.5 1416 c 0,7,8
 805 1231 805 1231 805 995 c 0,9,10
 805 743 805 743 726 473 c 0,11,12
 647 203 647 203 517 -33.5 c 0,13,14
 387 -270 387 -270 236 -430 c 0,15,-1
 -37 -430 l 0,16,17
 113 -242 113 -242 235.5 -5.5 c 0,18,19
 358 231 358 231 430 487 c 0,20,21
 502 743 502 743 502 979 c 0,0,1
EndSplineSet
EndChar

StartChar: asterisk
Encoding: 13 42 13
Width: 890
VWidth: 1024
Flags: W
LayerCount: 2
Fore
SplineSet
535 961 m 0,0,-1
 639 1092 l 0,1,-1
 844 911 l 0,2,-1
 764 821 l 0,3,-1
 535 961 l 0,0,-1
317 852 m 0,4,-1
 416 1133 l 0,5,-1
 561 1094 l 0,6,-1
 418 817 l 0,7,-1
 317 852 l 0,4,-1
268 1286 m 0,8,-1
 561 1317 l 0,9,-1
 545 1163 l 0,10,-1
 252 1174 l 0,11,-1
 268 1286 l 0,8,-1
672 1159 m 0,12,-1
 938 1325 l 0,13,-1
 989 1235 l 0,14,-1
 750 1038 l 0,15,-1
 672 1159 l 0,12,-1
569 1479 m 0,16,-1
 682 1513 l 0,17,-1
 770 1257 l 0,18,-1
 616 1200 l 0,19,-1
 569 1479 l 0,16,-1
EndSplineSet
EndChar

StartChar: plus
Encoding: 14 43 14
Width: 1247
VWidth: 1024
Flags: W
LayerCount: 2
Fore
SplineSet
1178 606 m 0,0,-1
 842 606 l 0,1,-1
 788 270 l 0,2,-1
 545 270 l 0,3,-1
 598 606 l 0,4,-1
 260 606 l 0,5,-1
 299 852 l 0,6,-1
 635 852 l 0,7,-1
 688 1188 l 0,8,-1
 932 1188 l 0,9,-1
 879 852 l 0,10,-1
 1217 852 l 0,11,-1
 1178 606 l 0,0,-1
EndSplineSet
EndChar

StartChar: comma
Encoding: 15 44 15
Width: 479
VWidth: 1024
Flags: W
LayerCount: 2
Fore
SplineSet
92 -170 m 0,0,-1
 106 -74 l 0,1,2
 137 -74 137 -74 150.5 -65.5 c 0,3,4
 164 -57 164 -57 168 -33 c 0,5,-1
 176 20 l 0,6,-1
 158 20 l 0,7,8
 121 20 121 20 121 57 c 0,9,10
 121 75 121 75 125 94 c 0,11,-1
 150 244 l 0,12,13
 156 291 156 291 201 291 c 0,14,-1
 373 291 l 0,15,16
 408 291 408 291 408 256 c 0,17,-1
 403 215 l 0,18,-1
 362 -37 l 0,19,20
 337 -182 337 -182 186 -182 c 0,21,22
 154 -182 154 -182 127 -177 c 0,23,24
 100 -172 100 -172 92 -170 c 0,0,-1
EndSplineSet
EndChar

StartChar: hyphen
Encoding: 16 45 16
Width: 710
VWidth: 1024
Flags: W
LayerCount: 2
Fore
SplineSet
156 717 m 0,0,-1
 782 717 l 0,1,-1
 745 471 l 0,2,-1
 119 471 l 0,3,-1
 156 717 l 0,0,-1
EndSplineSet
EndChar

StartChar: period
Encoding: 17 46 17
Width: 479
VWidth: 1024
Flags: W
LayerCount: 2
Fore
SplineSet
115 31 m 0,0,-1
 115 39 l 0,1,-1
 150 248 l 0,2,3
 156 291 156 291 199 291 c 0,4,-1
 375 291 l 0,5,6
 412 291 412 291 412 260 c 0,7,-1
 412 248 l 0,8,-1
 377 39 l 0,9,10
 373 -2 373 -2 328 -2 c 0,11,-1
 152 -2 l 0,12,13
 135 -2 135 -2 125 7 c 0,14,15
 115 16 115 16 115 31 c 0,0,-1
EndSplineSet
EndChar

StartChar: slash
Encoding: 18 47 18
Width: 946
VWidth: 1024
Flags: W
LayerCount: 2
Fore
SplineSet
856 1577 m 0,0,-1
 1165 1577 l 0,1,-1
 317 -147 l 0,2,-1
 8 -147 l 0,3,-1
 856 1577 l 0,0,-1
EndSplineSet
EndChar

StartChar: zero
Encoding: 19 48 19
Width: 1325
VWidth: 1024
Flags: W
LayerCount: 2
Fore
SplineSet
788 264 m 0,0,1
 870 264 870 264 916.5 304 c 0,2,3
 963 344 963 344 977 428 c 0,4,-1
 1081 1092 l 0,5,6
 1085 1108 1085 1108 1085 1137 c 0,7,8
 1085 1256 1085 1256 956 1255 c 0,9,-1
 770 1255 l 0,10,11
 694 1255 694 1255 647 1213 c 0,12,13
 600 1171 600 1171 588 1092 c 0,14,-1
 483 430 l 0,15,16
 479 393 479 393 479 385 c 0,17,18
 479 264 479 264 625 264 c 0,19,-1
 788 264 l 0,0,1
164 291 m 0,20,21
 164 340 164 340 172 383 c 0,22,-1
 289 1120 l 0,23,24
 322 1317 322 1317 443.5 1422.5 c 0,25,26
 565 1528 565 1528 754 1528 c 0,27,-1
 1071 1528 l 0,28,29
 1233 1528 1233 1528 1316 1448 c 0,30,31
 1399 1368 1399 1368 1399 1221 c 0,32,33
 1399 1194 1399 1194 1391 1120 c 0,34,-1
 1274 383 l 0,35,36
 1243 195 1243 195 1126.5 93.5 c 0,37,38
 1010 -8 1010 -8 825 -8 c 0,39,-1
 508 -8 l 0,40,41
 342 -8 342 -8 253 67.5 c 0,42,43
 164 143 164 143 164 291 c 0,20,21
EndSplineSet
EndChar

StartChar: one
Encoding: 20 49 20
Width: 761
VWidth: 1024
Flags: W
LayerCount: 2
Fore
SplineSet
528 1241 m 0,0,-1
 252 1192 l 0,1,-1
 283 1386 l 0,2,-1
 606 1516 l 0,3,-1
 877 1516 l 0,4,-1
 635 0 l 0,5,-1
 332 0 l 0,6,-1
 528 1241 l 0,0,-1
EndSplineSet
EndChar

StartChar: two
Encoding: 21 50 21
Width: 1200
VWidth: 1024
Flags: W
LayerCount: 2
Fore
SplineSet
131 244 m 0,0,-1
 709 745 l 0,1,2
 822 845 822 845 877 937.5 c 0,3,4
 932 1030 932 1030 932 1106 c 0,5,6
 932 1174 932 1174 892 1207.5 c 0,7,8
 852 1241 852 1241 762 1241 c 0,9,-1
 326 1241 l 0,10,-1
 365 1479 l 0,11,12
 521 1504 521 1504 614 1516 c 0,13,14
 707 1528 707 1528 827 1528 c 0,15,16
 1042 1528 1042 1528 1139.5 1439 c 0,17,18
 1237 1350 1237 1350 1237 1194 c 0,19,20
 1237 1038 1237 1038 1166.5 894 c 0,21,22
 1096 750 1096 750 938 612 c 0,23,-1
 555 274 l 0,24,-1
 1171 274 l 0,25,-1
 1128 0 l 0,26,-1
 94 0 l 0,27,-1
 131 244 l 0,0,-1
EndSplineSet
EndChar

StartChar: three
Encoding: 22 51 22
Width: 1185
VWidth: 1024
Flags: W
LayerCount: 2
Fore
SplineSet
82 31 m 0,0,-1
 119 258 l 0,1,-1
 584 258 l 0,2,3
 713 258 713 258 774.5 292 c 0,4,5
 836 326 836 326 850 412 c 0,6,7
 864 490 864 490 864 498 c 0,8,9
 864 564 864 564 806 599.5 c 0,10,11
 748 635 748 635 649 639 c 0,12,-1
 315 653 l 0,13,-1
 350 870 l 0,14,-1
 715 891 l 0,15,16
 910 901 910 901 932 1034 c 0,17,18
 940 1097 940 1097 940 1118 c 0,19,20
 940 1255 940 1255 731 1255 c 0,21,-1
 309 1255 l 0,22,-1
 344 1483 l 0,23,24
 647 1528 647 1528 870 1528 c 0,25,26
 1065 1528 1065 1528 1161 1460.5 c 0,27,28
 1257 1393 1257 1393 1257 1233 c 0,29,30
 1257 1194 1257 1194 1233 1040 c 0,31,32
 1215 927 1215 927 1152.5 859 c 0,33,34
 1090 791 1090 791 999 762 c 0,35,36
 1071 742 1071 742 1118 677 c 0,37,38
 1165 612 1165 612 1165 516 c 0,39,40
 1165 493 1165 493 1147 360 c 0,41,42
 1120 180 1120 180 990 84 c 0,43,44
 860 -12 860 -12 655 -12 c 0,45,46
 334 -12 334 -12 82 31 c 0,0,-1
EndSplineSet
EndChar

StartChar: four
Encoding: 23 52 23
Width: 1267
VWidth: 1024
Flags: W
LayerCount: 2
Fore
SplineSet
819 322 m 0,0,-1
 156 322 l 0,1,-1
 121 465 l 0,2,-1
 778 1516 l 0,3,-1
 1090 1516 l 0,4,-1
 500 580 l 0,5,-1
 860 580 l 0,6,-1
 905 874 l 0,7,-1
 993 1049 l 0,8,-1
 1237 1049 l 0,9,-1
 1163 580 l 0,10,-1
 1319 580 l 0,11,-1
 1286 371 l 0,12,-1
 1122 322 l 0,13,-1
 1071 2 l 0,14,-1
 768 2 l 0,15,-1
 819 322 l 0,0,-1
EndSplineSet
EndChar

StartChar: five
Encoding: 24 53 24
Width: 1243
VWidth: 1024
Flags: W
LayerCount: 2
Fore
SplineSet
141 23 m 0,0,-1
 180 262 l 0,1,-1
 696 262 l 0,2,3
 798 262 798 262 851.5 311 c 0,4,5
 905 360 905 360 918 434 c 0,6,-1
 934 539 l 0,7,8
 938 568 938 568 938 584 c 0,9,10
 938 699 938 699 803 698 c 0,11,-1
 684 698 l 0,12,13
 616 698 616 698 579.5 671.5 c 0,14,15
 543 645 543 645 524 586 c 0,16,-1
 233 586 l 0,17,-1
 424 1516 l 0,18,-1
 1335 1516 l 0,19,-1
 1290 1243 l 0,20,-1
 670 1243 l 0,21,-1
 600 889 l 0,22,23
 635 920 635 920 683 938 c 0,24,25
 731 956 731 956 786 956 c 0,26,-1
 950 956 l 0,27,28
 1100 956 1100 956 1176.5 879.5 c 0,29,30
 1253 803 1253 803 1253 674 c 0,31,32
 1253 635 1253 635 1247 594 c 0,33,-1
 1210 371 l 0,34,35
 1179 174 1179 174 1036 82 c 0,36,37
 893 -10 893 -10 641 -10 c 0,38,39
 452 -10 452 -10 141 23 c 0,0,-1
EndSplineSet
EndChar

StartChar: six
Encoding: 25 54 25
Width: 1243
VWidth: 1024
Flags: W
LayerCount: 2
Fore
SplineSet
752 262 m 0,0,1
 822 262 822 262 861.5 296 c 0,2,3
 901 330 901 330 913 408 c 0,4,-1
 930 508 l 0,5,6
 934 541 934 541 934 555 c 0,7,8
 934 612 934 612 895 633.5 c 0,9,10
 856 655 856 655 768 655 c 0,11,-1
 512 655 l 0,12,13
 494 542 494 542 494 465 c 0,14,15
 494 352 494 352 533.5 307 c 0,16,17
 573 262 573 262 659 262 c 0,18,-1
 752 262 l 0,0,1
190 428 m 0,19,20
 190 934 190 934 365.5 1231 c 0,21,22
 541 1528 541 1528 920 1528 c 0,23,24
 1147 1528 1147 1528 1298 1495 c 0,25,-1
 1260 1255 l 0,26,-1
 903 1255 l 0,27,28
 608 1255 608 1255 547 879 c 0,29,30
 676 914 676 914 895 913 c 0,31,32
 1079 913 1079 913 1164 847.5 c 0,33,34
 1249 782 1249 782 1249 655 c 0,35,36
 1249 606 1249 606 1241 565 c 0,37,-1
 1206 348 l 0,38,39
 1177 164 1177 164 1063.5 77 c 0,40,41
 950 -10 950 -10 776 -10 c 0,42,-1
 557 -10 l 0,43,44
 434 -10 434 -10 354 29 c 0,45,46
 274 68 274 68 232 164 c 0,47,48
 190 260 190 260 190 428 c 0,19,20
EndSplineSet
EndChar

StartChar: seven
Encoding: 26 55 26
Width: 1134
VWidth: 1024
Flags: W
LayerCount: 2
Fore
SplineSet
889 1212 m 0,0,-1
 246 1212 l 0,1,-1
 293 1516 l 0,2,-1
 1249 1516 l 0,3,-1
 1307 1386 l 0,4,-1
 586 0 l 0,5,-1
 233 0 l 0,6,-1
 889 1212 l 0,0,-1
EndSplineSet
EndChar

StartChar: eight
Encoding: 27 56 27
Width: 1286
VWidth: 1024
Flags: W
LayerCount: 2
Fore
SplineSet
762 248 m 0,0,1
 842 248 842 248 877.5 279.5 c 0,2,3
 913 311 913 311 924 377 c 0,4,-1
 946 512 l 0,5,-1
 948 543 l 0,6,7
 948 645 948 645 823 645 c 0,8,-1
 672 645 l 0,9,10
 613 645 613 645 563.5 610 c 0,11,12
 514 575 514 575 504 512 c 0,13,-1
 481 377 l 0,14,15
 479 365 479 365 479 342 c 0,16,17
 479 248 479 248 610 248 c 0,18,-1
 762 248 l 0,0,1
862 903 m 0,19,20
 932 903 932 903 964.5 939 c 0,21,22
 997 975 997 975 1008 1042 c 0,23,-1
 1022 1139 l 0,24,25
 1026 1172 1026 1172 1026 1182 c 0,26,27
 1026 1233 1026 1233 1000.5 1251.5 c 0,28,29
 975 1270 975 1270 926 1270 c 0,30,-1
 772 1270 l 0,31,32
 704 1270 704 1270 670.5 1242 c 0,33,34
 637 1214 637 1214 625 1139 c 0,35,-1
 610 1042 l 0,36,37
 606 1024 606 1024 606 995 c 0,38,39
 606 948 606 948 631.5 925.5 c 0,40,41
 657 903 657 903 713 903 c 0,42,-1
 862 903 l 0,19,20
160 231 m 0,43,44
 160 262 160 262 168 311 c 0,45,-1
 203 528 l 0,46,47
 217 618 217 618 273.5 686 c 0,48,49
 330 754 330 754 408 772 c 0,50,51
 304 827 304 827 303 942 c 0,52,53
 303 965 303 965 307 995.5 c 0,54,55
 311 1026 311 1026 313 1038 c 0,56,-1
 340 1214 l 0,57,58
 393 1527 393 1527 745 1528 c 0,59,-1
 1055 1528 l 0,60,61
 1196 1528 1196 1528 1266.5 1473.5 c 0,62,63
 1337 1419 1337 1419 1337 1296 c 0,64,65
 1337 1276 1337 1276 1329 1210 c 0,66,-1
 1303 1038 l 0,67,68
 1291 964 1291 964 1246.5 887.5 c 0,69,70
 1202 811 1202 811 1128 797 c 0,71,72
 1198 781 1198 781 1229 729.5 c 0,73,74
 1260 678 1260 678 1260 606 c 0,75,76
 1260 596 1260 596 1253 535 c 0,77,-1
 1219 322 l 0,78,79
 1188 136 1188 136 1082.5 64 c 0,80,81
 977 -8 977 -8 809 -8 c 0,82,-1
 502 -8 l 0,83,84
 160 -9 160 -9 160 231 c 0,43,44
EndSplineSet
EndChar

StartChar: nine
Encoding: 28 57 28
Width: 1243
VWidth: 1024
Flags: W
LayerCount: 2
Fore
SplineSet
729 1255 m 0,0,1
 659 1255 659 1255 619.5 1221.5 c 0,2,3
 580 1188 580 1188 567 1110 c 0,4,-1
 551 1010 l 0,5,6
 547 977 547 977 547 963 c 0,7,8
 547 906 547 906 586 884 c 0,9,10
 625 862 625 862 713 862 c 0,11,-1
 969 862 l 0,12,13
 987 977 987 977 987 1053 c 0,14,15
 987 1166 987 1166 947 1210.5 c 0,16,17
 907 1255 907 1255 821 1255 c 0,18,-1
 729 1255 l 0,0,1
1290 1090 m 0,19,20
 1290 584 1290 584 1115 287 c 0,21,22
 940 -10 940 -10 561 -10 c 0,23,24
 334 -10 334 -10 182 23 c 0,25,-1
 221 262 l 0,26,-1
 578 262 l 0,27,28
 873 262 873 262 934 639 c 0,29,30
 805 604 805 604 586 604 c 0,31,32
 402 604 402 604 316.5 669.5 c 0,33,34
 231 735 231 735 231 862 c 0,35,36
 231 911 231 911 240 952 c 0,37,-1
 274 1169 l 0,38,39
 303 1353 303 1353 416.5 1440.5 c 0,40,41
 530 1528 530 1528 705 1528 c 0,42,-1
 924 1528 l 0,43,44
 1047 1528 1047 1528 1126.5 1489 c 0,45,46
 1206 1450 1206 1450 1248 1353.5 c 0,47,48
 1290 1257 1290 1257 1290 1090 c 0,19,20
EndSplineSet
EndChar

StartChar: colon
Encoding: 29 58 29
Width: 479
VWidth: 1024
Flags: W
LayerCount: 2
Fore
SplineSet
543 868 m 0,0,1
 543 832 543 832 529 801 c 0,2,3
 516 769 516 769 493 745 c 0,4,5
 469 721 469 721 437 708 c 0,6,7
 405 694 405 694 369 694 c 0,8,9
 333 694 333 694 301 708 c 0,10,11
 269 722 269 722 244 745 c 0,12,13
 220 769 220 769 206 801 c 0,14,15
 192 833 192 833 193 868 c 0,16,17
 193 904 193 904 206 936 c 0,18,19
 220 968 220 968 244 993 c 0,20,21
 268 1017 268 1017 301 1031 c 0,22,23
 333 1045 333 1045 369 1044 c 0,24,25
 406 1044 406 1044 437 1031 c 0,26,27
 469 1017 469 1017 493 993 c 0,28,29
 517 969 517 969 529 936 c 0,30,31
 543 904 543 904 543 868 c 0,0,1
400 148 m 0,32,33
 400 112 400 112 387 81 c 0,34,35
 373 49 373 49 349 26 c 0,36,37
 325 2 325 2 294 -12 c 0,38,39
 262 -26 262 -26 226 -26 c 0,40,41
 190 -26 190 -26 158 -12 c 0,42,43
 126 2 126 2 102 26 c 0,44,45
 78 50 78 50 64 81 c 0,46,47
 50 113 50 113 50 148 c 0,48,49
 50 185 50 185 64 217 c 0,50,51
 78 249 78 249 102 273 c 0,52,53
 126 297 126 297 158 311 c 0,54,55
 190 325 190 325 226 325 c 0,56,57
 262 325 262 325 294 311 c 0,58,59
 326 297 326 297 349 273 c 0,60,61
 373 249 373 249 387 217 c 0,62,63
 400 185 400 185 400 148 c 0,32,33
EndSplineSet
Refer: 17 46 N 1 0 0 1 129 811 2
Refer: 17 46 N 1 0 0 1 0 0 2
EndChar

StartChar: semicolon
Encoding: 30 59 30
Width: 479
VWidth: 1024
Flags: W
LayerCount: 2
Fore
SplineSet
543 868 m 0,0,1
 543 832 543 832 529 801 c 0,2,3
 516 769 516 769 493 745 c 0,4,5
 469 721 469 721 437 708 c 0,6,7
 405 694 405 694 369 694 c 0,8,9
 333 694 333 694 301 708 c 0,10,11
 269 722 269 722 244 745 c 0,12,13
 220 769 220 769 206 801 c 0,14,15
 192 833 192 833 193 868 c 0,16,17
 193 904 193 904 206 936 c 0,18,19
 220 968 220 968 244 993 c 0,20,21
 268 1017 268 1017 301 1031 c 0,22,23
 333 1045 333 1045 369 1044 c 0,24,25
 406 1044 406 1044 437 1031 c 0,26,27
 469 1017 469 1017 493 993 c 0,28,29
 517 969 517 969 529 936 c 0,30,31
 543 904 543 904 543 868 c 0,0,1
420 176 m 0,32,33
 420 115 420 115 397 52 c 0,34,35
 374 -10 374 -10 334 -70 c 0,36,37
 294 -129 294 -129 241 -182 c 0,38,39
 188 -235 188 -235 129 -274 c 0,40,41
 70 -314 70 -314 7 -339 c 0,42,43
 -56 -364 -56 -364 -116 -369 c 0,44,-1
 -96 -266 l 0,45,46
 -38 -258 -38 -258 14 -236 c 0,47,48
 66 -213 66 -213 106 -178 c 0,49,50
 147 -143 147 -143 175 -94 c 0,51,52
 203 -46 203 -46 212 14 c 0,53,-1
 84 14 l 0,54,55
 64 33 64 33 53 59 c 0,56,57
 42 85 42 85 42 114 c 0,58,59
 42 156 42 156 60 194 c 0,60,61
 78 232 78 232 108 262 c 0,62,63
 138 291 138 291 176 308 c 0,64,65
 215 325 215 325 258 325 c 0,66,67
 329 325 329 325 374 288 c 0,68,69
 420 252 420 252 420 176 c 0,32,33
EndSplineSet
Refer: 15 44 N 1 0 0 1 0 0 2
Refer: 17 46 N 1 0 0 1 129 811 2
EndChar

StartChar: less
Encoding: 31 60 31
Width: 1247
VWidth: 1024
Flags: W
LayerCount: 2
Fore
SplineSet
272 584 m 0,0,-1
 315 852 l 0,1,-1
 1208 1120 l 0,2,-1
 1167 856 l 0,3,-1
 590 719 l 0,4,-1
 1120 571 l 0,5,-1
 1079 305 l 0,6,-1
 272 584 l 0,0,-1
EndSplineSet
EndChar

StartChar: equal
Encoding: 32 61 32
Width: 1247
VWidth: 1024
Flags: W
LayerCount: 2
Fore
SplineSet
420 755 m 0,0,-1
 420 885 l 0,1,-1
 1677 885 l 0,2,-1
 1677 755 l 0,3,-1
 420 755 l 0,0,-1
420 374 m 0,4,-1
 420 504 l 0,5,-1
 1677 504 l 0,6,-1
 1677 374 l 0,7,-1
 420 374 l 0,4,-1
EndSplineSet
Refer: 387 8722 N 1 0 0 1 39 246 2
Refer: 387 8722 N 1 0 0 1 -39 -246 2
EndChar

StartChar: greater
Encoding: 33 62 33
Width: 1247
VWidth: 1024
Flags: W
LayerCount: 2
Fore
SplineSet
291 571 m 0,0,-1
 870 721 l 0,1,-1
 338 856 l 0,2,-1
 379 1120 l 0,3,-1
 1186 852 l 0,4,-1
 1145 584 l 0,5,-1
 250 305 l 0,6,-1
 291 571 l 0,0,-1
EndSplineSet
EndChar

StartChar: question
Encoding: 34 63 34
Width: 1083
VWidth: 1024
Flags: W
LayerCount: 2
Fore
SplineSet
297 31 m 0,0,-1
 297 39 l 0,1,-1
 332 248 l 0,2,3
 338 291 338 291 381 291 c 0,4,-1
 557 291 l 0,5,6
 594 291 594 291 594 260 c 0,7,-1
 594 248 l 0,8,-1
 559 39 l 0,9,10
 555 -2 555 -2 510 -2 c 0,11,-1
 334 -2 l 0,12,13
 317 -2 317 -2 307 7 c 0,14,15
 297 16 297 16 297 31 c 0,0,-1
434 821 m 0,16,-1
 575 821 l 0,17,18
 686 821 686 821 744.5 857 c 0,19,20
 803 893 803 893 817 985 c 0,21,-1
 827 1051 l 0,22,23
 831 1088 831 1088 831 1100 c 0,24,25
 831 1174 831 1174 780 1207.5 c 0,26,27
 729 1241 729 1241 627 1241 c 0,28,29
 543 1241 543 1241 459 1223.5 c 0,30,31
 375 1206 375 1206 274 1174 c 0,32,-1
 309 1397 l 0,33,34
 522 1514 522 1514 764 1513 c 0,35,36
 952 1513 952 1513 1049.5 1426 c 0,37,38
 1147 1339 1147 1339 1147 1188 c 0,39,40
 1147 1141 1147 1141 1139 1100 c 0,41,-1
 1118 979 l 0,42,43
 1059 592 1059 592 625 592 c 0,44,-1
 598 416 l 0,45,-1
 371 416 l 0,46,-1
 434 821 l 0,16,-1
EndSplineSet
EndChar

StartChar: at
Encoding: 35 64 35
Width: 1906
VWidth: 1024
Flags: W
LayerCount: 2
Fore
SplineSet
1186 313 m 0,0,-1
 1266 844 l 0,1,2
 1174 877 1174 877 1094 877 c 0,3,4
 1000 877 1000 877 927 819.5 c 0,5,6
 854 762 854 762 813 657.5 c 0,7,8
 772 553 772 553 772 414 c 0,9,10
 772 318 772 318 811 268.5 c 0,11,12
 850 219 850 219 926 219 c 0,13,14
 995 219 995 219 1065 243.5 c 0,15,16
 1135 268 1135 268 1186 313 c 0,0,-1
100 -20 m 0,17,18
 100 43 100 43 109 94 c 0,19,-1
 264 1067 l 0,20,21
 303 1303 303 1303 438 1397 c 0,22,23
 573 1491 573 1491 819 1491 c 0,24,-1
 1567 1491 l 0,25,26
 1757 1491 1757 1491 1855.5 1389.5 c 0,27,28
 1954 1288 1954 1288 1954 1118 c 0,29,30
 1954 1059 1954 1059 1944 977 c 0,31,-1
 1855 389 l 0,32,33
 1828 209 1828 209 1712.5 104.5 c 0,34,35
 1597 0 1597 0 1397 0 c 0,36,-1
 1210 0 l 0,37,-1
 1161 115 l 0,38,39
 1124 68 1124 68 1033 28 c 0,40,41
 942 -12 942 -12 846 -12 c 0,42,43
 711 -12 711 -12 626 83 c 0,44,45
 541 178 541 178 541 381 c 0,46,47
 541 604 541 604 618.5 768 c 0,48,49
 696 932 696 932 827 1017 c 0,50,51
 958 1102 958 1102 1112 1102 c 0,52,53
 1350 1102 1350 1102 1518 965 c 0,54,-1
 1401 203 l 0,55,56
 1491 203 1491 203 1548.5 245 c 0,57,58
 1606 287 1606 287 1624 418 c 0,59,-1
 1712 1008 l 0,60,61
 1720 1074 1720 1074 1720 1096 c 0,62,63
 1720 1188 1720 1188 1661 1232 c 0,64,65
 1602 1276 1602 1276 1501 1276 c 0,66,-1
 772 1276 l 0,67,68
 631 1276 631 1276 570.5 1203 c 0,69,70
 510 1130 510 1130 489 1008 c 0,71,-1
 340 63 l 0,72,73
 334 30 334 30 334 0 c 0,74,75
 334 -84 334 -84 384 -133 c 0,76,77
 434 -182 434 -182 541 -182 c 0,78,-1
 1329 -182 l 0,79,-1
 1303 -350 l 0,80,81
 1207 -368 1207 -368 1044 -382.5 c 0,82,83
 881 -397 881 -397 707 -397 c 0,84,-1
 520 -397 l 0,85,86
 299 -397 299 -397 199.5 -292.5 c 0,87,88
 100 -188 100 -188 100 -20 c 0,17,18
EndSplineSet
EndChar

StartChar: A
Encoding: 36 65 36
Width: 1425
VWidth: 1024
Flags: W
LayerCount: 2
Fore
SplineSet
993 590 m 0,0,-1
 915 1253 l 0,1,-1
 621 590 l 0,2,-1
 993 590 l 0,0,-1
768 1516 m 0,3,-1
 1149 1516 l 0,4,-1
 1382 0 l 0,5,-1
 1067 0 l 0,6,-1
 1024 317 l 0,7,-1
 506 317 l 0,8,-1
 358 0 l 0,9,-1
 47 0 l 0,10,-1
 768 1516 l 0,3,-1
EndSplineSet
EndChar

StartChar: B
Encoding: 37 66 37
Width: 1300
VWidth: 1024
Flags: W
LayerCount: 2
Fore
SplineSet
762 272 m 0,0,1
 871 272 871 272 922 316 c 0,2,3
 973 360 973 360 989 461 c 0,4,5
 993 481 993 481 993 518 c 0,6,7
 993 659 993 659 819 659 c 0,8,-1
 537 659 l 0,9,-1
 475 272 l 0,10,-1
 762 272 l 0,0,1
854 893 m 0,11,12
 1004 893 1004 893 1034 1044 c 0,13,14
 1044 1095 1044 1095 1044 1122 c 0,15,16
 1044 1185 1044 1185 1006.5 1214 c 0,17,18
 969 1243 969 1243 891 1243 c 0,19,-1
 629 1243 l 0,20,-1
 571 893 l 0,21,-1
 854 893 l 0,11,12
367 1516 m 0,22,-1
 954 1516 l 0,23,24
 1169 1516 1169 1516 1256 1435 c 0,25,26
 1343 1354 1343 1354 1343 1204 c 0,27,28
 1343 1149 1343 1149 1335 1098 c 0,29,30
 1317 981 1317 981 1243 898 c 0,31,32
 1169 815 1169 815 1057 788 c 0,33,34
 1166 759 1166 759 1223 687.5 c 0,35,36
 1280 616 1280 616 1280 487 c 0,37,38
 1280 438 1280 438 1268 360 c 0,39,40
 1235 170 1235 170 1101 85 c 0,41,42
 967 0 967 0 723 0 c 0,43,-1
 129 0 l 0,44,-1
 367 1516 l 0,22,-1
EndSplineSet
EndChar

StartChar: C
Encoding: 38 67 38
Width: 1210
VWidth: 1024
Flags: W
LayerCount: 2
Fore
SplineSet
193 502 m 0,0,1
 193 639 193 639 219 805 c 0,2,3
 276 1174 276 1174 424.5 1351 c 0,4,5
 573 1528 573 1528 858 1528 c 0,6,7
 1128 1528 1128 1528 1348 1442 c 0,8,-1
 1309 1202 l 0,9,10
 1106 1255 1106 1255 911 1255 c 0,11,12
 796 1255 796 1255 724.5 1215.5 c 0,13,14
 653 1176 653 1176 603 1066 c 0,15,16
 553 956 553 956 518 750 c 0,17,18
 493 588 493 588 494 500 c 0,19,20
 494 371 494 371 555 315.5 c 0,21,22
 616 260 616 260 768 260 c 0,23,24
 895 260 895 260 978 266 c 0,25,26
 1061 272 1061 272 1163 285 c 0,27,-1
 1124 47 l 0,28,29
 952 -12 952 -12 688 -12 c 0,30,31
 436 -12 436 -12 314.5 121 c 0,32,33
 193 254 193 254 193 502 c 0,0,1
EndSplineSet
EndChar

StartChar: D
Encoding: 39 68 39
Width: 1406
VWidth: 1024
Flags: W
LayerCount: 2
Fore
SplineSet
727 272 m 0,0,1
 899 272 899 272 992 394 c 0,2,3
 1085 516 1085 516 1124 762 c 0,4,5
 1147 907 1147 907 1147 975 c 0,6,7
 1147 1120 1147 1120 1083.5 1181.5 c 0,8,9
 1020 1243 1020 1243 866 1243 c 0,10,-1
 627 1243 l 0,11,-1
 473 272 l 0,12,-1
 727 272 l 0,0,1
367 1516 m 0,13,-1
 942 1516 l 0,14,15
 1225 1516 1225 1516 1338.5 1380.5 c 0,16,17
 1452 1245 1452 1245 1452 987 c 0,18,19
 1452 852 1452 852 1427 711 c 0,20,21
 1370 342 1370 342 1193 171 c 0,22,23
 1016 0 1016 0 696 0 c 0,24,-1
 127 0 l 0,25,-1
 367 1516 l 0,13,-1
EndSplineSet
EndChar

StartChar: E
Encoding: 40 69 40
Width: 1216
VWidth: 1024
Flags: W
LayerCount: 2
Fore
SplineSet
172 254 m 0,0,1
 172 291 172 291 178 330 c 0,2,-1
 311 1167 l 0,3,4
 364 1515 364 1515 717 1516 c 0,5,6
 989 1516 989 1516 1335 1489 c 0,7,-1
 1294 1235 l 0,8,-1
 760 1235 l 0,9,10
 688 1235 688 1235 651 1200 c 0,11,12
 614 1165 614 1165 602 1092 c 0,13,-1
 571 895 l 0,14,-1
 1139 877 l 0,15,-1
 1100 637 l 0,16,-1
 528 621 l 0,17,-1
 496 410 l 0,18,19
 492 381 492 381 492 371 c 0,20,21
 492 318 492 318 522.5 295 c 0,22,23
 553 272 553 272 616 272 c 0,24,-1
 1143 272 l 0,25,-1
 1104 18 l 0,26,27
 719 -11 719 -11 496 -12 c 0,28,29
 365 -12 365 -12 268.5 45 c 0,30,31
 172 102 172 102 172 254 c 0,0,1
EndSplineSet
EndChar

StartChar: F
Encoding: 41 70 41
Width: 1155
VWidth: 1024
Flags: W
LayerCount: 2
Fore
SplineSet
311 1171 m 0,0,1
 366 1515 366 1515 713 1516 c 0,2,3
 1012 1516 1012 1516 1331 1489 c 0,4,-1
 1292 1235 l 0,5,-1
 758 1235 l 0,6,7
 686 1235 686 1235 649 1200 c 0,8,9
 612 1165 612 1165 602 1092 c 0,10,-1
 565 848 l 0,11,-1
 1133 831 l 0,12,-1
 1094 592 l 0,13,-1
 522 578 l 0,14,-1
 430 0 l 0,15,-1
 127 0 l 0,16,-1
 311 1171 l 0,0,1
EndSplineSet
EndChar

StartChar: G
Encoding: 42 71 42
Width: 1347
VWidth: 1024
Flags: W
LayerCount: 2
Fore
SplineSet
186 465 m 0,0,1
 186 600 186 600 221 821 c 0,2,3
 276 1175 276 1175 438 1352.5 c 0,4,5
 600 1530 600 1530 883 1530 c 0,6,7
 1055 1530 1055 1530 1173.5 1511.5 c 0,8,9
 1292 1493 1292 1493 1403 1458 c 0,10,-1
 1366 1223 l 0,11,12
 1180 1258 1180 1258 918 1257 c 0,13,14
 787 1257 787 1257 711 1208 c 0,15,16
 635 1159 635 1159 592 1052.5 c 0,17,18
 549 946 549 946 518 754 c 0,19,20
 493 588 493 588 494 489 c 0,21,22
 494 378 494 378 540 323 c 0,23,24
 586 268 586 268 686 268 c 0,25,26
 756 268 756 268 849 282.5 c 0,27,28
 942 297 942 297 993 311 c 0,29,-1
 1040 608 l 0,30,-1
 768 608 l 0,31,-1
 807 848 l 0,32,33
 821 850 821 850 917.5 858 c 0,34,35
 1014 866 1014 866 1149 866 c 0,36,37
 1278 866 1278 866 1372 862 c 0,38,-1
 1237 0 l 0,39,-1
 1008 0 l 0,40,-1
 983 102 l 0,41,42
 917 63 917 63 791.5 25.5 c 0,43,44
 666 -12 666 -12 580 -12 c 0,45,46
 369 -12 369 -12 277.5 101.5 c 0,47,48
 186 215 186 215 186 465 c 0,0,1
EndSplineSet
EndChar

StartChar: H
Encoding: 43 72 43
Width: 1415
VWidth: 1024
Flags: W
LayerCount: 2
Fore
SplineSet
367 1516 m 0,0,-1
 670 1516 l 0,1,-1
 569 885 l 0,2,-1
 1141 885 l 0,3,-1
 1241 1516 l 0,4,-1
 1544 1516 l 0,5,-1
 1305 0 l 0,6,-1
 1001 0 l 0,7,-1
 1098 612 l 0,8,-1
 526 612 l 0,9,-1
 430 0 l 0,10,-1
 127 0 l 0,11,-1
 367 1516 l 0,0,-1
EndSplineSet
EndChar

StartChar: I
Encoding: 44 73 44
Width: 557
VWidth: 1024
Flags: W
LayerCount: 2
Fore
SplineSet
367 1516 m 0,0,-1
 670 1516 l 0,1,-1
 430 0 l 0,2,-1
 127 0 l 0,3,-1
 367 1516 l 0,0,-1
EndSplineSet
EndChar

StartChar: J
Encoding: 45 74 45
Width: 800
VWidth: 1024
Flags: W
LayerCount: 2
Fore
SplineSet
68 33 m 0,0,-1
 106 274 l 0,1,2
 167 264 167 264 256 264 c 0,3,4
 346 264 346 264 394 307 c 0,5,6
 442 350 442 350 457 438 c 0,7,-1
 627 1516 l 0,8,-1
 930 1516 l 0,9,-1
 750 375 l 0,10,11
 717 166 717 166 613.5 77 c 0,12,13
 510 -12 510 -12 307 -12 c 0,14,15
 244 -12 244 -12 177.5 1 c 0,16,17
 111 14 111 14 68 33 c 0,0,-1
EndSplineSet
EndChar

StartChar: K
Encoding: 46 75 46
Width: 1312
VWidth: 1024
Flags: W
LayerCount: 2
Fore
SplineSet
367 1516 m 0,0,-1
 670 1516 l 0,1,-1
 573 897 l 0,2,-1
 772 897 l 0,3,-1
 1188 1516 l 0,4,-1
 1499 1516 l 0,5,-1
 995 754 l 0,6,-1
 1294 0 l 0,7,-1
 991 0 l 0,8,-1
 745 625 l 0,9,-1
 528 625 l 0,10,-1
 430 0 l 0,11,-1
 127 0 l 0,12,-1
 367 1516 l 0,0,-1
EndSplineSet
EndChar

StartChar: L
Encoding: 47 76 47
Width: 1089
VWidth: 1024
Flags: W
LayerCount: 2
Fore
SplineSet
178 274 m 0,0,1
 178 319 178 319 184 369 c 0,2,-1
 367 1516 l 0,3,-1
 670 1516 l 0,4,-1
 496 408 l 0,5,6
 492 394 492 394 492 369 c 0,7,8
 492 318 492 318 521.5 295 c 0,9,10
 551 272 551 272 610 272 c 0,11,-1
 1090 272 l 0,12,-1
 1044 0 l 0,13,-1
 479 0 l 0,14,15
 336 0 336 0 257 67.5 c 0,16,17
 178 135 178 135 178 274 c 0,0,1
EndSplineSet
EndChar

StartChar: M
Encoding: 48 77 48
Width: 1779
VWidth: 1024
Flags: W
LayerCount: 2
Fore
SplineSet
508 1516 m 0,0,-1
 793 1516 l 0,1,-1
 963 358 l 0,2,-1
 1499 1516 l 0,3,-1
 1782 1516 l 0,4,-1
 1720 0 l 0,5,-1
 1427 0 l 0,6,-1
 1468 975 l 0,7,-1
 1047 0 l 0,8,-1
 762 0 l 0,9,-1
 647 963 l 0,10,-1
 385 0 l 0,11,-1
 84 0 l 0,12,-1
 508 1516 l 0,0,-1
EndSplineSet
EndChar

StartChar: N
Encoding: 49 78 49
Width: 1419
VWidth: 1024
Flags: W
LayerCount: 2
Fore
SplineSet
367 1516 m 0,0,-1
 610 1516 l 0,1,-1
 1085 516 l 0,2,-1
 1245 1516 l 0,3,-1
 1548 1516 l 0,4,-1
 1307 0 l 0,5,-1
 1065 0 l 0,6,-1
 590 1001 l 0,7,-1
 430 0 l 0,8,-1
 127 0 l 0,9,-1
 367 1516 l 0,0,-1
EndSplineSet
EndChar

StartChar: O
Encoding: 50 79 50
Width: 1427
VWidth: 1024
Flags: W
LayerCount: 2
Fore
SplineSet
1145 739 m 0,0,1
 1174 911 1174 911 1174 1022 c 0,2,3
 1174 1116 1174 1116 1145 1166.5 c 0,4,5
 1116 1217 1116 1217 1061 1236 c 0,6,7
 1006 1255 1006 1255 911 1255 c 0,8,9
 790 1255 790 1255 717.5 1213 c 0,10,11
 645 1171 645 1171 599 1064.5 c 0,12,13
 553 958 553 958 520 758 c 0,14,15
 489 578 489 578 489 483 c 0,16,17
 489 354 489 354 549.5 308 c 0,18,19
 610 262 610 262 758 262 c 0,20,21
 879 262 879 262 953.5 307 c 0,22,23
 1028 352 1028 352 1072 454.5 c 0,24,25
 1116 557 1116 557 1145 739 c 0,0,1
186 467 m 0,26,27
 186 600 186 600 217 799 c 0,28,29
 262 1084 262 1084 350 1241.5 c 0,30,31
 438 1399 438 1399 582.5 1463.5 c 0,32,33
 727 1528 727 1528 956 1528 c 0,34,35
 1122 1528 1122 1528 1235 1487 c 0,36,37
 1348 1446 1348 1446 1413.5 1335.5 c 0,38,39
 1479 1225 1479 1225 1479 1026 c 0,40,41
 1479 889 1479 889 1446 698 c 0,42,43
 1401 409 1401 409 1313 255.5 c 0,44,45
 1225 102 1225 102 1083.5 45 c 0,46,47
 942 -12 942 -12 709 -12 c 0,48,49
 539 -12 539 -12 426 27 c 0,50,51
 313 66 313 66 249.5 171 c 0,52,53
 186 276 186 276 186 467 c 0,26,27
EndSplineSet
EndChar

StartChar: P
Encoding: 51 80 51
Width: 1249
VWidth: 1024
Flags: W
LayerCount: 2
Fore
SplineSet
829 745 m 0,0,1
 915 745 915 745 972.5 806.5 c 0,2,3
 1030 868 1030 868 1049 983 c 0,4,5
 1059 1044 1059 1044 1059 1081 c 0,6,7
 1059 1167 1059 1167 1023 1205 c 0,8,9
 987 1243 987 1243 913 1243 c 0,10,-1
 627 1243 l 0,11,-1
 549 745 l 0,12,-1
 829 745 l 0,0,1
367 1516 m 0,13,-1
 971 1516 l 0,14,15
 1155 1516 1155 1516 1261.5 1423.5 c 0,16,17
 1368 1331 1368 1331 1368 1110 c 0,18,19
 1368 1061 1368 1061 1350 950 c 0,20,21
 1311 696 1311 696 1179 584.5 c 0,22,23
 1047 473 1047 473 870 473 c 0,24,25
 776 473 776 473 677 483.5 c 0,26,27
 578 494 578 494 512 508 c 0,28,-1
 430 0 l 0,29,-1
 127 0 l 0,30,-1
 367 1516 l 0,13,-1
EndSplineSet
EndChar

StartChar: Q
Encoding: 52 81 52
Width: 1427
VWidth: 1024
Flags: W
LayerCount: 2
Fore
SplineSet
643 -80 m 0,0,-1
 852 -80 l 0,1,2
 860 -139 860 -139 898 -163.5 c 0,3,4
 936 -188 936 -188 1014 -188 c 0,5,6
 1088 -188 1088 -188 1178 -166 c 0,7,-1
 1143 -389 l 0,8,9
 1088 -401 1088 -401 1014 -401 c 0,10,11
 848 -401 848 -401 746.5 -322.5 c 0,12,13
 645 -244 645 -244 643 -80 c 0,0,-1
1145 739 m 0,14,15
 1174 911 1174 911 1174 1022 c 0,16,17
 1174 1116 1174 1116 1145 1166.5 c 0,18,19
 1116 1217 1116 1217 1061 1236 c 0,20,21
 1006 1255 1006 1255 911 1255 c 0,22,23
 790 1255 790 1255 717.5 1213 c 0,24,25
 645 1171 645 1171 599 1064.5 c 0,26,27
 553 958 553 958 520 758 c 0,28,29
 489 578 489 578 489 483 c 0,30,31
 489 354 489 354 549.5 308 c 0,32,33
 610 262 610 262 758 262 c 0,34,35
 879 262 879 262 953.5 307 c 0,36,37
 1028 352 1028 352 1072 454.5 c 0,38,39
 1116 557 1116 557 1145 739 c 0,14,15
186 467 m 0,40,41
 186 600 186 600 217 799 c 0,42,43
 262 1084 262 1084 350 1241.5 c 0,44,45
 438 1399 438 1399 582.5 1463.5 c 0,46,47
 727 1528 727 1528 956 1528 c 0,48,49
 1122 1528 1122 1528 1235 1487 c 0,50,51
 1348 1446 1348 1446 1413.5 1335.5 c 0,52,53
 1479 1225 1479 1225 1479 1026 c 0,54,55
 1479 889 1479 889 1446 698 c 0,56,57
 1401 409 1401 409 1313 255.5 c 0,58,59
 1225 102 1225 102 1083.5 45 c 0,60,61
 942 -12 942 -12 709 -12 c 0,62,63
 539 -12 539 -12 426 27 c 0,64,65
 313 66 313 66 249.5 171 c 0,66,67
 186 276 186 276 186 467 c 0,40,41
EndSplineSet
EndChar

StartChar: R
Encoding: 53 82 53
Width: 1296
VWidth: 1024
Flags: W
LayerCount: 2
Fore
SplineSet
813 805 m 0,0,1
 915 805 915 805 966.5 854 c 0,2,3
 1018 903 1018 903 1038 1028 c 0,4,5
 1044 1065 1044 1065 1044 1096 c 0,6,7
 1044 1243 1044 1243 885 1243 c 0,8,-1
 627 1243 l 0,9,-1
 557 805 l 0,10,-1
 813 805 l 0,0,1
367 1516 m 0,11,-1
 946 1516 l 0,12,13
 1356 1516 1356 1516 1356 1139 c 0,14,15
 1356 1082 1356 1082 1343 1008 c 0,16,17
 1314 818 1314 818 1232.5 734.5 c 0,18,19
 1151 651 1151 651 1044 610 c 0,20,-1
 1229 0 l 0,21,-1
 920 0 l 0,22,-1
 766 563 l 0,23,24
 592 563 592 563 520 565 c 0,25,-1
 430 0 l 0,26,-1
 127 0 l 0,27,-1
 367 1516 l 0,11,-1
EndSplineSet
EndChar

StartChar: S
Encoding: 54 83 54
Width: 1173
VWidth: 1024
Flags: W
LayerCount: 2
Fore
SplineSet
127 37 m 0,0,-1
 164 276 l 0,1,2
 361 260 361 260 621 260 c 0,3,4
 756 260 756 260 818.5 292 c 0,5,6
 881 324 881 324 895 410 c 0,7,-1
 903 463 l 0,8,9
 907 492 907 492 907 504 c 0,10,11
 907 561 907 561 866 585.5 c 0,12,13
 825 610 825 610 735 610 c 0,14,-1
 614 610 l 0,15,16
 444 610 444 610 348 697 c 0,17,18
 252 784 252 784 252 930 c 0,19,20
 252 971 252 971 258 1016 c 0,21,-1
 279 1139 l 0,22,23
 312 1348 312 1348 447 1438 c 0,24,25
 582 1528 582 1528 819 1528 c 0,26,27
 925 1528 925 1528 1050.5 1514.5 c 0,28,29
 1176 1501 1176 1501 1282 1477 c 0,30,-1
 1243 1237 l 0,31,32
 1053 1253 1053 1253 782 1253 c 0,33,34
 682 1253 682 1253 628.5 1220.5 c 0,35,36
 575 1188 575 1188 561 1104 c 0,37,-1
 553 1051 l 0,38,39
 549 1018 549 1018 549 1006 c 0,40,41
 549 949 549 949 581.5 923 c 0,42,43
 614 897 614 897 686 897 c 0,44,-1
 815 897 l 0,45,46
 1001 897 1001 897 1101.5 810 c 0,47,48
 1202 723 1202 723 1202 578 c 0,49,50
 1202 543 1202 543 1196 496 c 0,51,-1
 1176 354 l 0,52,53
 1145 161 1145 161 1018 74.5 c 0,54,55
 891 -12 891 -12 627 -12 c 0,56,57
 479 -12 479 -12 348 2 c 0,58,59
 217 16 217 16 127 37 c 0,0,-1
EndSplineSet
EndChar

StartChar: T
Encoding: 55 84 55
Width: 1247
VWidth: 1024
Flags: W
LayerCount: 2
Fore
SplineSet
657 1243 m 0,0,-1
 244 1243 l 0,1,-1
 287 1516 l 0,2,-1
 1421 1516 l 0,3,-1
 1378 1243 l 0,4,-1
 963 1243 l 0,5,-1
 766 0 l 0,6,-1
 463 0 l 0,7,-1
 657 1243 l 0,0,-1
EndSplineSet
EndChar

StartChar: U
Encoding: 56 85 56
Width: 1409
VWidth: 1024
Flags: W
LayerCount: 2
Fore
SplineSet
211 444 m 0,0,1
 211 550 211 550 238 700 c 0,2,-1
 367 1516 l 0,3,-1
 670 1516 l 0,4,-1
 535 655 l 0,5,6
 515 516 515 516 514 469 c 0,7,8
 514 360 514 360 569.5 310 c 0,9,10
 625 260 625 260 748 260 c 0,11,12
 848 260 848 260 910.5 292 c 0,13,14
 973 324 973 324 1016 409 c 0,15,16
 1059 494 1059 494 1083 655 c 0,17,-1
 1221 1516 l 0,18,-1
 1524 1516 l 0,19,-1
 1380 610 l 0,20,21
 1339 352 1339 352 1253 217 c 0,22,23
 1167 82 1167 82 1038 35 c 0,24,25
 909 -12 909 -12 707 -12 c 0,26,27
 457 -12 457 -12 334 96.5 c 0,28,29
 211 205 211 205 211 444 c 0,0,1
EndSplineSet
EndChar

StartChar: V
Encoding: 57 86 57
Width: 1427
VWidth: 1024
Flags: W
LayerCount: 2
Fore
SplineSet
287 1516 m 0,0,-1
 600 1516 l 0,1,-1
 764 330 l 0,2,-1
 1309 1516 l 0,3,-1
 1622 1516 l 0,4,-1
 901 0 l 0,5,-1
 520 0 l 0,6,-1
 287 1516 l 0,0,-1
EndSplineSet
EndChar

StartChar: W
Encoding: 58 87 58
Width: 2111
VWidth: 1024
Flags: W
LayerCount: 2
Fore
SplineSet
289 1516 m 0,0,-1
 602 1516 l 0,1,-1
 694 451 l 0,2,-1
 1128 1516 l 0,3,-1
 1407 1516 l 0,4,-1
 1495 451 l 0,5,-1
 1931 1516 l 0,6,-1
 2247 1516 l 0,7,-1
 1618 0 l 0,8,-1
 1309 0 l 0,9,-1
 1196 1067 l 0,10,-1
 739 0 l 0,11,-1
 430 0 l 0,12,-1
 289 1516 l 0,0,-1
EndSplineSet
EndChar

StartChar: X
Encoding: 59 88 59
Width: 1341
VWidth: 1024
Flags: W
LayerCount: 2
Fore
SplineSet
963 737 m 0,0,-1
 1313 0 l 0,1,-1
 983 0 l 0,2,-1
 748 510 l 0,3,-1
 377 0 l 0,4,-1
 39 0 l 0,5,-1
 627 768 l 0,6,-1
 270 1516 l 0,7,-1
 602 1516 l 0,8,-1
 844 993 l 0,9,-1
 1227 1516 l 0,10,-1
 1565 1516 l 0,11,-1
 963 737 l 0,0,-1
EndSplineSet
EndChar

StartChar: Y
Encoding: 60 89 60
Width: 1312
VWidth: 1024
Flags: W
LayerCount: 2
Fore
SplineSet
561 442 m 0,0,-1
 272 1516 l 0,1,-1
 602 1516 l 0,2,-1
 762 772 l 0,3,-1
 1178 1516 l 0,4,-1
 1522 1516 l 0,5,-1
 864 442 l 0,6,-1
 795 0 l 0,7,-1
 489 0 l 0,8,-1
 561 442 l 0,0,-1
EndSplineSet
EndChar

StartChar: Z
Encoding: 61 90 61
Width: 1163
VWidth: 1024
Flags: W
LayerCount: 2
Fore
SplineSet
111 258 m 0,0,-1
 922 1243 l 0,1,-1
 266 1243 l 0,2,-1
 309 1516 l 0,3,-1
 1313 1516 l 0,4,-1
 1272 1257 l 0,5,-1
 463 272 l 0,6,-1
 1137 272 l 0,7,-1
 1094 0 l 0,8,-1
 70 0 l 0,9,-1
 111 258 l 0,0,-1
EndSplineSet
EndChar

StartChar: bracketleft
Encoding: 62 91 62
Width: 694
VWidth: 1024
Flags: W
LayerCount: 2
Fore
SplineSet
123 -123 m 0,0,1
 123 -80 123 -80 135 -2 c 0,2,-1
 344 1327 l 0,3,4
 407 1724 407 1724 776 1724 c 0,5,-1
 938 1724 l 0,6,-1
 901 1481 l 0,7,-1
 827 1481 l 0,8,9
 673 1481 673 1481 643 1282 c 0,10,-1
 440 12 l 0,11,12
 438 0 438 0 436 -15.5 c 0,13,14
 434 -31 434 -31 434 -51 c 0,15,16
 434 -186 434 -186 563 -186 c 0,17,-1
 635 -186 l 0,18,-1
 598 -430 l 0,19,-1
 436 -430 l 0,20,21
 262 -430 262 -430 192.5 -344 c 0,22,23
 123 -258 123 -258 123 -123 c 0,0,1
EndSplineSet
EndChar

StartChar: backslash
Encoding: 63 92 63
Width: 946
VWidth: 1024
Flags: W
LayerCount: 2
Fore
SplineSet
281 1577 m 0,0,-1
 590 1577 l 0,1,-1
 893 -147 l 0,2,-1
 584 -147 l 0,3,-1
 281 1577 l 0,0,-1
EndSplineSet
EndChar

StartChar: bracketright
Encoding: 64 93 64
Width: 694
VWidth: 1024
Flags: W
LayerCount: 2
Fore
SplineSet
2 -186 m 0,0,-1
 74 -186 l 0,1,2
 230 -186 230 -186 260 12 c 0,3,-1
 463 1282 l 0,4,5
 467 1331 467 1331 467 1348 c 0,6,7
 467 1420 467 1420 434 1450.5 c 0,8,9
 401 1481 401 1481 338 1481 c 0,10,-1
 266 1481 l 0,11,-1
 303 1724 l 0,12,-1
 467 1724 l 0,13,14
 782 1724 782 1724 782 1438 c 0,15,16
 782 1389 782 1389 772 1327 c 0,17,-1
 561 -2 l 0,18,19
 493 -430 493 -430 127 -430 c 0,20,-1
 -37 -430 l 0,21,-1
 2 -186 l 0,0,-1
EndSplineSet
EndChar

StartChar: asciicircum
Encoding: 65 94 65
Width: 790
VWidth: 1024
Flags: W
LayerCount: 2
Fore
SplineSet
518 1368 m 0,0,-1
 725 1368 l 0,1,-1
 883 1087 l 0,2,-1
 707 1087 l 0,3,-1
 594 1227 l 0,4,-1
 428 1087 l 0,5,-1
 252 1087 l 0,6,-1
 518 1368 l 0,0,-1
EndSplineSet
EndChar

StartChar: underscore
Encoding: 66 95 66
Width: 1247
VWidth: 1024
Flags: W
LayerCount: 2
Fore
SplineSet
-25 -150 m 0,0,-1
 1223 -150 l 0,1,-1
 1186 -393 l 0,2,-1
 -61 -393 l 0,3,-1
 -25 -150 l 0,0,-1
EndSplineSet
EndChar

StartChar: grave
Encoding: 67 96 67
Width: 475
VWidth: 1024
Flags: W
LayerCount: 2
Fore
SplineSet
283 1579 m 0,0,-1
 526 1579 l 0,1,-1
 649 1292 l 0,2,-1
 471 1292 l 0,3,-1
 283 1579 l 0,0,-1
EndSplineSet
EndChar

StartChar: a
Encoding: 68 97 68
Width: 1169
VWidth: 1024
Flags: W
LayerCount: 2
Fore
SplineSet
805 307 m 0,0,-1
 889 836 l 0,1,2
 871 848 871 848 828.5 858 c 0,3,4
 786 868 786 868 737 868 c 0,5,6
 616 868 616 868 555 795.5 c 0,7,8
 494 723 494 723 469 573 c 0,9,10
 453 471 453 471 453 422 c 0,11,12
 453 334 453 334 487.5 282.5 c 0,13,14
 522 231 522 231 594 231 c 0,15,16
 653 231 653 231 702.5 251.5 c 0,17,18
 752 272 752 272 805 307 c 0,0,-1
147 367 m 0,19,20
 147 459 147 459 172 596 c 0,21,22
 215 860 215 860 353.5 986 c 0,23,24
 492 1112 492 1112 754 1112 c 0,25,26
 891 1112 891 1112 1016 1076 c 0,27,28
 1141 1040 1141 1040 1217 983 c 0,29,-1
 1061 0 l 0,30,-1
 793 0 l 0,31,-1
 776 111 l 0,32,33
 725 66 725 66 630 27 c 0,34,35
 535 -12 535 -12 446 -12 c 0,36,37
 315 -12 315 -12 231 83 c 0,38,39
 147 178 147 178 147 367 c 0,19,20
EndSplineSet
EndChar

StartChar: b
Encoding: 69 98 69
Width: 1189
VWidth: 1024
Flags: W
LayerCount: 2
Fore
SplineSet
899 553 m 0,0,1
 909 635 909 635 909 680 c 0,2,3
 909 868 909 868 768 868 c 0,4,5
 715 868 715 868 654.5 853 c 0,6,7
 594 838 594 838 543 813 c 0,8,-1
 463 297 l 0,9,10
 506 264 506 264 553 247.5 c 0,11,12
 600 231 600 231 668 231 c 0,13,14
 762 231 762 231 818 306 c 0,15,16
 874 381 874 381 899 553 c 0,0,1
432 104 m 0,17,-1
 379 0 l 0,18,-1
 111 0 l 0,19,-1
 358 1563 l 0,20,-1
 662 1563 l 0,21,-1
 578 1030 l 0,22,23
 648 1067 648 1067 728.5 1089.5 c 0,24,25
 809 1112 809 1112 868 1112 c 0,26,27
 1030 1112 1030 1112 1122 1011.5 c 0,28,29
 1214 911 1214 911 1214 727 c 0,30,31
 1214 659 1214 659 1188 473 c 0,32,33
 1151 242 1151 242 1040.5 115 c 0,34,35
 930 -12 930 -12 762 -12 c 0,36,37
 668 -12 668 -12 580 20.5 c 0,38,39
 492 53 492 53 432 104 c 0,17,-1
EndSplineSet
EndChar

StartChar: c
Encoding: 70 99 70
Width: 972
VWidth: 1024
Flags: W
LayerCount: 2
Fore
SplineSet
154 406 m 0,0,1
 154 474 154 474 174 600 c 0,2,3
 252 1112 252 1112 684 1112 c 0,4,5
 836 1112 836 1112 1061 1055 c 0,6,-1
 1032 879 l 0,7,-1
 754 879 l 0,8,9
 629 879 629 879 563.5 800 c 0,10,11
 498 721 498 721 469 549 c 0,12,13
 457 463 457 463 457 432 c 0,14,15
 457 317 457 317 505 267 c 0,16,17
 553 217 553 217 653 217 c 0,18,-1
 946 217 l 0,19,-1
 920 45 l 0,20,21
 756 -12 756 -12 555 -12 c 0,22,23
 358 -12 358 -12 256 83 c 0,24,25
 154 178 154 178 154 406 c 0,0,1
EndSplineSet
EndChar

StartChar: d
Encoding: 71 100 71
Width: 1177
VWidth: 1024
Flags: W
LayerCount: 2
Fore
SplineSet
811 307 m 0,0,-1
 895 836 l 0,1,2
 829 869 829 869 741 868 c 0,3,4
 628 868 628 868 565 800.5 c 0,5,6
 502 733 502 733 469 551 c 0,7,8
 455 469 455 469 455 420 c 0,9,10
 455 232 455 232 596 231 c 0,11,12
 655 231 655 231 706.5 251.5 c 0,13,14
 758 272 758 272 811 307 c 0,0,-1
154 369 m 0,15,16
 154 492 154 492 176 602 c 0,17,18
 209 774 209 774 266.5 883.5 c 0,19,20
 324 993 324 993 434.5 1052.5 c 0,21,22
 545 1112 545 1112 729 1112 c 0,23,24
 848 1112 848 1112 934 1083 c 0,25,-1
 1010 1563 l 0,26,-1
 1313 1563 l 0,27,-1
 1065 0 l 0,28,-1
 797 0 l 0,29,-1
 778 111 l 0,30,31
 715 56 715 56 631 22 c 0,32,33
 547 -12 547 -12 461 -12 c 0,34,35
 311 -12 311 -12 232.5 87 c 0,36,37
 154 186 154 186 154 369 c 0,15,16
EndSplineSet
EndChar

StartChar: e
Encoding: 72 101 72
Width: 1122
VWidth: 1024
Flags: W
LayerCount: 2
Fore
SplineSet
885 754 m 0,0,1
 885 883 885 883 729 883 c 0,2,3
 616 883 616 883 558 812 c 0,4,5
 500 741 500 741 477 596 c 0,6,7
 555 584 555 584 614 584 c 0,8,9
 758 584 758 584 821.5 624 c 0,10,11
 885 664 885 664 885 754 c 0,0,1
154 397 m 0,12,13
 154 477 154 477 174 608 c 0,14,15
 215 872 215 872 357.5 993 c 0,16,17
 500 1114 500 1114 750 1114 c 0,18,19
 1168 1114 1168 1114 1167 786 c 0,20,21
 1167 573 1167 573 1040 493.5 c 0,22,23
 913 414 913 414 692 414 c 0,24,25
 547 414 547 414 457 436 c 0,26,27
 453 387 453 387 453 362 c 0,28,29
 453 284 453 284 513 247.5 c 0,30,31
 573 211 573 211 709 211 c 0,32,-1
 1063 211 l 0,33,-1
 1034 33 l 0,34,35
 817 -12 817 -12 590 -12 c 0,36,37
 358 -12 358 -12 256 91.5 c 0,38,39
 154 195 154 195 154 397 c 0,12,13
EndSplineSet
EndChar

StartChar: f
Encoding: 73 102 73
Width: 798
VWidth: 1024
Flags: W
LayerCount: 2
Fore
SplineSet
322 856 m 0,0,-1
 168 856 l 0,1,-1
 199 1051 l 0,2,-1
 358 1100 l 0,3,-1
 387 1262 l 0,4,5
 414 1422 414 1422 507 1498.5 c 0,6,7
 600 1575 600 1575 784 1575 c 0,8,9
 921 1575 921 1575 1032 1556 c 0,10,-1
 997 1333 l 0,11,-1
 840 1333 l 0,12,13
 758 1333 758 1333 721 1297.5 c 0,14,15
 684 1262 684 1262 674 1178 c 0,16,-1
 664 1100 l 0,17,-1
 930 1100 l 0,18,-1
 891 856 l 0,19,-1
 625 856 l 0,20,-1
 489 0 l 0,21,-1
 186 0 l 0,22,-1
 322 856 l 0,0,-1
EndSplineSet
EndChar

StartChar: g
Encoding: 74 103 74
Width: 1179
VWidth: 1024
Flags: W
LayerCount: 2
Fore
SplineSet
807 307 m 0,0,-1
 895 854 l 0,1,2
 801 868 801 868 733 868 c 0,3,4
 629 868 629 868 563.5 800.5 c 0,5,6
 498 733 498 733 473 586 c 0,7,8
 455 477 455 477 455 416 c 0,9,10
 455 324 455 324 490.5 277.5 c 0,11,12
 526 231 526 231 592 231 c 0,13,14
 692 231 692 231 807 307 c 0,0,-1
74 -459 m 0,15,-1
 106 -250 l 0,16,-1
 453 -250 l 0,17,18
 582 -250 582 -250 657.5 -210 c 0,19,20
 733 -170 733 -170 748 -72 c 0,21,-1
 778 111 l 0,22,23
 715 60 715 60 618.5 24 c 0,24,25
 522 -12 522 -12 438 -12 c 0,26,27
 301 -12 301 -12 226.5 95.5 c 0,28,29
 152 203 152 203 152 365 c 0,30,31
 152 457 152 457 176 621 c 0,32,33
 219 887 219 887 368.5 999.5 c 0,34,35
 518 1112 518 1112 752 1112 c 0,36,37
 893 1112 893 1112 1017 1092.5 c 0,38,39
 1141 1073 1141 1073 1229 1044 c 0,40,-1
 1044 -119 l 0,41,42
 1013 -309 1013 -309 877 -396 c 0,43,44
 741 -483 741 -483 496 -483 c 0,45,46
 426 -483 426 -483 346 -477 c 0,47,-1
 74 -459 l 0,15,-1
EndSplineSet
EndChar

StartChar: h
Encoding: 75 104 75
Width: 1208
VWidth: 1024
Flags: W
LayerCount: 2
Fore
SplineSet
358 1563 m 0,0,-1
 662 1563 l 0,1,-1
 569 987 l 0,2,3
 645 1042 645 1042 741.5 1078 c 0,4,5
 838 1114 838 1114 952 1114 c 0,6,7
 1226 1114 1226 1114 1227 840 c 0,8,9
 1227 785 1227 785 1214 713 c 0,10,-1
 1102 0 l 0,11,-1
 799 0 l 0,12,-1
 905 676 l 0,13,14
 907 692 907 692 907 723 c 0,15,16
 907 842 907 842 782 842 c 0,17,18
 710 842 710 842 652 818.5 c 0,19,20
 594 795 594 795 532 750 c 0,21,-1
 414 0 l 0,22,-1
 111 0 l 0,23,-1
 358 1563 l 0,0,-1
EndSplineSet
EndChar

StartChar: i
Encoding: 76 105 76
Width: 520
VWidth: 1024
Flags: W
LayerCount: 2
Fore
SplineSet
283 1100 m 0,0,-1
 586 1100 l 0,1,-1
 414 0 l 0,2,-1
 109 0 l 0,3,-1
 283 1100 l 0,0,-1
311 1303 m 0,4,-1
 342 1503 l 0,5,6
 348 1546 348 1546 391 1546 c 0,7,-1
 625 1546 l 0,8,9
 662 1546 662 1546 657 1503 c 0,10,-1
 627 1303 l 0,11,12
 617 1262 617 1262 580 1262 c 0,13,-1
 346 1262 l 0,14,15
 328 1262 328 1262 317.5 1273 c 0,16,17
 307 1284 307 1284 311 1303 c 0,4,-1
EndSplineSet
EndChar

StartChar: j
Encoding: 77 106 77
Width: 520
VWidth: 1024
Flags: W
LayerCount: 2
Fore
SplineSet
283 1100 m 0,0,-1
 586 1100 l 0,1,-1
 412 -8 l 0,2,3
 379 -217 379 -217 256 -485 c 0,4,-1
 31 -485 l 0,5,-1
 283 1100 l 0,0,-1
311 1303 m 0,6,-1
 342 1503 l 0,7,8
 348 1546 348 1546 391 1546 c 0,9,-1
 625 1546 l 0,10,11
 662 1546 662 1546 657 1503 c 0,12,-1
 627 1303 l 0,13,14
 617 1262 617 1262 580 1262 c 0,15,-1
 346 1262 l 0,16,17
 328 1262 328 1262 317.5 1273 c 0,18,19
 307 1284 307 1284 311 1303 c 0,6,-1
EndSplineSet
EndChar

StartChar: k
Encoding: 78 107 78
Width: 1153
VWidth: 1024
Flags: W
LayerCount: 2
Fore
SplineSet
358 1563 m 0,0,-1
 662 1563 l 0,1,-1
 526 711 l 0,2,3
 827 762 827 762 915 1100 c 0,4,-1
 1221 1100 l 0,5,6
 1117 727 1117 727 868 594 c 0,7,-1
 1157 0 l 0,8,-1
 846 0 l 0,9,-1
 614 502 l 0,10,11
 544 484 544 484 489 483 c 0,12,-1
 414 0 l 0,13,-1
 111 0 l 0,14,-1
 358 1563 l 0,0,-1
EndSplineSet
EndChar

StartChar: l
Encoding: 79 108 79
Width: 659
VWidth: 1024
Flags: W
LayerCount: 2
Fore
SplineSet
162 246 m 0,0,1
 162 330 162 330 170 381 c 0,2,-1
 358 1563 l 0,3,-1
 662 1563 l 0,4,-1
 489 485 l 0,5,6
 473 362 473 362 473 336 c 0,7,8
 473 283 473 283 498.5 260.5 c 0,9,10
 524 238 524 238 580 231 c 0,11,-1
 657 219 l 0,12,-1
 623 0 l 0,13,-1
 492 0 l 0,14,15
 332 0 332 0 247 66.5 c 0,16,17
 162 133 162 133 162 246 c 0,0,1
EndSplineSet
EndChar

StartChar: m
Encoding: 80 109 80
Width: 1898
VWidth: 1024
Flags: W
LayerCount: 2
Fore
SplineSet
283 1100 m 0,0,-1
 535 1100 l 0,1,-1
 569 987 l 0,2,3
 651 1046 651 1046 743.5 1080 c 0,4,5
 836 1114 836 1114 952 1114 c 0,6,7
 1050 1114 1050 1114 1114 1075 c 0,8,9
 1178 1036 1178 1036 1217 952 c 0,10,11
 1305 1032 1305 1032 1412.5 1073 c 0,12,13
 1520 1114 1520 1114 1622 1114 c 0,14,15
 1913 1114 1913 1114 1913 850 c 0,16,17
 1913 776 1913 776 1898 686 c 0,18,-1
 1790 0 l 0,19,-1
 1487 0 l 0,20,-1
 1593 678 l 0,21,22
 1597 707 1597 707 1597 721 c 0,23,24
 1597 842 1597 842 1462 842 c 0,25,26
 1339 842 1339 842 1214 743 c 0,27,28
 1214 716 1214 716 1208 670 c 0,29,-1
 1102 0 l 0,30,-1
 799 0 l 0,31,-1
 905 672 l 0,32,33
 909 713 909 713 909 723 c 0,34,35
 909 842 909 842 776 842 c 0,36,37
 706 842 706 842 653 819.5 c 0,38,39
 600 797 600 797 532 750 c 0,40,-1
 414 0 l 0,41,-1
 111 0 l 0,42,-1
 283 1100 l 0,0,-1
EndSplineSet
EndChar

StartChar: n
Encoding: 81 110 81
Width: 1208
VWidth: 1024
Flags: W
LayerCount: 2
Fore
SplineSet
283 1100 m 0,0,-1
 535 1100 l 0,1,-1
 569 987 l 0,2,3
 739 1114 739 1114 948 1114 c 0,4,5
 1081 1114 1081 1114 1154 1045.5 c 0,6,7
 1227 977 1227 977 1227 866 c 0,8,9
 1227 788 1227 788 1202 639 c 0,10,-1
 1102 0 l 0,11,-1
 799 0 l 0,12,-1
 897 629 l 0,13,14
 909 715 909 715 909 725 c 0,15,16
 909 842 909 842 776 842 c 0,17,18
 708 842 708 842 650 818.5 c 0,19,20
 592 795 592 795 532 750 c 0,21,-1
 414 0 l 0,22,-1
 111 0 l 0,23,-1
 283 1100 l 0,0,-1
EndSplineSet
EndChar

StartChar: o
Encoding: 82 111 82
Width: 1175
VWidth: 1024
Flags: W
LayerCount: 2
Fore
SplineSet
872 535 m 0,0,1
 890 674 890 674 891 725 c 0,2,3
 891 807 891 807 853 840.5 c 0,4,5
 815 874 815 874 723 874 c 0,6,7
 639 874 639 874 592 846.5 c 0,8,9
 545 819 545 819 516 747.5 c 0,10,11
 487 676 487 676 467 535 c 0,12,13
 455 447 455 447 455 385 c 0,14,15
 455 297 455 297 495 264 c 0,16,17
 535 231 535 231 618 231 c 0,18,19
 700 231 700 231 747.5 256 c 0,20,21
 795 281 795 281 823.5 344.5 c 0,22,23
 852 408 852 408 872 535 c 0,0,1
154 371 m 0,24,25
 154 475 154 475 170 580 c 0,26,27
 205 797 205 797 274.5 911.5 c 0,28,29
 344 1026 344 1026 458.5 1069 c 0,30,31
 573 1112 573 1112 762 1112 c 0,32,33
 934 1112 934 1112 1027 1069 c 0,34,35
 1120 1026 1120 1026 1157 940 c 0,36,37
 1194 854 1194 854 1194 711 c 0,38,39
 1194 611 1194 611 1176 489 c 0,40,41
 1145 290 1145 290 1074.5 182 c 0,42,43
 1004 74 1004 74 888 31 c 0,44,45
 772 -12 772 -12 586 -12 c 0,46,47
 154 -12 154 -12 154 371 c 0,24,25
EndSplineSet
EndChar

StartChar: p
Encoding: 83 112 83
Width: 1171
VWidth: 1024
Flags: W
LayerCount: 2
Fore
SplineSet
883 557 m 0,0,1
 893 645 893 645 893 668 c 0,2,3
 893 770 893 770 858 819 c 0,4,5
 823 868 823 868 745 868 c 0,6,-1
 549 866 l 0,7,-1
 455 274 l 0,8,9
 498 258 498 258 534.5 252 c 0,10,11
 571 246 571 246 625 246 c 0,12,13
 735 246 735 246 794.5 318.5 c 0,14,15
 854 391 854 391 883 557 c 0,0,1
276 1057 m 0,16,17
 432 1084 432 1084 560 1098 c 0,18,19
 688 1112 688 1112 829 1112 c 0,20,21
 1022 1112 1022 1112 1107 1016 c 0,22,23
 1192 920 1192 920 1192 719 c 0,24,25
 1192 627 1192 627 1171 500 c 0,26,27
 1130 244 1130 244 997 116 c 0,28,29
 864 -12 864 -12 659 -12 c 0,30,31
 501 -12 501 -12 418 31 c 0,32,-1
 336 -485 l 0,33,-1
 33 -485 l 0,34,-1
 276 1057 l 0,16,17
EndSplineSet
EndChar

StartChar: q
Encoding: 84 113 84
Width: 1167
VWidth: 1024
Flags: W
LayerCount: 2
Fore
SplineSet
805 307 m 0,0,-1
 893 854 l 0,1,2
 793 868 793 868 737 868 c 0,3,4
 612 868 612 868 554 794.5 c 0,5,6
 496 721 496 721 467 563 c 0,7,8
 451 465 451 465 451 418 c 0,9,10
 451 328 451 328 487.5 279.5 c 0,11,12
 524 231 524 231 588 231 c 0,13,14
 688 231 688 231 805 307 c 0,0,-1
774 111 m 0,15,16
 708 58 708 58 617 23 c 0,17,18
 526 -12 526 -12 440 -12 c 0,19,20
 295 -12 295 -12 223.5 84 c 0,21,22
 152 180 152 180 152 360 c 0,23,24
 152 448 152 448 172 586 c 0,25,26
 217 873 217 873 360.5 992.5 c 0,27,28
 504 1112 504 1112 741 1112 c 0,29,30
 880 1112 880 1112 1014.5 1092.5 c 0,31,32
 1149 1073 1149 1073 1227 1044 c 0,33,-1
 983 -485 l 0,34,-1
 680 -485 l 0,35,-1
 774 111 l 0,15,16
EndSplineSet
EndChar

StartChar: r
Encoding: 85 114 85
Width: 858
VWidth: 1024
Flags: W
LayerCount: 2
Fore
SplineSet
285 1100 m 0,0,-1
 555 1100 l 0,1,-1
 567 958 l 0,2,3
 635 1030 635 1030 707.5 1071 c 0,4,5
 780 1112 780 1112 868 1112 c 0,6,7
 938 1112 938 1112 979 1100 c 0,8,-1
 932 797 l 0,9,10
 854 801 854 801 805 801 c 0,11,12
 721 801 721 801 650.5 776.5 c 0,13,14
 580 752 580 752 528 713 c 0,15,-1
 416 0 l 0,16,-1
 111 0 l 0,17,-1
 285 1100 l 0,0,-1
EndSplineSet
EndChar

StartChar: s
Encoding: 86 115 86
Width: 1048
VWidth: 1024
Flags: W
LayerCount: 2
Fore
SplineSet
106 37 m 0,0,-1
 135 215 l 0,1,-1
 614 215 l 0,2,3
 729 215 729 215 743 295 c 0,4,-1
 750 340 l 0,5,-1
 752 365 l 0,6,7
 752 426 752 426 666 426 c 0,8,-1
 502 426 l 0,9,10
 359 426 359 426 273.5 481.5 c 0,11,12
 188 537 188 537 188 649 c 0,13,14
 188 698 188 698 197 741 c 0,15,-1
 209 819 l 0,16,17
 234 958 234 958 337 1035 c 0,18,19
 440 1112 440 1112 662 1112 c 0,20,21
 758 1112 758 1112 879.5 1097.5 c 0,22,23
 1001 1083 1001 1083 1081 1061 c 0,24,-1
 1051 883 l 0,25,-1
 602 883 l 0,26,27
 543 883 543 883 516 863.5 c 0,28,29
 489 844 489 844 479 799 c 0,30,-1
 473 768 l 0,31,32
 467 741 467 741 467 725 c 0,33,34
 467 696 467 696 488.5 683 c 0,35,36
 510 670 510 670 561 670 c 0,37,-1
 745 670 l 0,38,39
 876 670 876 670 955 611.5 c 0,40,41
 1034 553 1034 553 1034 451 c 0,42,43
 1034 410 1034 410 1028 362 c 0,44,-1
 1014 266 l 0,45,46
 991 119 991 119 872.5 53.5 c 0,47,48
 754 -12 754 -12 545 -12 c 0,49,50
 270 -12 270 -12 106 37 c 0,0,-1
EndSplineSet
EndChar

StartChar: t
Encoding: 87 116 87
Width: 835
VWidth: 1024
Flags: W
LayerCount: 2
Fore
SplineSet
244 250 m 0,0,1
 244 340 244 340 262 440 c 0,2,-1
 338 856 l 0,3,-1
 168 856 l 0,4,-1
 199 1051 l 0,5,-1
 387 1100 l 0,6,-1
 477 1407 l 0,7,-1
 717 1407 l 0,8,-1
 668 1100 l 0,9,-1
 926 1100 l 0,10,-1
 889 856 l 0,11,-1
 629 856 l 0,12,-1
 563 438 l 0,13,14
 561 430 561 430 555 394 c 0,15,16
 549 358 549 358 549 334 c 0,17,18
 549 287 549 287 573.5 264.5 c 0,19,20
 598 242 598 242 653 238 c 0,21,-1
 778 225 l 0,22,-1
 741 0 l 0,23,-1
 575 0 l 0,24,25
 410 0 410 0 327 61.5 c 0,26,27
 244 123 244 123 244 250 c 0,0,1
EndSplineSet
EndChar

StartChar: u
Encoding: 88 117 88
Width: 1208
VWidth: 1024
Flags: W
LayerCount: 2
Fore
SplineSet
156 246 m 0,0,1
 156 314 156 314 166 379 c 0,2,-1
 281 1100 l 0,3,-1
 584 1100 l 0,4,-1
 477 416 l 0,5,6
 473 387 473 387 473 371 c 0,7,8
 473 260 473 260 602 260 c 0,9,10
 672 260 672 260 730 282.5 c 0,11,12
 788 305 788 305 850 350 c 0,13,-1
 969 1100 l 0,14,-1
 1272 1100 l 0,15,-1
 1100 0 l 0,16,-1
 829 0 l 0,17,-1
 813 113 l 0,18,19
 717 47 717 47 633 17.5 c 0,20,21
 549 -12 549 -12 428 -12 c 0,22,23
 289 -12 289 -12 222.5 55.5 c 0,24,25
 156 123 156 123 156 246 c 0,0,1
EndSplineSet
EndChar

StartChar: v
Encoding: 89 118 89
Width: 1124
VWidth: 1024
Flags: W
LayerCount: 2
Fore
SplineSet
170 1100 m 0,0,-1
 481 1100 l 0,1,-1
 590 285 l 0,2,-1
 834 801 l 0,3,4
 871 885 871 885 891 956.5 c 0,5,6
 911 1028 911 1028 922 1116 c 0,7,-1
 1200 1116 l 0,8,9
 1198 1010 1198 1010 1161 903.5 c 0,10,11
 1124 797 1124 797 1061 672 c 0,12,-1
 715 0 l 0,13,-1
 365 0 l 0,14,-1
 170 1100 l 0,0,-1
EndSplineSet
EndChar

StartChar: w
Encoding: 90 119 90
Width: 1740
VWidth: 1024
Flags: W
LayerCount: 2
Fore
SplineSet
170 1100 m 0,0,-1
 481 1100 l 0,1,-1
 575 285 l 0,2,-1
 905 1100 l 0,3,-1
 1104 1100 l 0,4,-1
 1247 285 l 0,5,-1
 1450 836 l 0,6,7
 1509 1018 1509 1018 1520 1116 c 0,8,-1
 1815 1116 l 0,9,10
 1815 1026 1815 1026 1784 917.5 c 0,11,12
 1753 809 1753 809 1712 723 c 0,13,-1
 1372 0 l 0,14,-1
 1051 0 l 0,15,-1
 934 606 l 0,16,-1
 668 0 l 0,17,-1
 346 0 l 0,18,-1
 170 1100 l 0,0,-1
EndSplineSet
EndChar

StartChar: x
Encoding: 91 120 91
Width: 1138
VWidth: 1024
Flags: W
LayerCount: 2
Fore
SplineSet
819 524 m 0,0,-1
 1124 0 l 0,1,-1
 813 0 l 0,2,-1
 614 340 l 0,3,-1
 328 0 l 0,4,-1
 16 0 l 0,5,-1
 487 559 l 0,6,-1
 172 1100 l 0,7,-1
 483 1100 l 0,8,-1
 688 748 l 0,9,-1
 954 1100 l 0,10,-1
 1280 1100 l 0,11,-1
 819 524 l 0,0,-1
EndSplineSet
EndChar

StartChar: y
Encoding: 92 121 92
Width: 1177
VWidth: 1024
Flags: W
LayerCount: 2
Fore
SplineSet
197 -270 m 0,0,1
 332 -241 332 -241 422 -180 c 0,2,3
 512 -119 512 -119 569 0 c 0,4,5
 426 14 426 14 361.5 82 c 0,6,7
 297 150 297 150 281 295 c 0,8,-1
 186 1100 l 0,9,-1
 500 1100 l 0,10,-1
 549 358 l 0,11,12
 559 252 559 252 664 248 c 0,13,-1
 905 840 l 0,14,15
 966 1002 966 1002 971 1116 c 0,16,-1
 1255 1116 l 0,17,18
 1255 889 1255 889 1133 631 c 0,19,-1
 842 16 l 0,20,21
 721 -244 721 -244 568.5 -355.5 c 0,22,23
 416 -467 416 -467 197 -485 c 0,24,-1
 197 -270 l 0,0,1
EndSplineSet
EndChar

StartChar: z
Encoding: 93 122 93
Width: 1026
VWidth: 1024
Flags: W
LayerCount: 2
Fore
SplineSet
117 219 m 0,0,-1
 727 856 l 0,1,-1
 193 856 l 0,2,-1
 231 1100 l 0,3,-1
 1114 1100 l 0,4,-1
 1081 881 l 0,5,-1
 471 244 l 0,6,-1
 991 244 l 0,7,8
 987 205 987 205 972.5 121 c 0,9,10
 958 37 958 37 952 0 c 0,11,-1
 82 0 l 0,12,-1
 117 219 l 0,0,-1
EndSplineSet
EndChar

StartChar: braceleft
Encoding: 94 123 94
Width: 649
VWidth: 1024
Flags: W
LayerCount: 2
Fore
SplineSet
182 -172 m 0,0,1
 182 -92 182 -92 240 229 c 0,2,3
 273 415 273 415 272 444 c 0,4,5
 272 497 272 497 244.5 520 c 0,6,7
 217 543 217 543 150 543 c 0,8,-1
 195 823 l 0,9,10
 336 835 336 835 352 942 c 0,11,-1
 416 1343 l 0,12,13
 439 1486 439 1486 497 1569.5 c 0,14,15
 555 1653 555 1653 658.5 1688.5 c 0,16,17
 762 1724 762 1724 926 1724 c 0,18,-1
 885 1481 l 0,19,20
 801 1481 801 1481 764 1440 c 0,21,22
 727 1399 727 1399 709 1280 c 0,23,-1
 649 891 l 0,24,25
 618 701 618 701 414 684 c 0,26,27
 498 668 498 668 542 625 c 0,28,29
 586 582 586 582 586 514 c 0,30,31
 586 477 586 477 541 207 c 0,32,33
 498 -43 498 -43 498 -86 c 0,34,35
 498 -147 498 -147 526.5 -175 c 0,36,37
 555 -203 555 -203 618 -203 c 0,38,-1
 584 -430 l 0,39,40
 369 -430 369 -430 275.5 -367.5 c 0,41,42
 182 -305 182 -305 182 -172 c 0,0,1
EndSplineSet
EndChar

StartChar: bar
Encoding: 95 124 95
Width: 514
VWidth: 1024
Flags: W
LayerCount: 2
Fore
SplineSet
385 1577 m 0,0,-1
 629 1577 l 0,1,-1
 356 -147 l 0,2,-1
 113 -147 l 0,3,-1
 385 1577 l 0,0,-1
EndSplineSet
EndChar

StartChar: braceright
Encoding: 96 125 96
Width: 649
VWidth: 1024
Flags: W
LayerCount: 2
Fore
SplineSet
0 -203 m 0,0,1
 84 -203 84 -203 121 -160 c 0,2,3
 158 -117 158 -117 172 -27 c 0,4,-1
 248 442 l 0,5,6
 262 524 262 524 321.5 575.5 c 0,7,8
 381 627 381 627 479 643 c 0,9,10
 307 657 307 657 307 803 c 0,11,12
 307 856 307 856 352 1126 c 0,13,14
 385 1347 385 1347 385 1364 c 0,15,16
 385 1430 385 1430 356.5 1455.5 c 0,17,18
 328 1481 328 1481 266 1481 c 0,19,-1
 305 1724 l 0,20,21
 698 1724 698 1724 698 1432 c 0,22,23
 698 1414 698 1414 664 1192 c 0,24,25
 621 903 621 903 621 881 c 0,26,27
 621 795 621 795 743 782 c 0,28,-1
 698 502 l 0,29,30
 563 502 563 502 543 383 c 0,31,-1
 471 -78 l 0,32,33
 451 -211 451 -211 397.5 -286.5 c 0,34,35
 344 -362 344 -362 240.5 -396 c 0,36,37
 137 -430 137 -430 -37 -430 c 0,38,-1
 0 -203 l 0,0,1
EndSplineSet
EndChar

StartChar: asciitilde
Encoding: 97 126 97
Width: 866
VWidth: 1024
Flags: W
LayerCount: 2
Fore
SplineSet
610 1143 m 0,0,1
 577 1166 577 1166 553.5 1176 c 0,2,3
 530 1186 530 1186 506 1186 c 0,4,5
 451 1186 451 1186 405.5 1166.5 c 0,6,7
 360 1147 360 1147 297 1106 c 0,8,-1
 272 1210 l 0,9,10
 407 1353 407 1353 537 1354 c 0,11,12
 566 1354 566 1354 590 1342.5 c 0,13,14
 614 1331 614 1331 659 1305 c 0,15,16
 692 1285 692 1285 714.5 1273.5 c 0,17,18
 737 1262 737 1262 758 1262 c 0,19,20
 854 1262 854 1262 958 1350 c 0,21,-1
 983 1235 l 0,22,23
 850 1094 850 1094 733 1094 c 0,24,25
 702 1094 702 1094 675.5 1106 c 0,26,27
 649 1118 649 1118 610 1143 c 0,0,1
EndSplineSet
EndChar

StartChar: inherent
Encoding: 98 -1 98
Width: 352
Flags: W
LayerCount: 2
Fore
SplineSet
696 1505 m 2,0,1
 671 1386 671 1386 543.5 1296 c 128,-1,2
 416 1206 416 1206 240 1206 c 1,3,-1
 285 1423 l 1,4,5
 342 1423 342 1423 375 1452 c 1,6,7
 412 1475 412 1475 420 1505 c 1,8,-1
 449 1651 l 1,9,-1
 725 1651 l 1,10,-1
 696 1505 l 2,0,1
EndSplineSet
EndChar

StartChar: makewide
Encoding: 99 -1 99
Width: 710
Flags: W
LayerCount: 2
Fore
SplineSet
999 283 m 2,0,1
 974 168 974 168 882.5 84 c 128,-1,2
 791 0 791 0 686 0 c 2,3,-1
 381 2 l 2,4,5
 328 2 328 2 284 14.5 c 128,-1,6
 240 27 240 27 192.5 55.5 c 128,-1,7
 145 84 145 84 112.5 121 c 128,-1,8
 80 158 80 158 43 219 c 1,9,-1
 109 535 l 1,10,-1
 152 543 l 1,11,12
 189 404 189 404 285 315 c 1,13,14
 371 231 371 231 473 231 c 2,15,-1
 664 231 l 2,16,17
 687 231 687 231 700 254 c 0,18,19
 729 293 729 293 733 317 c 2,20,-1
 879 1010 l 2,21,22
 883 1033 883 1033 883 1042 c 0,23,24
 883 1079 883 1079 858 1118 c 1,25,26
 821 1157 821 1157 756 1157 c 2,27,-1
 532 1157 l 1,28,-1
 580 1389 l 1,29,-1
 1085 1389 l 1,30,-1
 1098 1194 l 1,31,32
 1159 1126 1159 1126 1159 1055 c 0,33,34
 1159 1041 1159 1041 1155 1018 c 2,35,-1
 999 283 l 2,0,1
EndSplineSet
EndChar

StartChar: shortrr
Encoding: 100 -1 100
Width: 1681
Flags: W
LayerCount: 2
Fore
SplineSet
1974 1165 m 1,0,-1
 973 1165 l 2,1,2
 930 1165 930 1165 907.5 1151 c 128,-1,3
 885 1137 885 1137 877 1108 c 2,4,-1
 840 948 l 1,5,6
 840 909 840 909 866.5 883.5 c 128,-1,7
 893 858 893 858 938 858 c 2,8,-1
 1325 858 l 1,9,-1
 1274 627 l 1,10,-1
 889 627 l 2,11,12
 842 627 842 627 805 604 c 0,13,14
 787 594 787 594 777.5 578.5 c 128,-1,15
 768 563 768 563 764 545 c 2,16,-1
 719 344 l 1,17,18
 715 299 715 299 731 276 c 1,19,20
 745 243 745 243 768 242 c 1,21,-1
 965 242 l 1,22,-1
 918 10 l 1,23,-1
 629 10 l 2,24,25
 529 10 529 10 467 82 c 0,26,27
 422 135 422 135 422 197 c 0,28,29
 422 211 422 211 426 244 c 1,30,-1
 492 559 l 2,31,32
 508 639 508 639 575 698 c 1,33,34
 583 702 583 702 620 723.5 c 128,-1,35
 657 745 657 745 672 750 c 1,36,-1
 598 801 l 1,37,38
 567 846 567 846 567 897 c 0,39,40
 567 922 567 922 569 932 c 2,41,-1
 621 1176 l 2,42,43
 644 1280 644 1280 737 1333 c 1,44,45
 819 1392 819 1392 942 1393 c 2,46,-1
 2032 1393 l 1,47,-1
 1974 1165 l 1,0,-1
EndSplineSet
EndChar

StartChar: anusvara
Encoding: 101 3202 101
Width: 1609
Flags: W
LayerCount: 2
Fore
SplineSet
1702 319 m 2,0,1
 1673 188 1673 188 1569 98 c 1,2,3
 1467 2 1467 2 1348 2 c 2,4,-1
 705 2 l 2,5,6
 568 2 568 2 487 106 c 1,7,8
 428 174 428 174 428 272 c 0,9,10
 428 303 428 303 436 342 c 2,11,-1
 594 1092 l 1,12,13
 625 1223 625 1223 741 1305 c 1,14,15
 798 1350 798 1350 863 1369.5 c 128,-1,16
 928 1389 928 1389 1001 1389 c 2,17,-1
 1587 1389 l 2,18,19
 1726 1389 1726 1389 1808 1294 c 0,20,21
 1867 1226 1867 1226 1868 1133 c 0,22,23
 1868 1100 1868 1100 1860 1067 c 2,24,-1
 1702 319 l 2,0,1
1434 360 m 1,25,-1
 1579 1051 l 2,26,27
 1581 1061 1581 1061 1581 1079 c 0,28,29
 1581 1106 1581 1106 1559.5 1131.5 c 128,-1,30
 1538 1157 1538 1157 1495 1157 c 2,31,-1
 1026 1157 l 2,32,33
 967 1157 967 1157 913 1128 c 1,34,35
 870 1099 870 1099 862 1063 c 2,36,-1
 715 356 l 2,37,38
 705 305 705 305 742.5 265 c 128,-1,39
 780 225 780 225 840 225 c 2,40,-1
 1298 225 l 2,41,42
 1341 225 1341 225 1382.5 263 c 128,-1,43
 1424 301 1424 301 1434 360 c 1,25,-1
EndSplineSet
EndChar

StartChar: u0C83
Encoding: 102 3203 102
Width: 1040
Flags: W
LayerCount: 2
Fore
SplineSet
1321 944 m 2,0,1
 1305 860 1305 860 1223 799 c 1,2,3
 1151 738 1151 738 1051 737 c 2,4,-1
 725 737 l 2,5,6
 616 737 616 737 565 805 c 1,7,8
 520 852 520 852 520 918 c 0,9,10
 520 945 520 945 522 961 c 2,11,-1
 567 1176 l 2,12,13
 585 1272 585 1272 673.5 1333.5 c 128,-1,14
 762 1395 762 1395 864 1395 c 2,15,-1
 1159 1395 l 2,16,17
 1233 1395 1233 1395 1276 1364 c 1,18,19
 1301 1354 1301 1354 1319 1332.5 c 128,-1,20
 1337 1311 1337 1311 1352.5 1277 c 128,-1,21
 1368 1243 1368 1243 1368 1210 c 0,22,23
 1368 1194 1368 1194 1364 1165 c 2,24,-1
 1321 944 l 2,0,1
1169 240 m 2,25,26
 1151 144 1151 144 1074 74 c 128,-1,27
 997 4 997 4 911 4 c 2,28,-1
 567 6 l 2,29,30
 471 6 471 6 406 72 c 1,31,32
 361 125 361 125 360 184 c 0,33,34
 360 194 360 194 365 227 c 1,35,-1
 410 442 l 2,36,37
 428 538 428 538 518 601 c 128,-1,38
 608 664 608 664 709 664 c 2,39,-1
 1004 664 l 2,40,41
 1115 664 1115 664 1165 592 c 1,42,43
 1210 545 1210 545 1210 471 c 0,44,45
 1210 459 1210 459 1206 420 c 1,46,-1
 1169 240 l 2,25,26
1053 1001 m 2,47,-1
 1077 1124 l 2,48,49
 1079 1134 1079 1134 1075 1143.5 c 128,-1,50
 1071 1153 1071 1153 1069 1158 c 128,-1,51
 1067 1163 1067 1163 1042 1163 c 2,52,-1
 909 1163 l 2,53,54
 876 1163 876 1163 857 1152 c 128,-1,55
 838 1141 838 1141 834 1122 c 2,56,-1
 809 1018 l 1,57,58
 811 995 811 995 823.5 981 c 128,-1,59
 836 967 836 967 858 967 c 2,60,-1
 1004 967 l 1,61,62
 1020 971 1020 971 1032 976 c 128,-1,63
 1044 981 1044 981 1048.5 986 c 128,-1,64
 1053 991 1053 991 1053 1001 c 2,47,-1
901 264 m 1,65,-1
 926 389 l 2,66,67
 930 412 930 412 922 420 c 2,68,-1
 913 428 l 1,69,-1
 739 428 l 1,70,-1
 696 420 l 1,71,72
 680 410 680 410 678 401 c 2,73,-1
 649 285 l 1,74,-1
 657 246 l 1,75,76
 661 238 661 238 666.5 235.5 c 128,-1,77
 672 233 672 233 674 233 c 2,78,-1
 850 233 l 2,79,80
 864 233 864 233 881 242 c 1,81,-1
 901 264 l 1,65,-1
EndSplineSet
EndChar

StartChar: avowel
Encoding: 103 3205 103
Width: 2091
Flags: W
LayerCount: 2
Fore
SplineSet
2245 295 m 2,0,1
 2220 172 2220 172 2105 90 c 1,2,3
 2001 2 2001 2 1868 2 c 2,4,-1
 733 4 l 2,5,6
 588 4 588 4 506 90 c 1,7,8
 473 121 473 121 458.5 157 c 128,-1,9
 444 193 444 193 444 238 c 0,10,11
 444 254 444 254 449 293 c 1,12,-1
 618 1106 l 2,13,14
 643 1231 643 1231 751.5 1312 c 128,-1,15
 860 1393 860 1393 989 1393 c 2,16,-1
 1393 1393 l 1,17,-1
 1290 918 l 1,18,-1
 1016 918 l 1,19,-1
 1069 1161 l 1,20,-1
 997 1161 l 2,21,22
 958 1161 958 1161 928 1128 c 0,23,24
 885 1081 885 1081 874 1026 c 2,25,-1
 735 365 l 2,26,27
 727 326 727 326 758 274 c 1,28,29
 805 235 805 235 858 236 c 2,30,-1
 1808 236 l 2,31,32
 1833 236 1833 236 1847.5 240 c 128,-1,33
 1862 244 1862 244 1880 253 c 128,-1,34
 1898 262 1898 262 1916.5 281.5 c 128,-1,35
 1935 301 1935 301 1952 319 c 0,36,37
 1981 356 1981 356 1989 401 c 2,38,-1
 2132 1077 l 2,39,40
 2140 1110 2140 1110 2118 1141 c 1,41,42
 2100 1159 2100 1159 2056 1159 c 2,43,-1
 1991 1159 l 1,44,-1
 1962 1036 l 2,45,46
 1960 1026 1960 1026 1960 1008 c 0,47,48
 1960 926 1960 926 2068 844 c 1,49,-1
 2021 625 l 1,50,-1
 1096 625 l 1,51,-1
 1147 856 l 1,52,-1
 1737 856 l 1,53,54
 1680 930 1680 930 1679 991 c 0,55,56
 1679 1014 1679 1014 1681 1022 c 2,57,-1
 1761 1393 l 1,58,-1
 2130 1393 l 2,59,60
 2220 1393 2220 1393 2293.5 1356 c 128,-1,61
 2367 1319 2367 1319 2398 1260 c 1,62,63
 2421 1223 2421 1223 2421 1171 c 0,64,65
 2421 1155 2421 1155 2417 1122 c 1,66,-1
 2245 295 l 2,0,1
EndSplineSet
EndChar

StartChar: aavowel
Encoding: 104 3206 104
Width: 2238
Flags: W
LayerCount: 2
Fore
SplineSet
2546 993 m 1,0,1
 2521 868 2521 868 2421 793 c 1,2,3
 2364 746 2364 746 2312.5 724 c 128,-1,4
 2261 702 2261 702 2200 702 c 2,5,-1
 2161 702 l 1,6,7
 2206 634 2206 634 2202 592 c 1,8,-1
 2126 231 l 2,9,10
 2108 135 2108 135 2005 68 c 0,11,12
 1958 37 1958 37 1902.5 20.5 c 128,-1,13
 1847 4 1847 4 1776 4 c 2,14,-1
 690 12 l 2,15,16
 567 12 567 12 502 98 c 1,17,18
 451 153 451 153 451 233 c 0,19,20
 451 266 451 266 459 299 c 2,21,-1
 631 1112 l 2,22,23
 645 1171 645 1171 681 1222.5 c 128,-1,24
 717 1274 717 1274 782 1319 c 1,25,26
 913 1399 913 1399 1065 1399 c 2,27,-1
 1380 1399 l 1,28,-1
 1278 924 l 1,29,-1
 1004 924 l 1,30,-1
 1057 1167 l 1,31,-1
 1028 1167 l 2,32,33
 981 1167 981 1167 945 1138.5 c 128,-1,34
 909 1110 909 1110 901 1073 c 2,35,-1
 754 367 l 2,36,37
 750 338 750 338 750 330 c 0,38,39
 750 305 750 305 766 274 c 1,40,41
 799 235 799 235 846 236 c 2,42,-1
 1729 236 l 2,43,44
 1774 236 1774 236 1819 274 c 0,45,46
 1844 297 1844 297 1859 318.5 c 128,-1,47
 1874 340 1874 340 1878 369 c 2,48,-1
 1925 596 l 2,49,50
 1933 641 1933 641 1886 707 c 1,51,-1
 1274 707 l 1,52,-1
 1325 938 l 1,53,-1
 1831 938 l 1,54,55
 1802 995 1802 995 1810 1020 c 1,56,-1
 1843 1182 l 2,57,58
 1859 1272 1859 1272 1954.5 1330.5 c 128,-1,59
 2050 1389 2050 1389 2167 1389 c 2,60,-1
 2355 1389 l 2,61,62
 2474 1389 2474 1389 2528.5 1324.5 c 128,-1,63
 2583 1260 2583 1260 2583 1192 c 0,64,65
 2583 1178 2583 1178 2578 1145 c 1,66,-1
 2546 993 l 1,0,1
2269 1008 m 2,67,-1
 2288 1102 l 2,68,69
 2290 1110 2290 1110 2290 1119 c 128,-1,70
 2290 1128 2290 1128 2290 1130 c 0,71,72
 2290 1159 2290 1159 2265 1159 c 2,73,-1
 2177 1159 l 2,74,75
 2144 1159 2144 1159 2124.5 1140.5 c 128,-1,76
 2105 1122 2105 1122 2103 1100 c 1,77,-1
 2089 1034 l 2,78,79
 2079 987 2079 987 2111 934 c 1,80,-1
 2200 934 l 2,81,82
 2223 934 2223 934 2244 956.5 c 128,-1,83
 2265 979 2265 979 2269 1008 c 2,67,-1
EndSplineSet
EndChar

StartChar: ivowel
Encoding: 105 3207 105
Width: 1687
Flags: W
LayerCount: 2
Fore
SplineSet
1767 0 m 1,0,-1
 1599 0 l 2,1,2
 1488 0 1488 0 1413 68 c 1,3,4
 1362 125 1362 125 1362 193 c 0,5,6
 1362 207 1362 207 1366 236 c 2,7,-1
 1389 350 l 1,8,-1
 1174 350 l 2,9,10
 1070 350 1070 350 1012 410 c 1,11,12
 983 428 983 428 972 454.5 c 128,-1,13
 961 481 961 481 961 512 c 0,14,15
 961 535 961 535 963 545 c 2,16,-1
 993 690 l 1,17,18
 1003 758 1003 758 1085 805 c 1,19,20
 1165 844 1165 844 1262 844 c 2,21,-1
 1513 844 l 2,22,23
 1579 844 1579 844 1624 807 c 1,24,-1
 1655 778 l 1,25,-1
 1716 1083 l 1,26,27
 1724 1112 1724 1112 1700.5 1131.5 c 128,-1,28
 1677 1151 1677 1151 1620 1151 c 2,29,-1
 1460 1151 l 2,30,31
 1423 1151 1423 1151 1407 1147 c 128,-1,32
 1391 1143 1391 1143 1360 1123.5 c 128,-1,33
 1329 1104 1329 1104 1321 1067 c 2,34,-1
 1288 909 l 1,35,-1
 1014 909 l 1,36,-1
 1044 1057 l 2,37,38
 1052 1094 1052 1094 1023.5 1122.5 c 128,-1,39
 995 1151 995 1151 938 1151 c 2,40,-1
 743 1151 l 2,41,42
 696 1151 696 1151 662.5 1127.5 c 128,-1,43
 629 1104 629 1104 621 1067 c 2,44,-1
 590 936 l 1,45,46
 590 885 590 885 606 874 c 1,47,48
 622 845 622 845 651 846 c 2,49,-1
 723 846 l 1,50,-1
 672 614 l 1,51,-1
 547 616 l 2,52,53
 422 616 422 616 356 698 c 1,54,55
 303 755 303 755 303 838 c 0,56,57
 303 852 303 852 307 891 c 1,58,-1
 350 1094 l 2,59,60
 368 1180 368 1180 425.5 1245.5 c 128,-1,61
 483 1311 483 1311 567 1343 c 1,62,63
 643 1380 643 1380 733 1380 c 2,64,-1
 1014 1380 l 2,65,66
 1112 1380 1112 1380 1163 1341 c 1,67,68
 1200 1323 1200 1323 1225 1276 c 1,69,70
 1233 1286 1233 1286 1254.5 1307.5 c 128,-1,71
 1276 1329 1276 1329 1305 1339 c 1,72,73
 1371 1382 1371 1382 1450 1382 c 2,74,-1
 1716 1382 l 2,75,76
 1868 1382 1868 1382 1939 1300 c 1,77,78
 2000 1239 2000 1239 2001 1149 c 0,79,80
 2001 1120 2001 1120 1993 1087 c 2,81,-1
 1921 748 l 2,82,83
 1882 568 1882 568 1673 406 c 1,84,-1
 1645 276 l 2,85,86
 1641 253 1641 253 1649 244 c 1,87,88
 1674 228 1674 228 1681 227 c 2,89,-1
 1810 227 l 1,90,-1
 1767 0 l 1,0,-1
1430 580 m 1,91,-1
 1432 588 l 2,92,93
 1440 619 1440 619 1401 618 c 2,94,-1
 1268 618 l 2,95,96
 1258 618 1258 618 1253 616 c 1,97,-1
 1249 602 l 1,98,-1
 1249 592 l 1,99,100
 1251 588 1251 588 1255.5 586 c 128,-1,101
 1260 584 1260 584 1262 584 c 2,102,-1
 1430 580 l 1,91,-1
EndSplineSet
EndChar

StartChar: iivowel
Encoding: 106 3208 106
Width: 2623
Flags: W
LayerCount: 2
Fore
SplineSet
2886 827 m 1,0,1
 2870 741 2870 741 2783 655 c 1,2,3
 2707 587 2707 587 2607 549 c 1,4,5
 2730 375 2730 375 2720 315 c 1,6,-1
 2691 178 l 2,7,8
 2683 141 2683 141 2667.5 115.5 c 128,-1,9
 2652 90 2652 90 2621 59 c 1,10,11
 2560 6 2560 6 2499 6 c 2,12,-1
 1997 6 l 1,13,-1
 2044 238 l 1,14,-1
 2372 238 l 2,15,16
 2388 238 2388 238 2410.5 257 c 128,-1,17
 2433 276 2433 276 2435 287 c 2,18,-1
 2437 297 l 2,19,20
 2445 340 2445 340 2400 379 c 1,21,-1
 2292 518 l 1,22,-1
 1851 518 l 1,23,-1
 1804 285 l 2,24,25
 1779 170 1779 170 1671 88 c 1,26,27
 1569 2 1569 2 1444 2 c 2,28,-1
 709 4 l 2,29,30
 600 4 600 4 541 78 c 1,31,32
 494 129 494 129 494 205 c 0,33,34
 494 221 494 221 498 254 c 1,35,-1
 551 514 l 1,36,-1
 319 514 l 1,37,-1
 371 745 l 1,38,-1
 602 745 l 1,39,-1
 633 903 l 1,40,41
 662 1034 662 1034 823 1165 c 1,42,-1
 662 1165 l 1,43,-1
 709 1397 l 1,44,-1
 1786 1397 l 2,45,46
 1819 1397 1819 1397 1840.5 1419.5 c 128,-1,47
 1862 1442 1862 1442 1864 1458 c 2,48,-1
 1888 1587 l 1,49,-1
 2169 1587 l 1,50,-1
 2144 1458 l 1,51,52
 2119 1343 2119 1343 2019 1264 c 1,53,54
 1951 1196 1951 1196 1847 1167 c 1,55,56
 1898 1124 1898 1124 1929 1070 c 128,-1,57
 1960 1016 1960 1016 1952 958 c 1,58,-1
 1907 743 l 1,59,-1
 2140 743 l 1,60,61
 2122 780 2122 780 2122 834 c 0,62,63
 2122 867 2122 867 2126 885 c 2,64,-1
 2157 1032 l 2,65,66
 2180 1136 2180 1136 2269 1208 c 1,67,68
 2351 1280 2351 1280 2462 1280 c 2,69,-1
 2707 1280 l 2,70,71
 2824 1280 2824 1280 2882 1204 c 1,72,73
 2933 1147 2933 1147 2933 1073 c 0,74,75
 2933 1036 2933 1036 2929 1018 c 2,76,-1
 2886 827 l 1,0,1
2613 846 m 1,77,-1
 2644 993 l 2,78,79
 2646 1003 2646 1003 2641 1015.5 c 128,-1,80
 2636 1028 2636 1028 2631 1037.5 c 128,-1,81
 2626 1047 2626 1047 2601 1047 c 2,82,-1
 2486 1047 l 2,83,84
 2457 1047 2457 1047 2449 1036 c 2,85,-1
 2427 1004 l 1,86,-1
 2394 848 l 1,87,88
 2392 819 2392 819 2406 795 c 1,89,-1
 2488 737 l 1,90,91
 2525 745 2525 745 2558 770 c 0,92,93
 2603 807 2603 807 2613 846 c 1,77,-1
1624 745 m 1,94,-1
 1671 971 l 2,95,96
 1673 981 1673 981 1673 992.5 c 128,-1,97
 1673 1004 1673 1004 1673 1008 c 0,98,99
 1673 1104 1673 1104 1579 1163 c 1,100,-1
 1133 1163 l 1,101,102
 938 1048 938 1048 909 909 c 2,103,-1
 872 741 l 1,104,-1
 1624 745 l 1,94,-1
1542 358 m 1,105,-1
 1573 510 l 1,106,-1
 823 510 l 1,107,-1
 786 330 l 2,108,109
 778 293 778 293 801 256 c 1,110,111
 826 225 826 225 856 225 c 2,112,-1
 1382 225 l 2,113,114
 1405 225 1405 225 1426.5 234.5 c 128,-1,115
 1448 244 1448 244 1473 260 c 1,116,117
 1526 305 1526 305 1542 358 c 1,105,-1
EndSplineSet
EndChar

StartChar: uvowel
Encoding: 107 3209 107
Width: 3143
Flags: W
LayerCount: 2
Fore
SplineSet
3301 311 m 2,0,1
 3285 231 3285 231 3226.5 155.5 c 128,-1,2
 3168 80 3168 80 3084 40 c 128,-1,3
 3000 0 3000 0 2927 0 c 2,4,-1
 2525 0 l 2,5,6
 2480 0 2480 0 2437 11.5 c 128,-1,7
 2394 23 2394 23 2357 41 c 128,-1,8
 2320 59 2320 59 2297.5 86 c 128,-1,9
 2275 113 2275 113 2253 152 c 1,10,11
 2235 199 2235 199 2234 256 c 0,12,13
 2234 272 2234 272 2238 305 c 1,14,-1
 2404 1090 l 2,15,16
 2408 1106 2408 1106 2394 1139 c 1,17,18
 2371 1155 2371 1155 2335 1155 c 2,19,-1
 1952 1155 l 2,20,21
 1913 1155 1913 1155 1894 1141 c 1,22,23
 1871 1118 1871 1118 1864 1087 c 2,24,-1
 1696 287 l 2,25,26
 1688 244 1688 244 1671.5 214 c 128,-1,27
 1655 184 1655 184 1618 139 c 0,28,29
 1565 78 1565 78 1470.5 37 c 128,-1,30
 1376 -4 1376 -4 1290 -4 c 2,31,-1
 760 -2 l 2,32,33
 613 -2 613 -2 522 92 c 0,34,35
 461 153 461 153 461 250 c 0,36,37
 461 287 461 287 469 326 c 2,38,-1
 625 1071 l 1,39,40
 648 1161 648 1161 692 1233 c 1,41,42
 758 1313 758 1313 844 1349.5 c 128,-1,43
 930 1386 930 1386 1001 1386 c 2,44,-1
 1464 1386 l 1,45,-1
 1376 977 l 1,46,47
 1368 926 1368 926 1335.5 874.5 c 128,-1,48
 1303 823 1303 823 1257 780 c 1,49,50
 1155 694 1155 694 1044 694 c 2,51,-1
 864 694 l 1,52,-1
 915 926 l 1,53,-1
 1034 926 l 2,54,55
 1042 926 1042 926 1053.5 931 c 128,-1,56
 1065 936 1065 936 1073 940 c 0,57,58
 1091 954 1091 954 1096 973 c 2,59,-1
 1135 1149 l 1,60,-1
 1006 1149 l 2,61,62
 959 1149 959 1149 929 1122.5 c 128,-1,63
 899 1096 899 1096 895 1065 c 1,64,-1
 737 319 l 2,65,66
 729 286 729 286 754.5 252.5 c 128,-1,67
 780 219 780 219 823 219 c 2,68,-1
 1321 219 l 2,69,70
 1360 219 1360 219 1382 244 c 1,71,72
 1419 275 1419 275 1423 305 c 1,73,-1
 1585 1081 l 2,74,75
 1601 1155 1601 1155 1628 1202 c 128,-1,76
 1655 1249 1655 1249 1712 1292 c 1,77,78
 1816 1380 1816 1380 1942 1380 c 2,79,-1
 2410 1380 l 2,80,81
 2500 1380 2500 1380 2567 1344.5 c 128,-1,82
 2634 1309 2634 1309 2664 1241 c 0,83,84
 2682 1198 2682 1198 2683 1145 c 0,85,86
 2683 1129 2683 1129 2679 1096 c 1,87,-1
 2517 322 l 2,88,89
 2507 279 2507 279 2530.5 249 c 128,-1,90
 2554 219 2554 219 2587 219 c 2,91,-1
 2920 219 l 2,92,93
 2959 219 2959 219 2982 244 c 1,94,95
 2998 258 2998 258 3007.5 272.5 c 128,-1,96
 3017 287 3017 287 3021 305 c 2,97,-1
 3181 1065 l 1,98,99
 3183 1088 3183 1088 3164.5 1106 c 128,-1,100
 3146 1124 3146 1124 3109 1124 c 2,101,-1
 3047 1124 l 1,102,-1
 3101 1382 l 1,103,-1
 3248 1382 l 2,104,105
 3367 1382 3367 1382 3424 1307 c 1,106,107
 3469 1254 3469 1254 3469 1178 c 0,108,109
 3469 1164 3469 1164 3465 1124 c 1,110,-1
 3301 311 l 2,0,1
EndSplineSet
EndChar

StartChar: uuvowel
Encoding: 108 3210 108
Width: 3768
Flags: W
LayerCount: 2
Fore
SplineSet
3918 295 m 1,0,1
 3889 170 3889 170 3789 94 c 1,2,3
 3680 4 3680 4 3570 4 c 2,4,-1
 3451 4 l 2,5,6
 3342 4 3342 4 3269 84 c 1,7,8
 3222 139 3222 139 3222 207 c 0,9,10
 3222 236 3222 236 3230 266 c 2,11,-1
 3273 475 l 1,12,-1
 3549 475 l 1,13,-1
 3506 266 l 2,14,15
 3502 248 3502 248 3506 244 c 0,16,17
 3508 240 3508 240 3531 238 c 1,18,-1
 3602 238 l 1,19,20
 3618 246 3618 246 3621 250 c 2,21,-1
 3637 287 l 1,22,-1
 3799 1057 l 2,23,24
 3801 1067 3801 1067 3801 1085 c 0,25,26
 3801 1112 3801 1112 3784.5 1137.5 c 128,-1,27
 3768 1163 3768 1163 3729 1163 c 2,28,-1
 3439 1163 l 2,29,30
 3382 1163 3382 1163 3340.5 1130.5 c 128,-1,31
 3299 1098 3299 1098 3291 1053 c 2,32,-1
 3140 334 l 2,33,34
 3130 291 3130 291 3113.5 254 c 128,-1,35
 3097 217 3097 217 3064 170 c 1,36,37
 3039 141 3039 141 3021 119 c 0,38,39
 2982 76 2982 76 2931 51 c 0,40,41
 2841 4 2841 4 2761 4 c 2,42,-1
 2335 4 l 2,43,44
 2212 4 2212 4 2140 100 c 1,45,46
 2099 159 2099 159 2099 242 c 0,47,48
 2099 279 2099 279 2107 322 c 2,49,-1
 2267 1081 l 2,50,51
 2275 1120 2275 1120 2252.5 1142.5 c 128,-1,52
 2230 1165 2230 1165 2191 1165 c 2,53,-1
 1896 1165 l 2,54,55
 1851 1165 1851 1165 1820.5 1136.5 c 128,-1,56
 1790 1108 1790 1108 1782 1071 c 2,57,-1
 1630 346 l 2,58,59
 1599 205 1599 205 1470 103.5 c 128,-1,60
 1341 2 1341 2 1194 2 c 2,61,-1
 803 4 l 2,62,63
 645 4 645 4 537 98 c 1,64,65
 469 166 469 166 469 262 c 0,66,67
 469 293 469 293 477 332 c 2,68,-1
 637 1094 l 1,69,70
 653 1160 653 1160 686 1212 c 128,-1,71
 719 1264 719 1264 780 1307 c 0,72,73
 897 1393 897 1393 1049 1393 c 2,74,-1
 1473 1393 l 1,75,-1
 1393 1022 l 2,76,77
 1368 905 1368 905 1257 819 c 1,78,79
 1157 731 1157 731 1026 731 c 2,80,-1
 907 731 l 1,81,-1
 958 963 l 1,82,-1
 1049 963 l 2,83,84
 1059 963 1059 963 1070 968 c 128,-1,85
 1081 973 1081 973 1085 975 c 0,86,87
 1103 989 1103 989 1108 1008 c 2,88,-1
 1141 1159 l 1,89,-1
 1026 1159 l 2,90,91
 979 1159 979 1159 944 1133.5 c 128,-1,92
 909 1108 909 1108 901 1075 c 2,93,-1
 748 342 l 2,94,95
 740 295 740 295 770.5 262 c 128,-1,96
 801 229 801 229 858 229 c 2,97,-1
 1227 229 l 2,98,99
 1258 229 1258 229 1303 260 c 1,100,101
 1340 297 1340 297 1348 342 c 2,102,-1
 1501 1075 l 1,103,104
 1524 1169 1524 1169 1585 1237 c 0,105,106
 1618 1276 1618 1276 1654 1302.5 c 128,-1,107
 1690 1329 1690 1329 1737 1348 c 0,108,109
 1831 1387 1831 1387 1919 1386 c 2,110,-1
 2243 1386 l 2,111,112
 2339 1386 2339 1386 2414.5 1346.5 c 128,-1,113
 2490 1307 2490 1307 2517 1241.5 c 128,-1,114
 2544 1176 2544 1176 2544 1122 c 0,115,116
 2544 1106 2544 1106 2540 1073 c 1,117,-1
 2380 313 l 2,118,119
 2372 280 2372 280 2386 256 c 1,120,121
 2411 227 2411 227 2449 227 c 2,122,-1
 2724 227 l 2,123,124
 2747 227 2747 227 2769 235.5 c 128,-1,125
 2791 244 2791 244 2810 256 c 1,126,127
 2839 285 2839 285 2848 300 c 128,-1,128
 2857 315 2857 315 2861 338 c 2,129,-1
 3009 1044 l 1,130,131
 3032 1140 3032 1140 3088 1217 c 1,132,133
 3121 1256 3121 1256 3159 1286.5 c 128,-1,134
 3197 1317 3197 1317 3242 1339 c 0,135,136
 3332 1382 3332 1382 3428 1382 c 2,137,-1
 3768 1382 l 2,138,139
 3868 1382 3868 1382 3944 1339 c 128,-1,140
 4020 1296 4020 1296 4051 1214 c 0,141,142
 4061 1191 4061 1191 4066 1160.5 c 128,-1,143
 4071 1130 4071 1130 4071 1100 c 0,144,145
 4071 1063 4071 1063 4067 1044 c 2,146,-1
 3918 295 l 1,0,1
EndSplineSet
EndChar

StartChar: rvocalicvowel.part
Encoding: 110 -1 110
Width: 2152
Flags: W
LayerCount: 2
Fore
SplineSet
2298 311 m 2,0,1
 2284 243 2284 243 2258 196.5 c 128,-1,2
 2232 150 2232 150 2187 98 c 1,3,4
 2091 2 2091 2 1995 2 c 2,5,-1
 1556 2 l 2,6,7
 1468 2 1468 2 1386 47 c 0,8,9
 1327 78 1327 78 1296 137 c 1,10,11
 1251 84 1251 84 1204 51 c 1,12,13
 1130 4 1130 4 1077 4 c 2,14,-1
 575 6 l 2,15,16
 466 6 466 6 414 65.5 c 128,-1,17
 362 125 362 125 362 190 c 0,18,19
 362 200 362 200 367 229 c 2,20,-1
 446 612 l 1,21,-1
 821 612 l 2,22,23
 946 612 946 612 1004 553 c 1,24,25
 1065 500 1065 500 1065 434 c 0,26,27
 1065 424 1065 424 1061 395 c 2,28,-1
 1036 279 l 1,29,-1
 760 279 l 1,30,-1
 778 369 l 2,31,32
 780 385 780 385 748 385 c 2,33,-1
 680 385 l 1,34,-1
 662 299 l 1,35,36
 662 274 662 274 672 256 c 1,37,38
 690 238 690 238 715 238 c 2,39,-1
 1032 238 l 2,40,41
 1061 238 1061 238 1084.5 246 c 128,-1,42
 1108 254 1108 254 1130 266 c 0,43,44
 1169 289 1169 289 1178 322 c 2,45,-1
 1346 1114 l 1,46,47
 1348 1139 1348 1139 1324 1154 c 128,-1,48
 1300 1169 1300 1169 1249 1169 c 2,49,-1
 938 1169 l 2,50,51
 897 1169 897 1169 864 1153 c 1,52,53
 846 1151 846 1151 842 1128 c 2,54,-1
 813 997 l 1,55,-1
 881 997 l 2,56,57
 904 997 904 997 926 1015.5 c 128,-1,58
 948 1034 948 1034 952 1057 c 2,59,-1
 969 1133 l 1,60,-1
 1245 1133 l 1,61,-1
 1229 1044 l 1,62,63
 1204 933 1204 933 1107 847.5 c 128,-1,64
 1010 762 1010 762 901 762 c 2,65,-1
 481 762 l 1,66,-1
 565 1165 l 2,67,68
 573 1210 573 1210 604 1255 c 128,-1,69
 635 1300 635 1300 682 1337 c 1,70,71
 782 1398 782 1398 897 1399 c 2,72,-1
 1370 1399 l 2,73,74
 1499 1399 1499 1399 1573 1323 c 1,75,76
 1632 1255 1632 1255 1632 1176 c 0,77,78
 1632 1162 1632 1162 1628 1128 c 1,79,-1
 1468 381 l 1,80,81
 1486 315 1486 315 1534.5 274 c 128,-1,82
 1583 233 1583 233 1630 233 c 2,83,-1
 1907 233 l 2,84,85
 1925 233 1925 233 1941.5 241.5 c 128,-1,86
 1958 250 1958 250 1976 266 c 0,87,88
 2015 299 2015 299 2023 346 c 2,89,-1
 2169 1028 l 2,90,91
 2171 1038 2171 1038 2171 1057 c 0,92,93
 2171 1096 2171 1096 2144.5 1129.5 c 128,-1,94
 2118 1163 2118 1163 2062 1163 c 2,95,-1
 1731 1163 l 1,96,-1
 1778 1395 l 1,97,-1
 2138 1395 l 2,98,99
 2156 1395 2156 1395 2174.5 1403 c 128,-1,100
 2193 1411 2193 1411 2218 1427 c 1,101,102
 2261 1466 2261 1466 2269 1509 c 2,103,-1
 2294 1638 l 1,104,-1
 2570 1638 l 1,105,-1
 2540 1481 l 2,106,107
 2524 1401 2524 1401 2466 1343 c 1,108,109
 2423 1290 2423 1290 2372 1266 c 1,110,111
 2411 1237 2411 1237 2430 1192 c 128,-1,112
 2449 1147 2449 1147 2449 1104 c 0,113,114
 2449 1067 2449 1067 2445 1051 c 2,115,-1
 2298 311 l 2,0,1
EndSplineSet
EndChar

StartChar: lvocalicvowel.part
Encoding: 112 -1 112
Width: 1687
Flags: W
LayerCount: 2
Fore
SplineSet
2167 444 m 1,0,-1
 1829 119 l 1,1,2
 1792 76 1792 76 1755 52.5 c 128,-1,3
 1718 29 1718 29 1691.5 23.5 c 128,-1,4
 1665 18 1665 18 1640 18 c 0,5,6
 1581 18 1581 18 1509.5 42 c 128,-1,7
 1438 66 1438 66 1393 111 c 0,8,9
 1370 136 1370 136 1348 166 c 0,10,11
 1311 217 1311 217 1311 270 c 0,12,13
 1311 280 1311 280 1315 306 c 128,-1,14
 1319 332 1319 332 1477 518 c 0,15,16
 1528 577 1528 577 1632 700 c 1,17,18
 1685 794 1685 794 1710 952 c 0,19,20
 1718 1003 1718 1003 1722 1092 c 1,21,22
 1730 1121 1730 1121 1706.5 1140 c 128,-1,23
 1683 1159 1683 1159 1626 1159 c 2,24,-1
 1466 1159 l 2,25,26
 1429 1159 1429 1159 1413 1155 c 128,-1,27
 1397 1151 1397 1151 1366 1131.5 c 128,-1,28
 1335 1112 1335 1112 1327 1075 c 2,29,-1
 1294 918 l 1,30,-1
 1020 918 l 1,31,-1
 1051 1065 l 2,32,33
 1059 1102 1059 1102 1030 1130.5 c 128,-1,34
 1001 1159 1001 1159 944 1159 c 2,35,-1
 750 1159 l 2,36,37
 703 1159 703 1159 669 1135.5 c 128,-1,38
 635 1112 635 1112 627 1075 c 2,39,-1
 596 944 l 1,40,41
 596 893 596 893 612 883 c 1,42,43
 628 854 628 854 657 854 c 2,44,-1
 729 854 l 1,45,-1
 678 623 l 1,46,-1
 553 625 l 2,47,48
 428 625 428 625 362 707 c 1,49,50
 309 764 309 764 309 846 c 0,51,52
 309 860 309 860 313 899 c 1,53,-1
 356 1102 l 2,54,55
 374 1188 374 1188 431.5 1253.5 c 128,-1,56
 489 1319 489 1319 573 1352 c 1,57,58
 649 1389 649 1389 739 1389 c 2,59,-1
 1020 1389 l 2,60,61
 1118 1389 1118 1389 1169 1350 c 1,62,63
 1206 1332 1206 1332 1231 1284 c 1,64,65
 1239 1294 1239 1294 1260.5 1315.5 c 128,-1,66
 1282 1337 1282 1337 1311 1348 c 1,67,68
 1377 1391 1377 1391 1456 1391 c 2,69,-1
 1722 1391 l 2,70,71
 1874 1391 1874 1391 1946 1309 c 1,72,73
 2007 1248 2007 1248 2007 1157 c 0,74,75
 2007 1128 2007 1128 1999 1096 c 2,76,-1
 1927 756 l 2,77,78
 1913 690 1913 690 1868 629 c 0,79,80
 1852 606 1852 606 1671 412 c 0,81,82
 1642 383 1642 383 1632 373 c 0,83,84
 1589 330 1589 330 1587 319 c 0,85,86
 1583 282 1583 282 1608 272 c 1,87,88
 1622 262 1622 262 1651.5 270.5 c 128,-1,89
 1681 279 1681 279 1692 293 c 1,90,-1
 1980 584 l 1,91,-1
 2167 444 l 1,0,-1
EndSplineSet
EndChar

StartChar: evowel
Encoding: 113 3214 113
Width: 2039
Flags: W
LayerCount: 2
Fore
SplineSet
2193 311 m 2,0,1
 2168 182 2168 182 2063 91 c 128,-1,2
 1958 0 1958 0 1843 0 c 2,3,-1
 1397 2 l 2,4,5
 1315 2 1315 2 1257 45 c 1,6,7
 1226 63 1226 63 1212 96 c 1,8,9
 1183 63 1183 63 1147 41 c 0,10,11
 1079 -2 1079 -2 1014 -2 c 2,12,-1
 674 0 l 2,13,14
 533 0 533 0 451 82 c 1,15,16
 392 148 392 148 391 233 c 0,17,18
 391 249 391 249 395 289 c 1,19,-1
 514 850 l 1,20,-1
 887 850 l 2,21,22
 953 850 953 850 1004 803 c 128,-1,23
 1055 756 1055 756 1071 698.5 c 128,-1,24
 1087 641 1087 641 1089.5 583.5 c 128,-1,25
 1092 526 1092 526 1092 494 c 1,26,-1
 823 426 l 1,27,28
 823 520 823 520 793 578 c 0,29,30
 779 609 779 609 739 616 c 1,31,-1
 680 346 l 1,32,33
 678 301 678 301 700 264 c 1,34,35
 731 231 731 231 778 231 c 2,36,-1
 1001 231 l 2,37,38
 1044 231 1044 231 1081 262 c 0,39,40
 1091 272 1091 272 1109.5 294.5 c 128,-1,41
 1128 317 1128 317 1133 342 c 2,42,-1
 1163 500 l 1,43,-1
 1444 500 l 1,44,-1
 1415 360 l 2,45,46
 1413 352 1413 352 1413 343 c 128,-1,47
 1413 334 1413 334 1413 332 c 0,48,49
 1413 303 1413 303 1436 274 c 1,50,51
 1473 233 1473 233 1526 233 c 2,52,-1
 1772 233 l 2,53,54
 1823 233 1823 233 1868 273 c 128,-1,55
 1913 313 1913 313 1923 365 c 2,56,-1
 2060 1014 l 2,57,58
 2064 1037 2064 1037 2064 1051 c 0,59,60
 2064 1090 2064 1090 2031.5 1126.5 c 128,-1,61
 1999 1163 1999 1163 1927 1163 c 2,62,-1
 1712 1163 l 1,63,-1
 1759 1395 l 1,64,-1
 2003 1395 l 2,65,66
 2116 1395 2116 1395 2195 1350 c 1,67,68
 2283 1305 2283 1305 2320 1223 c 0,69,70
 2345 1166 2345 1166 2345 1108 c 0,71,72
 2345 1077 2345 1077 2337 1044 c 2,73,-1
 2193 311 l 2,0,1
EndSplineSet
EndChar

StartChar: eevowel
Encoding: 114 3215 114
Width: 2033
Flags: W
LayerCount: 2
Fore
SplineSet
2193 340 m 1,0,1
 2177 252 2177 252 2101 166 c 1,2,3
 2068 125 2068 125 2009 82 c 0,4,5
 1984 64 1984 64 1939 45.5 c 128,-1,6
 1894 27 1894 27 1836 12.5 c 128,-1,7
 1778 -2 1778 -2 1718 -2 c 2,8,-1
 1403 6 l 2,9,10
 1329 6 1329 6 1272 49 c 1,11,12
 1235 86 1235 86 1227 131 c 1,13,14
 1110 4 1110 4 965 4 c 2,15,-1
 702 4 l 2,16,17
 548 4 548 4 461 98 c 1,18,19
 393 166 393 166 393 260 c 0,20,21
 393 289 393 289 401 322 c 2,22,-1
 516 856 l 1,23,-1
 887 856 l 2,24,25
 953 856 953 856 997.5 813 c 128,-1,26
 1042 770 1042 770 1073 690 c 1,27,28
 1096 618 1096 618 1096 500 c 1,29,-1
 819 434 l 1,30,31
 819 491 819 491 814 524 c 128,-1,32
 809 557 809 557 791 582 c 1,33,34
 775 613 775 613 741 621 c 1,35,-1
 682 350 l 1,36,37
 682 303 682 303 705 270 c 1,38,39
 736 233 736 233 782 233 c 2,40,-1
 1001 233 l 2,41,42
 1030 233 1030 233 1059 246 c 0,43,44
 1063 248 1063 248 1078.5 261 c 128,-1,45
 1094 274 1094 274 1112 296.5 c 128,-1,46
 1130 319 1130 319 1135 344 c 2,47,-1
 1165 502 l 1,48,-1
 1446 502 l 1,49,-1
 1417 362 l 2,50,51
 1415 352 1415 352 1415 330 c 0,52,53
 1415 301 1415 301 1432 270 c 1,54,55
 1465 231 1465 231 1518 231 c 2,56,-1
 1772 231 l 2,57,58
 1817 231 1817 231 1862 270 c 0,59,60
 1887 293 1887 293 1902 314.5 c 128,-1,61
 1917 336 1917 336 1921 365 c 2,62,-1
 2058 1014 l 2,63,64
 2062 1037 2062 1037 2062 1047 c 0,65,66
 2062 1090 2062 1090 2032 1120 c 1,67,68
 1999 1163 1999 1163 1923 1163 c 2,69,-1
 1726 1163 l 1,70,-1
 1716 1120 l 1,71,72
 1698 1032 1698 1032 1602.5 977 c 128,-1,73
 1507 922 1507 922 1403 922 c 2,74,-1
 1128 922 l 2,75,76
 1009 922 1009 922 928 997 c 1,77,78
 869 1063 869 1063 868 1139 c 0,79,80
 868 1149 868 1149 872 1182 c 1,81,-1
 918 1391 l 1,82,-1
 1194 1391 l 1,83,-1
 1155 1210 l 2,84,85
 1153 1192 1153 1192 1167 1167 c 1,86,87
 1190 1151 1190 1151 1208 1151 c 2,88,-1
 1397 1151 l 2,89,90
 1413 1151 1413 1151 1435.5 1173.5 c 128,-1,91
 1458 1196 1458 1196 1466 1229 c 2,92,-1
 1499 1391 l 1,93,-1
 2001 1391 l 2,94,95
 2120 1391 2120 1391 2200 1346 c 1,96,97
 2290 1301 2290 1301 2322 1219 c 1,98,99
 2351 1162 2351 1162 2351 1104 c 0,100,101
 2351 1073 2351 1073 2343 1040 c 2,102,-1
 2193 340 l 1,0,1
EndSplineSet
EndChar

StartChar: aivowel
Encoding: 115 3216 115
Width: 2158
Flags: W
LayerCount: 2
Fore
SplineSet
2304 315 m 1,0,1
 2279 184 2279 184 2156.5 90 c 128,-1,2
 2034 -4 2034 -4 1874 -4 c 1,3,-1
 1563 4 l 1,4,5
 1467 4 1467 4 1405 47 c 128,-1,6
 1343 90 1343 90 1319 143 c 1,7,8
 1280 104 1280 104 1260.5 89 c 128,-1,9
 1241 74 1241 74 1202 51 c 0,10,11
 1120 4 1120 4 1047 4 c 2,12,-1
 678 6 l 2,13,14
 537 6 537 6 455 88 c 1,15,16
 396 154 396 154 395 240 c 0,17,18
 395 256 395 256 399 295 c 1,19,-1
 461 592 l 2,20,21
 492 731 492 731 608 817 c 1,22,23
 661 860 661 860 731 883.5 c 128,-1,24
 801 907 801 907 868 907 c 2,25,-1
 1300 907 l 1,26,-1
 1235 604 l 2,27,28
 1210 481 1210 481 1092 393 c 1,29,30
 1026 340 1026 340 963.5 316.5 c 128,-1,31
 901 293 901 293 815 293 c 1,32,-1
 791 518 l 1,33,34
 838 518 838 518 860.5 525 c 128,-1,35
 883 532 883 532 911 551 c 0,36,37
 956 580 956 580 958 610 c 1,38,-1
 973 670 l 1,39,-1
 893 670 l 2,40,41
 825 670 825 670 784 640 c 128,-1,42
 743 610 743 610 735 573 c 2,43,-1
 688 369 l 1,44,45
 680 312 680 312 706.5 268.5 c 128,-1,46
 733 225 733 225 784 225 c 2,47,-1
 1036 225 l 2,48,49
 1102 225 1102 225 1161.5 269 c 128,-1,50
 1221 313 1221 313 1231 367 c 2,51,-1
 1253 467 l 1,52,-1
 1534 467 l 1,53,-1
 1511 367 l 2,54,55
 1509 357 1509 357 1509 340 c 0,56,57
 1509 303 1509 303 1534 270 c 1,58,59
 1573 227 1573 227 1630 227 c 2,60,-1
 1913 227 l 2,61,62
 1931 227 1931 227 1950.5 238.5 c 128,-1,63
 1970 250 1970 250 1989 266 c 0,64,65
 2034 311 2034 311 2044 369 c 2,66,-1
 2189 1047 l 2,67,68
 2193 1072 2193 1072 2189 1088 c 128,-1,69
 2185 1104 2185 1104 2171 1129.5 c 128,-1,70
 2157 1155 2157 1155 2103 1155 c 2,71,-1
 1851 1155 l 2,72,73
 1812 1155 1812 1155 1776 1130 c 1,74,75
 1751 1105 1751 1105 1741 1063 c 2,76,-1
 1722 969 l 1,77,-1
 1446 969 l 1,78,-1
 1468 1071 l 2,79,80
 1476 1102 1476 1102 1439.5 1128.5 c 128,-1,81
 1403 1155 1403 1155 1329 1155 c 2,82,-1
 967 1155 l 2,83,84
 920 1155 920 1155 883 1124 c 1,85,86
 838 1095 838 1095 791 1016 c 1,87,-1
 602 1147 l 1,88,89
 690 1270 690 1270 784.5 1328 c 128,-1,90
 879 1386 879 1386 973 1386 c 2,91,-1
 1432 1386 l 2,92,93
 1534 1386 1534 1386 1585 1343 c 1,94,95
 1632 1314 1632 1314 1649 1264 c 1,96,97
 1667 1287 1667 1287 1692.5 1306 c 128,-1,98
 1718 1325 1718 1325 1747 1341 c 0,99,100
 1819 1384 1819 1384 1901 1384 c 2,101,-1
 2191 1384 l 2,102,103
 2281 1384 2281 1384 2355 1348.5 c 128,-1,104
 2429 1313 2429 1313 2458 1245 c 0,105,106
 2472 1208 2472 1208 2476 1189.5 c 128,-1,107
 2480 1171 2480 1171 2480 1143 c 0,108,109
 2480 1133 2480 1133 2476 1100 c 1,110,-1
 2304 315 l 1,0,1
EndSplineSet
EndChar

StartChar: ovowel
Encoding: 116 3218 116
Width: 1974
Flags: W
LayerCount: 2
Fore
SplineSet
2107 254 m 0,0,1
 2097 203 2097 203 2073.5 161 c 128,-1,2
 2050 119 2050 119 2007 80 c 0,3,4
 1921 4 1921 4 1825 4 c 0,5,-1
 1376 4 l 0,6,7
 1302 4 1302 4 1255 47 c 0,8,9
 1230 63 1230 63 1212 100 c 0,10,11
 1194 69 1194 69 1157 47 c 0,12,13
 1089 4 1089 4 1032 4 c 0,14,-1
 621 4 l 0,15,16
 506 4 506 4 424 72 c 0,17,18
 365 123 365 123 365 195 c 0,19,20
 365 211 365 211 369 240 c 0,21,-1
 434 551 l 0,22,-1
 735 713 l 0,23,24
 809 756 809 756 875.5 793.5 c 128,-1,25
 942 831 942 831 979 856 c 0,26,27
 1032 889 1032 889 1040 928 c 0,28,-1
 1077 1102 l 0,29,30
 1081 1125 1081 1125 1067 1141 c 128,-1,31
 1053 1157 1053 1157 1024 1157 c 0,32,-1
 842 1157 l 0,33,-1
 823 1071 l 0,34,35
 821 1053 821 1053 833.5 1033.5 c 128,-1,36
 846 1014 846 1014 877 1014 c 0,37,-1
 928 1014 l 0,38,-1
 877 782 l 0,39,-1
 754 782 l 0,40,41
 643 782 643 782 584 870 c 0,42,43
 537 927 537 927 537 1008 c 0,44,45
 537 1039 537 1039 545 1071 c 0,46,-1
 612 1389 l 0,47,-1
 1133 1389 l 0,48,49
 1207 1389 1207 1389 1264 1363 c 128,-1,50
 1321 1337 1321 1337 1352 1284 c 0,51,52
 1375 1245 1375 1245 1374 1206 c 0,53,54
 1374 1196 1374 1196 1370 1174 c 0,55,-1
 1305 862 l 0,56,57
 1291 805 1291 805 1222 752.5 c 128,-1,58
 1153 700 1153 700 920 571 c 0,59,-1
 690 446 l 0,60,-1
 666 322 l 0,61,62
 658 289 658 289 676 260 c 0,63,64
 701 235 701 235 737 236 c 0,65,-1
 1004 236 l 0,66,67
 1035 236 1035 236 1074.5 268.5 c 128,-1,68
 1114 301 1114 301 1122 338 c 0,69,-1
 1145 449 l 0,70,-1
 1421 449 l 0,71,-1
 1403 348 l 0,72,73
 1401 340 1401 340 1401 322 c 0,74,75
 1401 293 1401 293 1417 270 c 0,76,77
 1448 237 1448 237 1499 238 c 0,78,-1
 1733 238 l 0,79,80
 1764 238 1764 238 1801.5 268.5 c 128,-1,81
 1839 299 1839 299 1849 338 c 0,82,-1
 1888 528 l 0,83,84
 1896 561 1896 561 1878 579.5 c 128,-1,85
 1860 598 1860 598 1823 598 c 0,86,-1
 1726 598 l 0,87,-1
 1774 827 l 0,88,-1
 1997 827 l 0,89,90
 2101 827 2101 827 2145 775 c 128,-1,91
 2189 723 2189 723 2189 666 c 0,92,93
 2189 650 2189 650 2185 621 c 0,94,-1
 2107 254 l 0,0,1
EndSplineSet
EndChar

StartChar: oovowel
Encoding: 117 3219 117
Width: 1974
Flags: W
LayerCount: 2
Fore
SplineSet
2111 287 m 0,0,1
 2095 211 2095 211 2043 144.5 c 128,-1,2
 1991 78 1991 78 1933 47 c 0,3,4
 1865 4 1865 4 1798 4 c 0,5,-1
 1374 4 l 0,6,7
 1300 4 1300 4 1253 47 c 0,8,9
 1220 70 1220 70 1206 109 c 0,10,11
 1198 101 1198 101 1167 76 c 0,12,13
 1159 72 1159 72 1128 47 c 0,14,15
 1062 8 1062 8 997 8 c 0,16,-1
 616 8 l 0,17,18
 501 8 501 8 420 76 c 0,19,20
 361 127 361 127 360 201 c 0,21,22
 360 217 360 217 365 246 c 0,23,-1
 430 559 l 0,24,-1
 731 721 l 0,25,26
 745 729 745 729 883 809 c 0,27,28
 963 854 963 854 977 864 c 0,29,30
 1034 901 1034 901 1042 940 c 0,31,-1
 1073 1087 l 0,32,33
 1081 1118 1081 1118 1057 1147 c 0,34,35
 1041 1172 1041 1172 995 1171 c 0,36,-1
 844 1171 l 0,37,-1
 827 1085 l 0,38,39
 823 1067 823 1067 837.5 1045.5 c 128,-1,40
 852 1024 852 1024 881 1024 c 0,41,-1
 932 1024 l 0,42,-1
 885 791 l 0,43,-1
 762 791 l 0,44,45
 651 791 651 791 590 879 c 0,46,47
 545 940 545 940 545 1016 c 0,48,49
 545 1045 545 1045 553 1083 c 0,50,-1
 621 1401 l 0,51,-1
 795 1401 l 0,52,53
 643 1516 643 1516 659 1591 c 0,54,-1
 696 1763 l 0,55,56
 712 1845 712 1845 803 1896 c 0,57,58
 877 1947 877 1947 987 1948 c 0,59,-1
 1274 1948 l 0,60,-1
 1227 1714 l 0,61,-1
 1018 1714 l 0,62,-1
 973 1706 l 0,63,64
 959 1698 959 1698 958 1683 c 0,65,-1
 940 1602 l 0,66,67
 926 1534 926 1534 1116 1403 c 0,68,-1
 1139 1403 l 0,69,70
 1213 1403 1213 1403 1270 1377.5 c 128,-1,71
 1327 1352 1327 1352 1358 1298 c 0,72,73
 1376 1261 1376 1261 1376 1219 c 0,74,75
 1376 1196 1376 1196 1374 1186 c 0,76,-1
 1309 868 l 0,77,78
 1295 811 1295 811 1221 754 c 0,79,80
 1168 711 1168 711 922 578 c 0,81,82
 863 545 863 545 772 494 c 0,83,84
 715 463 715 463 698 455 c 0,85,-1
 670 326 l 0,86,87
 666 297 666 297 682 264 c 0,88,89
 711 235 711 235 743 236 c 0,90,-1
 1010 236 l 0,91,92
 1033 236 1033 236 1079 266 c 0,93,94
 1118 305 1118 305 1126 338 c 0,95,-1
 1151 453 l 0,96,-1
 1427 453 l 0,97,-1
 1399 324 l 0,98,99
 1391 287 1391 287 1421.5 260 c 128,-1,100
 1452 233 1452 233 1499 233 c 0,101,-1
 1733 233 l 0,102,103
 1756 233 1756 233 1802 264 c 0,104,105
 1841 297 1841 297 1849 336 c 0,106,-1
 1892 530 l 0,107,108
 1896 567 1896 567 1880 584 c 0,109,110
 1857 598 1857 598 1827 598 c 0,111,-1
 1731 598 l 0,112,-1
 1778 831 l 0,113,-1
 1974 831 l 0,114,115
 2083 831 2083 831 2136 752 c 0,116,117
 2179 695 2179 695 2179 621 c 0,118,119
 2179 584 2179 584 2175 567 c 0,120,-1
 2111 287 l 0,0,1
EndSplineSet
EndChar

StartChar: auvowel
Encoding: 118 3220 118
Width: 1966
Flags: W
LayerCount: 2
Fore
SplineSet
2324 1040 m 1,0,-1
 1667 1040 l 2,1,2
 1558 1040 1558 1040 1499 1124 c 1,3,4
 1456 1175 1456 1175 1456 1251 c 0,5,6
 1456 1284 1456 1284 1464 1323 c 2,7,-1
 1516 1569 l 1,8,-1
 2089 1569 l 1,9,-1
 2042 1337 l 1,10,-1
 1718 1337 l 1,11,-1
 1716 1323 l 2,12,13
 1714 1313 1714 1313 1724 1288 c 1,14,15
 1740 1270 1740 1270 1765 1270 c 2,16,-1
 2097 1270 l 1,17,-1
 2173 1624 l 2,18,19
 2181 1663 2181 1663 2152.5 1691.5 c 128,-1,20
 2124 1720 2124 1720 2079 1720 c 2,21,-1
 1522 1720 l 1,22,23
 1530 1702 1530 1702 1526 1679 c 2,24,-1
 1516 1626 l 1,25,26
 1500 1552 1500 1552 1446 1505 c 1,27,28
 1380 1454 1380 1454 1323 1454 c 2,29,-1
 645 1454 l 1,30,-1
 692 1686 l 1,31,-1
 1270 1686 l 1,32,-1
 1298 1694 l 1,33,-1
 1317 1718 l 1,34,35
 1292 1720 1292 1720 1276 1724 c 1,36,-1
 700 1722 l 1,37,-1
 748 1956 l 1,38,-1
 2161 1956 l 2,39,40
 2261 1956 2261 1956 2335 1923 c 1,41,42
 2415 1880 2415 1880 2443.5 1824.5 c 128,-1,43
 2472 1769 2472 1769 2472 1722 c 0,44,45
 2472 1712 2472 1712 2468 1683 c 1,46,-1
 2324 1040 l 1,0,-1
2107 260 m 2,47,48
 2097 209 2097 209 2073.5 166 c 128,-1,49
 2050 123 2050 123 2011 80 c 1,50,51
 1925 4 1925 4 1829 4 c 2,52,-1
 1370 4 l 2,53,54
 1302 4 1302 4 1255 47 c 1,55,56
 1224 65 1224 65 1208 104 c 1,57,58
 1192 81 1192 81 1170.5 66 c 128,-1,59
 1149 51 1149 51 1139 43 c 0,60,61
 1078 4 1078 4 1026 4 c 2,62,-1
 643 6 l 2,63,64
 512 6 512 6 436 92 c 0,65,66
 377 160 377 160 377 242 c 0,67,68
 377 258 377 258 381 297 c 1,69,-1
 434 553 l 1,70,-1
 737 715 l 1,71,72
 811 758 811 758 884.5 802 c 128,-1,73
 958 846 958 846 977 860 c 1,74,75
 1034 897 1034 897 1042 936 c 2,76,-1
 1083 1135 l 1,77,78
 1087 1168 1087 1168 1022 1167 c 2,79,-1
 840 1167 l 1,80,-1
 823 1081 l 2,81,82
 819 1063 819 1063 833.5 1041.5 c 128,-1,83
 848 1020 848 1020 877 1020 c 2,84,-1
 956 1020 l 1,85,-1
 909 786 l 1,86,-1
 752 786 l 2,87,88
 643 786 643 786 582 874 c 1,89,90
 539 940 539 940 539 1014 c 0,91,92
 539 1047 539 1047 547 1079 c 2,93,-1
 614 1397 l 1,94,-1
 1135 1397 l 2,95,96
 1209 1397 1209 1397 1270 1368 c 128,-1,97
 1331 1339 1331 1339 1352.5 1296 c 128,-1,98
 1374 1253 1374 1253 1374 1210 c 0,99,100
 1374 1187 1374 1187 1372 1178 c 2,101,-1
 1307 860 l 1,102,103
 1293 813 1293 813 1241 774 c 1,104,105
 1227 760 1227 760 1191 733.5 c 128,-1,106
 1155 707 1155 707 1126 692 c 0,107,108
 1118 688 1118 688 1065 657 c 0,109,110
 975 606 975 606 899 563 c 2,111,-1
 696 449 l 1,112,-1
 668 319 l 2,113,114
 660 282 660 282 682 260 c 1,115,116
 698 229 698 229 741 229 c 2,117,-1
 1036 229 l 2,118,119
 1061 229 1061 229 1083 258 c 0,120,121
 1097 274 1097 274 1109.5 295.5 c 128,-1,122
 1122 317 1122 317 1124 334 c 2,123,-1
 1149 449 l 1,124,-1
 1423 449 l 1,125,-1
 1395 319 l 2,126,127
 1391 294 1391 294 1409 258 c 1,128,129
 1427 229 1427 229 1466 229 c 2,130,-1
 1700 229 l 2,131,132
 1747 229 1747 229 1794 262 c 1,133,134
 1839 305 1839 305 1847 334 c 2,135,-1
 1890 528 l 1,136,137
 1894 561 1894 561 1871.5 577.5 c 128,-1,138
 1849 594 1849 594 1819 594 c 2,139,-1
 1729 594 l 1,140,-1
 1776 827 l 1,141,-1
 2001 827 l 2,142,143
 2058 827 2058 827 2091 816 c 128,-1,144
 2124 805 2124 805 2152 768 c 1,145,146
 2189 729 2189 729 2189 668 c 0,147,148
 2189 654 2189 654 2185 621 c 1,149,-1
 2107 260 l 2,47,48
EndSplineSet
EndChar

StartChar: ka.base
Encoding: 120 -1 120
Width: 1134
Flags: W
AnchorPoint: "s" 569 -127 basechar 0
LayerCount: 2
Fore
SplineSet
1731 788 m 1,0,-1
 1356 788 l 1,1,2
 1393 759 1393 759 1423.5 723.5 c 128,-1,3
 1454 688 1454 688 1473 655 c 1,4,5
 1516 589 1516 589 1516 522 c 0,6,7
 1516 493 1516 493 1513 483 c 2,8,-1
 1470 279 l 1,9,10
 1452 170 1452 170 1352 94 c 1,11,12
 1307 57 1307 57 1263 36.5 c 128,-1,13
 1219 16 1219 16 1171 16 c 2,14,-1
 618 14 l 2,15,16
 516 14 516 14 465 74 c 1,17,18
 422 117 422 117 422 176 c 0,19,20
 422 186 422 186 426 219 c 1,21,-1
 477 463 l 1,22,23
 502 594 502 594 778 795 c 1,24,-1
 367 795 l 1,25,-1
 418 1026 l 1,26,-1
 973 1026 l 1,27,-1
 1004 1171 l 1,28,-1
 449 1171 l 1,29,-1
 496 1403 l 1,30,-1
 1509 1403 l 1,31,-1
 1462 1171 l 1,32,-1
 1282 1171 l 1,33,-1
 1251 1026 l 1,34,-1
 1782 1026 l 1,35,-1
 1731 788 l 1,0,-1
1206 334 m 2,36,-1
 1231 457 l 2,37,38
 1235 480 1235 480 1235 489 c 0,39,40
 1235 536 1235 536 1199 586.5 c 128,-1,41
 1163 637 1163 637 1130.5 667.5 c 128,-1,42
 1098 698 1098 698 1051 727 c 1,43,44
 777 598 777 598 752 469 c 1,45,-1
 721 324 l 2,46,47
 717 299 717 299 731 266 c 1,48,49
 754 250 754 250 793 250 c 1,50,-1
 791 242 l 1,51,-1
 1137 242 l 2,52,53
 1151 242 1151 242 1176 260 c 1,54,55
 1198 291 1198 291 1206 334 c 2,36,-1
EndSplineSet
EndChar

StartChar: ka.imathra
Encoding: 121 -1 121
Width: 1333
Flags: W
AnchorPoint: "s" 553 -164 basechar 0
LayerCount: 2
Fore
SplineSet
1593 791 m 1,0,-1
 1317 791 l 1,1,2
 1354 760 1354 760 1391 721 c 0,3,4
 1420 690 1420 690 1450 645 c 1,5,6
 1493 569 1493 569 1493 500 c 0,7,8
 1493 484 1493 484 1489 455 c 2,9,-1
 1442 221 l 2,10,11
 1434 184 1434 184 1407 144 c 128,-1,12
 1380 104 1380 104 1348 74 c 1,13,14
 1268 13 1268 13 1171 12 c 2,15,-1
 612 14 l 2,16,17
 555 14 555 14 518 27.5 c 128,-1,18
 481 41 481 41 449 72 c 1,19,20
 404 119 404 119 403 184 c 0,21,22
 403 207 403 207 406 217 c 2,23,-1
 459 483 l 1,24,25
 473 536 473 536 547 604 c 0,26,27
 570 622 570 622 637 676 c 0,28,29
 748 762 748 762 784 791 c 1,30,-1
 467 791 l 1,31,-1
 514 1024 l 1,32,-1
 1049 1024 l 1,33,-1
 1260 1223 l 1,34,-1
 1319 1509 l 2,35,36
 1321 1517 1321 1517 1319 1519.5 c 128,-1,37
 1317 1522 1317 1522 1315 1524 c 1,38,-1
 1192 1524 l 1,39,-1
 1169 1427 l 1,40,-1
 1174 1413 l 1,41,-1
 1198 1403 l 1,42,-1
 1249 1403 l 1,43,-1
 1202 1171 l 1,44,-1
 1065 1171 l 2,45,46
 979 1171 979 1171 913 1229 c 1,47,48
 874 1268 874 1268 874 1321 c 0,49,50
 874 1344 874 1344 877 1354 c 2,51,-1
 961 1755 l 1,52,-1
 1421 1755 l 2,53,54
 1517 1755 1517 1755 1569 1698 c 1,55,56
 1608 1661 1608 1661 1608 1599 c 0,57,58
 1608 1566 1608 1566 1604 1550 c 2,59,-1
 1524 1178 l 1,60,-1
 1358 1024 l 1,61,-1
 1640 1024 l 1,62,-1
 1593 791 l 1,0,-1
1178 293 m 2,63,-1
 1210 455 l 2,64,65
 1224 527 1224 527 1022 717 c 1,66,67
 739 522 739 522 723 442 c 2,68,-1
 686 266 l 2,69,70
 684 252 684 252 699.5 240.5 c 128,-1,71
 715 229 715 229 731 229 c 2,72,-1
 1122 229 l 2,73,74
 1136 229 1136 229 1155 249.5 c 128,-1,75
 1174 270 1174 270 1178 293 c 2,63,-1
EndSplineSet
LCarets2: 1 0
EndChar

StartChar: ka.sub
Encoding: 122 -1 122
Width: 352
Flags: W
AnchorPoint: "Sub" -373 594 mark 0
AnchorPoint: "Sub" 492 -848 basemark 0
LayerCount: 2
Fore
SplineSet
668 -315 m 1,0,-1
 449 -315 l 1,1,2
 543 -403 543 -403 526 -479 c 2,3,-1
 494 -639 l 2,4,5
 478 -721 478 -721 389 -782 c 1,6,7
 289 -839 289 -839 195 -840 c 2,8,-1
 -158 -840 l 1,9,10
 -205 -836 -205 -836 -242 -820.5 c 128,-1,11
 -279 -805 -279 -805 -309 -772 c 1,12,13
 -366 -721 -366 -721 -367 -649 c 0,14,15
 -367 -641 -367 -641 -362 -612 c 2,16,-1
 -346 -522 l 1,17,18
 -317 -420 -317 -420 -174 -311 c 1,19,-1
 -426 -311 l 1,20,-1
 -383 -109 l 1,21,-1
 78 -109 l 1,22,-1
 240 29 l 2,23,24
 295 74 295 74 313 90 c 0,25,26
 344 115 344 115 358 131 c 0,27,28
 387 160 387 160 389 176 c 2,29,-1
 442 436 l 2,30,31
 452 489 452 489 324 543 c 1,32,-1
 526 682 l 1,33,34
 712 543 712 543 696 457 c 2,35,-1
 629 141 l 2,36,37
 627 123 627 123 607.5 97.5 c 128,-1,38
 588 72 588 72 557 41 c 1,39,-1
 358 -119 l 1,40,-1
 713 -119 l 1,41,-1
 668 -315 l 1,0,-1
260 -586 m 2,42,-1
 279 -489 l 2,43,44
 287 -452 287 -452 244 -399 c 1,45,46
 203 -356 203 -356 121 -326 c 1,47,48
 33 -351 33 -351 -24.5 -403 c 128,-1,49
 -82 -455 -82 -455 -92 -516 c 1,50,-1
 -109 -596 l 1,51,52
 -111 -619 -111 -619 -100 -635 c 1,53,54
 -75 -653 -75 -653 -39 -653 c 2,55,-1
 193 -653 l 2,56,57
 216 -653 216 -653 229 -635 c 1,58,59
 258 -606 258 -606 260 -586 c 2,42,-1
EndSplineSet
LCarets2: 1 0
EndChar

StartChar: ka_rvocalicmatra.sub
Encoding: 123 -1 123
Width: 698
Flags: W
LayerCount: 2
Fore
SplineSet
1309 -549 m 2,0,1
 1284 -672 1284 -672 1184 -754 c 1,2,3
 1084 -842 1084 -842 952 -842 c 2,4,-1
 139 -838 l 2,5,6
 35 -838 35 -838 -17.5 -776.5 c 128,-1,7
 -70 -715 -70 -715 -70 -655 c 0,8,9
 -70 -645 -70 -645 -66 -612 c 1,10,-1
 14 -229 l 1,11,-1
 262 -229 l 1,12,-1
 203 -184 l 1,13,14
 156 -137 156 -137 164 -90 c 2,15,-1
 203 100 l 2,16,17
 219 182 219 182 338 264 c 1,18,-1
 150 264 l 1,19,-1
 195 469 l 1,20,-1
 610 469 l 1,21,-1
 655 686 l 1,22,-1
 930 686 l 1,23,-1
 885 469 l 1,24,-1
 1294 469 l 1,25,-1
 1249 264 l 1,26,-1
 1018 264 l 1,27,28
 1041 254 1041 254 1063 223.5 c 128,-1,29
 1085 193 1085 193 1094.5 162 c 128,-1,30
 1104 131 1104 131 1100 104 c 2,31,-1
 1075 -14 l 2,32,33
 1052 -118 1052 -118 956 -188 c 1,34,35
 860 -268 860 -268 745 -268 c 2,36,-1
 580 -268 l 1,37,-1
 547 -428 l 1,38,-1
 227 -428 l 1,39,-1
 197 -582 l 2,40,41
 193 -600 193 -600 209 -604 c 1,42,43
 238 -627 238 -627 260 -627 c 2,44,-1
 965 -627 l 2,45,46
 981 -627 981 -627 1009.5 -589 c 128,-1,47
 1038 -551 1038 -551 1049 -498 c 2,48,-1
 1161 47 l 2,49,50
 1165 70 1165 70 1150 86 c 128,-1,51
 1135 102 1135 102 1083 127 c 1,52,-1
 1307 293 l 1,53,54
 1346 270 1346 270 1372.5 247.5 c 128,-1,55
 1399 225 1399 225 1417 195 c 1,56,57
 1442 144 1442 144 1442 96 c 0,58,59
 1442 82 1442 82 1438 53 c 2,60,-1
 1309 -549 l 2,0,1
827 16 m 1,61,-1
 846 106 l 2,62,63
 848 114 848 114 848 137 c 0,64,65
 848 174 848 174 829 203 c 1,66,67
 811 244 811 244 758 266 c 1,68,-1
 600 266 l 1,69,70
 543 237 543 237 502 194.5 c 128,-1,71
 461 152 461 152 459 115 c 1,72,-1
 428 -23 l 2,73,74
 424 -48 424 -48 438 -51 c 1,75,-1
 463 -68 l 1,76,-1
 778 -66 l 2,77,78
 792 -66 792 -66 807.5 -43.5 c 128,-1,79
 823 -21 823 -21 827 16 c 1,61,-1
EndSplineSet
EndChar

StartChar: kha
Encoding: 124 3222 124
Width: 2009
Flags: W
LayerCount: 2
Fore
SplineSet
2136 231 m 2,0,1
 2118 141 2118 141 2056 70 c 1,2,3
 1976 -4 1976 -4 1911 -4 c 2,4,-1
 1597 -4 l 2,5,6
 1515 -4 1515 -4 1427 70 c 1,7,-1
 1296 166 l 1,8,9
 1253 96 1253 96 1178 55 c 1,10,11
 1133 26 1133 26 1085.5 12 c 128,-1,12
 1038 -2 1038 -2 987 -2 c 2,13,-1
 487 -2 l 1,14,15
 450 2 450 2 414.5 14.5 c 128,-1,16
 379 27 379 27 352.5 47.5 c 128,-1,17
 326 68 326 68 314.5 90.5 c 128,-1,18
 303 113 303 113 303 137 c 0,19,20
 303 160 303 160 305 170 c 2,21,-1
 362 438 l 2,22,23
 378 524 378 524 453 582 c 1,24,25
 529 633 529 633 610 633 c 2,26,-1
 1034 633 l 2,27,28
 1116 633 1116 633 1153 604 c 1,29,-1
 1253 1073 l 2,30,31
 1255 1083 1255 1083 1255 1094.5 c 128,-1,32
 1255 1106 1255 1106 1255 1108 c 0,33,34
 1255 1126 1255 1126 1247 1140.5 c 128,-1,35
 1239 1155 1239 1155 1225 1155 c 2,36,-1
 958 1155 l 1,37,-1
 944 1147 l 1,38,39
 930 1129 930 1129 922 1090 c 2,40,-1
 877 864 l 1,41,-1
 596 864 l 1,42,-1
 657 1169 l 2,43,44
 675 1265 675 1265 764 1327 c 0,45,46
 803 1356 803 1356 854 1371 c 128,-1,47
 905 1386 905 1386 958 1386 c 2,48,-1
 1325 1386 l 2,49,50
 1436 1386 1436 1386 1495 1307 c 0,51,52
 1540 1250 1540 1250 1540 1169 c 0,53,54
 1540 1132 1540 1132 1536 1114 c 2,55,-1
 1391 426 l 1,56,-1
 1552 268 l 1,57,58
 1599 217 1599 217 1671 217 c 2,59,-1
 1804 217 l 2,60,61
 1827 217 1827 217 1837 236 c 1,62,63
 1860 261 1860 261 1868 303 c 2,64,-1
 2036 1092 l 1,65,66
 2040 1123 2040 1123 2023 1133 c 1,67,68
 2007 1149 2007 1149 1970 1149 c 2,69,-1
 1698 1149 l 1,70,-1
 1745 1378 l 1,71,-1
 2114 1378 l 2,72,73
 2167 1378 2167 1378 2208 1364 c 128,-1,74
 2249 1350 2249 1350 2277 1313 c 1,75,76
 2328 1256 2328 1256 2329 1194 c 0,77,78
 2329 1180 2329 1180 2324 1147 c 1,79,-1
 2136 231 l 2,0,1
1067 279 m 1,80,-1
 1081 336 l 1,81,82
 1044 393 1044 393 936 393 c 2,83,-1
 674 393 l 2,84,85
 643 393 643 393 621 385 c 2,86,-1
 606 381 l 1,87,-1
 578 254 l 1,88,89
 582 238 582 238 591 229.5 c 128,-1,90
 600 221 600 221 623 221 c 2,91,-1
 977 221 l 2,92,93
 1008 221 1008 221 1032 244 c 1,94,95
 1057 261 1057 261 1067 279 c 1,80,-1
EndSplineSet
LCarets2: 1 0
EndChar

StartChar: kha.base
Encoding: 125 -1 125
Width: 1662
Flags: W
LayerCount: 2
Fore
SplineSet
2140 231 m 1,0,1
 2122 135 2122 135 2052 65.5 c 128,-1,2
 1982 -4 1982 -4 1909 -4 c 1,3,-1
 1905 0 l 1,4,-1
 1595 0 l 2,5,6
 1515 0 1515 0 1427 74 c 1,7,-1
 1309 154 l 1,8,9
 1280 97 1280 97 1188 48.5 c 128,-1,10
 1096 0 1096 0 991 0 c 2,11,-1
 510 0 l 2,12,13
 410 0 410 0 352 47 c 0,14,15
 327 65 327 65 316 88 c 128,-1,16
 305 111 305 111 305 135 c 0,17,18
 305 158 305 158 307 168 c 2,19,-1
 365 436 l 2,20,21
 381 518 381 518 454.5 573.5 c 128,-1,22
 528 629 528 629 625 629 c 2,23,-1
 1036 629 l 2,24,25
 1118 629 1118 629 1155 600 c 1,26,-1
 1260 1098 l 2,27,28
 1264 1121 1264 1121 1253 1143 c 1,29,30
 1243 1153 1243 1153 1225 1153 c 2,31,-1
 991 1153 l 2,32,33
 966 1153 966 1153 950 1137.5 c 128,-1,34
 934 1122 934 1122 926 1085 c 2,35,-1
 881 860 l 1,36,-1
 604 860 l 1,37,-1
 666 1165 l 2,38,39
 684 1261 684 1261 768 1322.5 c 128,-1,40
 852 1384 852 1384 967 1384 c 2,41,-1
 1335 1384 l 2,42,43
 1446 1384 1446 1384 1505 1305 c 1,44,45
 1550 1252 1550 1252 1550 1178 c 0,46,47
 1550 1147 1550 1147 1542 1114 c 2,48,-1
 1397 424 l 1,49,-1
 1565 299 l 1,50,51
 1637 219 1637 219 1681 219 c 2,52,-1
 1847 219 l 2,53,54
 1861 219 1861 219 1866 242 c 2,55,-1
 2017 948 l 2,56,57
 2021 977 2021 977 2021 991 c 0,58,59
 2021 1052 2021 1052 1982 1092 c 0,60,61
 1925 1151 1925 1151 1835 1151 c 2,62,-1
 1712 1151 l 1,63,-1
 1759 1380 l 1,64,-1
 2019 1380 l 1,65,66
 2128 1366 2128 1366 2200 1305 c 1,67,68
 2233 1272 2233 1272 2255 1235 c 128,-1,69
 2277 1198 2277 1198 2289.5 1151 c 128,-1,70
 2302 1104 2302 1104 2302 1036 c 0,71,72
 2302 993 2302 993 2294 950 c 2,73,-1
 2140 231 l 1,0,1
1079 283 m 2,74,-1
 1087 322 l 1,75,76
 1015 396 1015 396 907 395 c 2,77,-1
 653 395 l 2,78,79
 637 395 637 395 629 391 c 0,80,81
 625 391 625 391 623 383 c 2,82,-1
 594 256 l 1,83,84
 596 240 596 240 605 231.5 c 128,-1,85
 614 223 614 223 637 223 c 2,86,-1
 991 223 l 2,87,88
 1016 223 1016 223 1044.5 241.5 c 128,-1,89
 1073 260 1073 260 1079 283 c 2,74,-1
EndSplineSet
EndChar

StartChar: kha.imathra
Encoding: 126 -1 126
Width: 2009
Flags: W
LayerCount: 2
Fore
SplineSet
2140 233 m 1,0,1
 2122 133 2122 133 2052 63.5 c 128,-1,2
 1982 -6 1982 -6 1909 -6 c 1,3,-1
 1905 -2 l 1,4,-1
 1595 -2 l 2,5,6
 1515 -2 1515 -2 1427 72 c 1,7,-1
 1296 166 l 1,8,9
 1251 98 1251 98 1186 53 c 1,10,11
 1092 0 1092 0 1010 0 c 2,12,-1
 510 0 l 2,13,14
 410 0 410 0 352 47 c 0,15,16
 327 65 327 65 316 88 c 128,-1,17
 305 111 305 111 305 135 c 0,18,19
 305 158 305 158 307 168 c 2,20,-1
 365 440 l 2,21,22
 381 526 381 526 461 580 c 1,23,24
 527 633 527 633 629 633 c 2,25,-1
 1040 633 l 2,26,27
 1099 633 1099 633 1153 580 c 1,28,-1
 1257 1077 l 1,29,30
 1261 1116 1261 1116 1245 1139 c 1,31,32
 1222 1162 1222 1162 1198 1161 c 2,33,-1
 989 1161 l 2,34,35
 973 1161 973 1161 950 1147 c 1,36,37
 927 1122 927 1122 926 1094 c 1,38,-1
 879 864 l 1,39,-1
 602 864 l 1,40,-1
 668 1174 l 1,41,42
 684 1274 684 1274 772 1331 c 1,43,44
 811 1362 811 1362 862 1377.5 c 128,-1,45
 913 1393 913 1393 965 1393 c 2,46,-1
 1333 1393 l 2,47,48
 1444 1393 1444 1393 1503 1313 c 0,49,50
 1548 1256 1548 1256 1548 1176 c 0,51,52
 1548 1162 1548 1162 1544 1116 c 1,53,-1
 1399 430 l 1,54,-1
 1532 299 l 1,55,56
 1589 260 1589 260 1639.5 240.5 c 128,-1,57
 1690 221 1690 221 1741 221 c 2,58,-1
 1815 221 l 2,59,60
 1833 221 1833 221 1851.5 236.5 c 128,-1,61
 1870 252 1870 252 1872 270 c 2,62,-1
 2083 1278 l 1,63,64
 2091 1307 2091 1307 2082 1326.5 c 128,-1,65
 2073 1346 2073 1346 2054 1346 c 2,66,-1
 1980 1346 l 2,67,68
 1951 1346 1951 1346 1944 1343 c 1,69,-1
 1939 1333 l 1,70,-1
 1929 1294 l 1,71,72
 1929 1255 1929 1255 1934 1247 c 128,-1,73
 1939 1239 1939 1239 1944.5 1235 c 128,-1,74
 1950 1231 1950 1231 1954 1231 c 2,75,-1
 2064 1231 l 1,76,-1
 2013 999 l 1,77,-1
 1798 999 l 2,78,79
 1712 999 1712 999 1665 1065 c 1,80,81
 1628 1110 1628 1110 1628 1163 c 0,82,83
 1628 1177 1628 1177 1632 1210 c 1,84,-1
 1671 1399 l 2,85,86
 1687 1475 1687 1475 1767 1528 c 1,87,88
 1853 1579 1853 1579 1954 1579 c 2,89,-1
 2187 1579 l 2,90,91
 2287 1579 2287 1579 2341 1507 c 0,92,93
 2380 1454 2380 1454 2380 1393 c 0,94,95
 2380 1364 2380 1364 2372 1333 c 2,96,-1
 2140 233 l 1,0,1
1077 283 m 2,97,-1
 1085 313 l 1,98,99
 1003 395 1003 395 922 395 c 2,100,-1
 674 395 l 2,101,102
 641 395 641 395 631 391 c 1,103,-1
 623 383 l 1,104,-1
 600 272 l 1,105,-1
 600 236 l 1,106,-1
 610 221 l 1,107,-1
 993 221 l 2,108,109
 1011 221 1011 221 1042 240.5 c 128,-1,110
 1073 260 1073 260 1077 283 c 2,97,-1
EndSplineSet
LCarets2: 1 0
EndChar

StartChar: kha.sub
Encoding: 127 -1 127
Width: 333
Flags: W
AnchorPoint: "Sub" -635 379 mark 0
AnchorPoint: "Sub" 442 -764 basemark 0
LayerCount: 2
Fore
SplineSet
582 -475 m 1,0,1
 553 -594 553 -594 440.5 -688 c 128,-1,2
 328 -782 328 -782 199 -782 c 2,3,-1
 55 -782 l 2,4,5
 18 -782 18 -782 -98 -739 c 1,6,7
 -258 -835 -258 -835 -340 -836 c 2,8,-1
 -649 -836 l 2,9,10
 -731 -836 -731 -836 -788 -784 c 0,11,12
 -831 -745 -831 -745 -831 -698 c 0,13,14
 -831 -688 -831 -688 -827 -666 c 2,15,-1
 -803 -547 l 2,16,17
 -787 -465 -787 -465 -713 -408 c 0,18,19
 -676 -379 -676 -379 -638 -366.5 c 128,-1,20
 -600 -354 -600 -354 -553 -354 c 2,21,-1
 -319 -354 l 2,22,23
 -274 -354 -274 -354 -258 -369 c 2,24,-1
 -162 -440 l 1,25,-1
 -137 -315 l 2,26,27
 -129 -278 -129 -278 -147 -248 c 1,28,29
 -172 -223 -172 -223 -205 -223 c 1,30,-1
 -227 -328 l 1,31,-1
 -473 -328 l 1,32,-1
 -408 -29 l 1,33,-1
 -109 -29 l 2,34,35
 20 -29 20 -29 76 -111 c 1,36,37
 121 -172 121 -172 121 -258 c 0,38,39
 121 -295 121 -295 117 -313 c 2,40,-1
 59 -575 l 1,41,42
 75 -585 75 -585 86.5 -587.5 c 128,-1,43
 98 -590 98 -590 113 -590 c 2,44,-1
 229 -590 l 2,45,46
 258 -590 258 -590 276.5 -563.5 c 128,-1,47
 295 -537 295 -537 307 -514.5 c 128,-1,48
 319 -492 319 -492 324 -467 c 2,49,-1
 500 379 l 2,50,51
 504 404 504 404 478.5 427.5 c 128,-1,52
 453 451 453 451 399 451 c 2,53,-1
 262 451 l 1,54,-1
 307 664 l 1,55,-1
 465 664 l 2,56,57
 602 664 602 664 690 590 c 1,58,59
 758 522 758 522 758 440 c 0,60,61
 758 424 758 424 754 395 c 2,62,-1
 582 -475 l 1,0,1
-293 -627 m 1,63,64
 -365 -570 -365 -570 -436 -569 c 2,65,-1
 -563 -569 l 2,66,67
 -586 -569 -586 -569 -588 -573 c 2,68,-1
 -598 -639 l 1,69,-1
 -580 -643 l 1,70,-1
 -342 -643 l 1,71,-1
 -293 -627 l 1,63,64
EndSplineSet
LCarets2: 1 0
EndChar

StartChar: ga.base
Encoding: 129 -1 129
Width: 1183
Flags: W
LayerCount: 2
Fore
SplineSet
1614 0 m 1,0,-1
 1339 0 l 1,1,-1
 1548 987 l 2,2,3
 1550 995 1550 995 1550 1014 c 0,4,5
 1550 1045 1550 1045 1536 1073 c 0,6,7
 1513 1118 1513 1118 1477.5 1136.5 c 128,-1,8
 1442 1155 1442 1155 1420.5 1157 c 128,-1,9
 1399 1159 1399 1159 1360 1159 c 2,10,-1
 1141 1159 l 2,11,12
 1047 1159 1047 1159 978 1109 c 128,-1,13
 909 1059 909 1059 893 983 c 2,14,-1
 684 -4 l 1,15,-1
 403 -4 l 1,16,-1
 614 995 l 2,17,18
 632 1089 632 1089 727 1161 c 1,19,-1
 651 1161 l 1,20,-1
 698 1393 l 1,21,-1
 1542 1393 l 1,22,23
 1696 1360 1696 1360 1778 1245 c 1,24,25
 1829 1159 1829 1159 1829 1065 c 0,26,27
 1829 1028 1829 1028 1821 985 c 2,28,-1
 1614 0 l 1,0,-1
EndSplineSet
EndChar

StartChar: ga.imathra
Encoding: 130 -1 130
Width: 1566
Flags: W
LayerCount: 2
Fore
SplineSet
1645 0 m 1,0,-1
 1368 0 l 1,1,-1
 1579 997 l 2,2,3
 1583 1026 1583 1026 1583 1040 c 0,4,5
 1583 1091 1583 1091 1554.5 1132.5 c 128,-1,6
 1526 1174 1526 1174 1458 1174 c 2,7,-1
 1077 1174 l 2,8,9
 1009 1174 1009 1174 965 1128 c 1,10,11
 912 1083 912 1083 897 1010 c 2,12,-1
 682 2 l 1,13,-1
 401 2 l 1,14,-1
 612 999 l 2,15,16
 635 1110 635 1110 702 1186 c 1,17,18
 747 1247 747 1247 819 1290 c 1,19,20
 772 1308 772 1308 741 1354 c 1,21,22
 712 1385 712 1385 713 1438 c 0,23,24
 713 1467 713 1467 715 1481 c 2,25,-1
 745 1618 l 2,26,27
 761 1700 761 1700 844.5 1755 c 128,-1,28
 928 1810 928 1810 1028 1810 c 2,29,-1
 1419 1810 l 2,30,31
 1587 1810 1587 1810 1706 1726 c 128,-1,32
 1825 1642 1825 1642 1878 1491 c 1,33,34
 1903 1401 1903 1401 1903 1311 c 0,35,36
 1903 1252 1903 1252 1888 1165 c 1,37,-1
 1645 0 l 1,0,-1
1628 1360 m 1,38,39
 1612 1440 1612 1440 1550 1499 c 1,40,41
 1454 1579 1454 1579 1303 1579 c 2,42,-1
 1098 1579 l 2,43,44
 1016 1579 1016 1579 1012 1548 c 1,45,-1
 997 1483 l 1,46,47
 993 1444 993 1444 997 1430 c 0,48,49
 999 1420 999 1420 1003.5 1414.5 c 128,-1,50
 1008 1409 1008 1409 1010 1407 c 1,51,-1
 1507 1407 l 2,52,53
 1589 1407 1589 1407 1628 1360 c 1,38,39
EndSplineSet
LCarets2: 1 0
EndChar

StartChar: ga.sub
Encoding: 131 -1 131
Width: 202
Flags: W
AnchorPoint: "Sub" -455 -131 mark 0
AnchorPoint: "Sub" 242 -885 basemark 0
LayerCount: 2
Fore
SplineSet
262 -840 m 1,0,-1
 14 -840 l 1,1,-1
 109 -395 l 1,2,3
 111 -364 111 -364 88.5 -338.5 c 128,-1,4
 66 -313 66 -313 29 -313 c 2,5,-1
 -145 -313 l 2,6,7
 -190 -313 -190 -313 -221 -332 c 1,8,9
 -252 -363 -252 -363 -254 -393 c 1,10,-1
 -348 -838 l 1,11,-1
 -600 -838 l 1,12,-1
 -506 -393 l 2,13,14
 -481 -270 -481 -270 -377 -190 c 1,15,16
 -281 -110 -281 -110 -152 -111 c 2,17,-1
 100 -111 l 2,18,19
 229 -111 229 -111 309 -182 c 0,20,21
 368 -233 368 -233 369 -317 c 0,22,23
 369 -331 369 -331 365 -365 c 1,24,-1
 262 -840 l 1,0,-1
EndSplineSet
LCarets2: 1 0
EndChar

StartChar: gha.base
Encoding: 133 -1 133
Width: 2086
Flags: W
LayerCount: 2
Fore
SplineSet
2796 1165 m 1,0,-1
 2161 1165 l 1,1,2
 2184 1134 2184 1134 2192 1094.5 c 128,-1,3
 2200 1055 2200 1055 2200 999 c 1,4,5
 2261 856 2261 856 2335 856 c 1,6,7
 2374 858 2374 858 2398 877 c 1,8,9
 2429 908 2429 908 2429 911 c 2,10,-1
 2474 1122 l 1,11,-1
 2748 1122 l 1,12,-1
 2710 940 l 2,13,14
 2700 893 2700 893 2677 842 c 0,15,16
 2669 826 2669 826 2644 782 c 1,17,18
 2593 708 2593 708 2527 666 c 1,19,20
 2451 623 2451 623 2392 623 c 2,21,-1
 2275 625 l 2,22,23
 2195 625 2195 625 2136 676 c 1,24,-1
 2050 289 l 1,25,26
 2025 164 2025 164 1931 84 c 1,27,28
 1841 -6 1841 -6 1733 -6 c 2,29,-1
 1380 -6 l 2,30,31
 1292 -6 1292 -6 1241 55 c 0,32,33
 1237 59 1237 59 1214.5 88 c 128,-1,34
 1192 117 1192 117 1184 147 c 1,35,36
 1147 94 1147 94 1087 55 c 1,37,38
 1015 -6 1015 -6 934 -6 c 2,39,-1
 567 -4 l 2,40,41
 471 -4 471 -4 420 72 c 0,42,43
 389 119 389 119 389 186 c 0,44,45
 389 204 389 204 393 244 c 1,46,-1
 522 848 l 1,47,-1
 864 848 l 2,48,49
 989 848 989 848 1049 774 c 1,50,51
 1102 717 1102 717 1102 637 c 0,52,53
 1102 619 1102 619 1098 586 c 1,54,-1
 1081 512 l 1,55,-1
 801 512 l 1,56,-1
 815 573 l 1,57,58
 817 591 817 591 809 603.5 c 128,-1,59
 801 616 801 616 772 616 c 2,60,-1
 750 616 l 1,61,-1
 684 303 l 2,62,63
 676 272 676 272 686 248 c 1,64,65
 711 223 711 223 719 223 c 2,66,-1
 952 223 l 2,67,68
 991 223 991 223 1030 276 c 1,69,70
 1081 335 1081 335 1098 412 c 2,71,-1
 1130 573 l 1,72,-1
 1407 573 l 1,73,-1
 1374 412 l 2,74,75
 1372 398 1372 398 1372 369 c 0,76,77
 1372 330 1372 330 1389 287 c 1,78,79
 1422 221 1422 221 1454 221 c 2,80,-1
 1688 221 l 2,81,82
 1704 221 1704 221 1733.5 242.5 c 128,-1,83
 1763 264 1763 264 1772 303 c 2,84,-1
 1909 956 l 2,85,86
 1911 966 1911 966 1911 989 c 0,87,88
 1911 1050 1911 1050 1864 1098 c 0,89,90
 1805 1157 1805 1157 1700 1157 c 2,91,-1
 578 1157 l 1,92,-1
 625 1389 l 1,93,-1
 2843 1389 l 1,94,-1
 2796 1165 l 1,0,-1
1452 803 m 1,95,-1
 1176 803 l 1,96,-1
 1229 1063 l 1,97,-1
 1505 1063 l 1,98,-1
 1452 803 l 1,95,-1
1217 -301 m 1,99,-1
 940 -301 l 1,100,-1
 1008 12 l 1,101,-1
 1284 12 l 1,102,-1
 1217 -301 l 1,99,-1
EndSplineSet
EndChar

StartChar: gha.imathra
Encoding: 134 -1 134
Width: 2484
Flags: W
LayerCount: 2
Fore
SplineSet
1548 1223 m 2,0,1
 1525 1119 1525 1119 1444 1053 c 1,2,3
 1368 985 1368 985 1274 985 c 2,4,-1
 870 985 l 1,5,-1
 918 1217 l 1,6,-1
 1227 1217 l 1,7,8
 1250 1221 1250 1221 1261 1233 c 128,-1,9
 1272 1245 1272 1245 1276 1253.5 c 128,-1,10
 1280 1262 1280 1262 1282 1276 c 2,11,-1
 1329 1509 l 2,12,13
 1337 1546 1337 1546 1329 1565 c 0,14,15
 1321 1579 1321 1579 1307 1579 c 2,16,-1
 1202 1579 l 2,17,18
 1184 1579 1184 1579 1182 1565 c 2,19,-1
 1171 1507 l 1,20,-1
 1171 1493 l 1,21,-1
 1186 1485 l 1,22,-1
 1315 1485 l 1,23,-1
 1264 1251 l 1,24,-1
 1051 1251 l 2,25,26
 971 1251 971 1251 920 1311 c 1,27,28
 881 1350 881 1350 881 1403 c 0,29,30
 881 1426 881 1426 883 1440 c 2,31,-1
 915 1591 l 1,32,33
 931 1691 931 1691 1018 1749 c 1,34,35
 1098 1810 1098 1810 1198 1810 c 2,36,-1
 1479 1810 l 2,37,38
 1565 1810 1565 1810 1608 1749 c 1,39,40
 1639 1716 1639 1716 1638 1655 c 0,41,42
 1638 1622 1638 1622 1634 1604 c 2,43,-1
 1548 1223 l 2,0,1
2779 948 m 2,44,45
 2756 831 2756 831 2673.5 755.5 c 128,-1,46
 2591 680 2591 680 2494 680 c 2,47,-1
 2292 680 l 2,48,49
 2212 680 2212 680 2154 737 c 1,50,-1
 2058 295 l 2,51,52
 2029 172 2029 172 1935 86 c 1,53,54
 1847 -2 1847 -2 1739 -2 c 1,55,-1
 1747 37 l 1,56,-1
 1745 -2 l 1,57,-1
 1393 0 l 2,58,59
 1307 0 1307 0 1245 47 c 0,60,61
 1202 80 1202 80 1188 127 c 1,62,63
 1145 76 1145 76 1094 43 c 1,64,65
 1014 -4 1014 -4 938 -4 c 2,66,-1
 575 -2 l 2,67,68
 479 -2 479 -2 432 63 c 1,69,70
 395 108 395 108 395 168 c 0,71,72
 395 205 395 205 399 221 c 2,73,-1
 532 856 l 1,74,-1
 877 856 l 2,75,76
 996 856 996 856 1061 788 c 0,77,78
 1118 731 1118 731 1118 659 c 0,79,80
 1118 645 1118 645 1114 616 c 1,81,-1
 1092 514 l 1,82,-1
 811 514 l 1,83,-1
 829 604 l 1,84,-1
 819 614 l 1,85,86
 809 618 809 618 778 618 c 2,87,-1
 762 618 l 1,88,-1
 696 303 l 2,89,90
 688 272 688 272 700.5 246.5 c 128,-1,91
 713 221 713 221 727 221 c 2,92,-1
 961 221 l 2,93,94
 1006 221 1006 221 1044 274 c 1,95,96
 1095 327 1095 327 1112 410 c 2,97,-1
 1145 575 l 1,98,-1
 1421 575 l 1,99,-1
 1384 410 l 1,100,101
 1376 344 1376 344 1407 285 c 1,102,103
 1436 219 1436 219 1468 219 c 2,104,-1
 1702 219 l 2,105,106
 1727 219 1727 219 1752.5 244.5 c 128,-1,107
 1778 270 1778 270 1786 301 c 2,108,-1
 1952 1077 l 1,109,110
 1954 1114 1954 1114 1935.5 1137.5 c 128,-1,111
 1917 1161 1917 1161 1872 1161 c 2,112,-1
 1686 1161 l 1,113,-1
 1733 1395 l 1,114,-1
 1991 1395 l 2,115,116
 2079 1395 2079 1395 2136 1344.5 c 128,-1,117
 2193 1294 2193 1294 2216 1221 c 1,118,119
 2226 1176 2226 1176 2226 1118 c 0,120,121
 2226 1073 2226 1073 2222 1051 c 1,122,123
 2294 906 2294 906 2351 905 c 2,124,-1
 2456 905 l 2,125,126
 2466 905 2466 905 2482.5 926.5 c 128,-1,127
 2499 948 2499 948 2513 995 c 1,128,-1
 2595 1397 l 1,129,-1
 2869 1397 l 1,130,-1
 2779 948 l 2,44,45
1212 -346 m 1,131,-1
 936 -346 l 1,132,-1
 1004 -33 l 1,133,-1
 1280 -33 l 1,134,-1
 1212 -346 l 1,131,-1
EndSplineSet
LCarets2: 1 0
EndChar

StartChar: gha.sub
Encoding: 135 -1 135
Width: 430
Flags: W
AnchorPoint: "Sub" -561 166 mark 0
AnchorPoint: "Sub" 602 -690 basemark 0
LayerCount: 2
Fore
SplineSet
862 -76 m 2,0,1
 833 -223 833 -223 668 -311 c 1,2,-1
 631 -477 l 2,3,4
 621 -528 621 -528 599.5 -564 c 128,-1,5
 578 -600 578 -600 535 -639 c 0,6,7
 455 -711 455 -711 354 -711 c 2,8,-1
 43 -711 l 2,9,10
 -33 -711 -33 -711 -94 -664 c 0,11,12
 -139 -631 -139 -631 -170 -569 c 1,13,14
 -201 -602 -201 -602 -233.5 -628.5 c 128,-1,15
 -266 -655 -266 -655 -303 -672 c 1,16,17
 -399 -729 -399 -729 -479 -729 c 2,18,-1
 -784 -729 l 2,19,20
 -878 -729 -878 -729 -923.5 -675 c 128,-1,21
 -969 -621 -969 -621 -969 -569 c 0,22,23
 -969 -544 -969 -544 -967 -530 c 2,24,-1
 -928 -344 l 2,25,26
 -905 -242 -905 -242 -829 -190 c 1,27,28
 -755 -129 -755 -129 -662 -129 c 2,29,-1
 -344 -129 l 1,30,-1
 -383 -330 l 1,31,-1
 -625 -330 l 2,32,33
 -650 -330 -650 -330 -666 -342 c 128,-1,34
 -682 -354 -682 -354 -684 -373 c 2,35,-1
 -709 -492 l 1,36,-1
 -705 -514 l 1,37,38
 -689 -524 -689 -524 -680 -524 c 2,39,-1
 -414 -524 l 2,40,41
 -396 -524 -396 -524 -367 -502.5 c 128,-1,42
 -338 -481 -338 -481 -322 -465 c 0,43,44
 -256 -404 -256 -404 -248 -358 c 2,45,-1
 -229 -262 l 1,46,-1
 23 -262 l 1,47,-1
 0 -373 l 2,48,49
 -8 -412 -8 -412 29 -455 c 1,50,51
 52 -478 52 -478 70 -489 c 128,-1,52
 88 -500 88 -500 113 -500 c 2,53,-1
 358 -500 l 2,54,55
 383 -500 383 -500 387 -467 c 1,56,-1
 406 -381 l 1,57,-1
 174 -381 l 1,58,-1
 217 -178 l 1,59,-1
 500 -178 l 2,60,61
 533 -178 533 -178 572.5 -143.5 c 128,-1,62
 612 -109 612 -109 621 -70 c 2,63,-1
 651 82 l 2,64,65
 653 96 653 96 551 170 c 1,66,-1
 727 332 l 1,67,68
 915 199 915 199 897 94 c 1,69,-1
 862 -76 l 2,0,1
-109 -840 m 1,70,-1
 -360 -840 l 1,71,-1
 -330 -686 l 1,72,-1
 -172 -547 l 1,73,-1
 -82 -686 l 1,74,-1
 -109 -840 l 1,70,-1
EndSplineSet
LCarets2: 1 0
EndChar

StartChar: nga
Encoding: 136 3225 136
Width: 1873
Flags: W
LayerCount: 2
Fore
SplineSet
2015 238 m 2,0,1
 1997 142 1997 142 1911 74 c 1,2,3
 1831 2 1831 2 1737 2 c 2,4,-1
 1325 4 l 2,5,6
 1253 4 1253 4 1196 47 c 0,7,8
 1165 72 1165 72 1149 117 c 1,9,10
 1126 80 1126 80 1079 47 c 0,11,12
 1018 2 1018 2 952 2 c 2,13,-1
 557 4 l 2,14,15
 506 4 506 4 470 17.5 c 128,-1,16
 434 31 434 31 397 61 c 1,17,18
 352 112 352 112 352 170 c 0,19,20
 352 180 352 180 356 209 c 2,21,-1
 418 510 l 1,22,-1
 928 850 l 1,23,24
 971 875 971 875 981 940 c 1,25,-1
 1014 1102 l 1,26,27
 1022 1125 1022 1125 998.5 1141 c 128,-1,28
 975 1157 975 1157 932 1157 c 2,29,-1
 838 1157 l 1,30,-1
 823 1100 l 1,31,32
 819 1069 819 1069 829 1059 c 0,33,34
 831 1057 831 1057 836.5 1049.5 c 128,-1,35
 842 1042 842 1042 844 1040 c 1,36,-1
 897 1040 l 1,37,-1
 846 809 l 1,38,-1
 678 811 l 2,39,40
 598 811 598 811 553 879 c 0,41,42
 522 924 522 924 522 985 c 0,43,44
 522 999 522 999 526 1032 c 1,45,-1
 602 1386 l 1,46,-1
 1022 1386 l 2,47,48
 1126 1386 1126 1386 1198 1348 c 0,49,50
 1255 1317 1255 1317 1264 1264 c 1,51,52
 1426 1389 1426 1389 1577 1389 c 2,53,-1
 2017 1389 l 2,54,55
 2097 1389 2097 1389 2134 1341 c 1,56,57
 2163 1290 2163 1290 2163 1247 c 0,58,59
 2163 1233 2163 1233 2159 1210 c 2,60,-1
 2122 1024 l 1,61,-1
 1845 1024 l 1,62,-1
 1862 1114 l 2,63,64
 1864 1130 1864 1130 1859.5 1139.5 c 128,-1,65
 1855 1149 1855 1149 1840 1151 c 128,-1,66
 1825 1153 1825 1153 1823 1153 c 2,67,-1
 1599 1153 l 2,68,69
 1540 1153 1540 1153 1496 1144 c 128,-1,70
 1452 1135 1452 1135 1404 1111 c 128,-1,71
 1356 1087 1356 1087 1313 1056.5 c 128,-1,72
 1270 1026 1270 1026 1239 987 c 1,73,-1
 1214 877 l 2,74,75
 1183 732 1183 732 1073 670 c 1,76,-1
 670 381 l 1,77,-1
 651 281 l 2,78,79
 649 265 649 265 668.5 248 c 128,-1,80
 688 231 688 231 721 231 c 2,81,-1
 907 231 l 2,82,83
 954 231 954 231 999 258 c 128,-1,84
 1044 285 1044 285 1053 317 c 2,85,-1
 1077 442 l 1,86,-1
 1354 442 l 1,87,-1
 1329 317 l 2,88,89
 1321 284 1321 284 1343 260 c 1,90,91
 1380 231 1380 231 1432 231 c 2,92,-1
 1694 231 l 2,93,94
 1712 231 1712 231 1720 236 c 1,95,-1
 1737 264 l 1,96,-1
 1794 537 l 2,97,98
 1796 551 1796 551 1798 573.5 c 128,-1,99
 1800 596 1800 596 1786 596 c 2,100,-1
 1599 596 l 1,101,-1
 1647 825 l 1,102,-1
 1901 825 l 2,103,104
 1973 825 1973 825 2011 795 c 1,105,106
 2058 772 2058 772 2077 721 c 1,107,108
 2085 688 2085 688 2085 655 c 0,109,110
 2085 639 2085 639 2081 610 c 2,111,-1
 2015 238 l 2,0,1
1356 520 m 1,112,-1
 1079 520 l 1,113,-1
 1137 780 l 1,114,-1
 1413 780 l 1,115,-1
 1356 520 l 1,112,-1
EndSplineSet
LCarets2: 1 0
EndChar

StartChar: nga.sub
Encoding: 137 -1 137
Width: 401
Flags: W
AnchorPoint: "Sub" -856 -66 mark 0
AnchorPoint: "Sub" 668 -811 basemark 0
LayerCount: 2
Fore
SplineSet
57 -467 m 1,0,-1
 -188 -467 l 1,1,-1
 -152 -295 l 1,2,-1
 94 -295 l 1,3,-1
 57 -467 l 1,0,-1
684 -643 m 1,4,5
 668 -729 668 -729 596 -776 c 1,6,7
 522 -835 522 -835 446 -836 c 2,8,-1
 37 -836 l 2,9,10
 4 -836 4 -836 -22.5 -824.5 c 128,-1,11
 -49 -813 -49 -813 -74.5 -793.5 c 128,-1,12
 -100 -774 -100 -774 -115 -743 c 1,13,14
 -138 -768 -138 -768 -182 -797 c 0,15,16
 -207 -811 -207 -811 -237.5 -823.5 c 128,-1,17
 -268 -836 -268 -836 -307 -836 c 2,18,-1
 -748 -836 l 2,19,20
 -834 -836 -834 -836 -886 -788.5 c 128,-1,21
 -938 -741 -938 -741 -938 -690 c 0,22,23
 -938 -667 -938 -667 -936 -657 c 2,24,-1
 -905 -512 l 2,25,26
 -889 -438 -889 -438 -824.5 -394 c 128,-1,27
 -760 -350 -760 -350 -674 -350 c 2,28,-1
 -528 -350 l 1,29,-1
 -518 -342 l 1,30,-1
 -510 -295 l 1,31,-1
 -514 -287 l 1,32,-1
 -829 -287 l 1,33,-1
 -786 -90 l 1,34,-1
 -383 -90 l 2,35,36
 -324 -90 -324 -90 -291 -115 c 0,37,38
 -277 -125 -277 -125 -266 -150 c 1,39,40
 -194 -89 -194 -89 -92 -88 c 2,41,-1
 260 -88 l 2,42,43
 354 -88 354 -88 408 -133 c 1,44,45
 451 -166 451 -166 451 -227 c 0,46,47
 451 -245 451 -245 449 -256 c 2,48,-1
 420 -383 l 1,49,-1
 174 -383 l 1,50,-1
 197 -283 l 1,51,52
 199 -260 199 -260 139 -260 c 2,53,-1
 -94 -260 l 2,54,55
 -145 -260 -145 -260 -193 -293 c 1,56,57
 -244 -318 -244 -318 -276 -371 c 1,58,-1
 -291 -436 l 2,59,60
 -299 -473 -299 -473 -354.5 -506 c 128,-1,61
 -410 -539 -410 -539 -469 -539 c 2,62,-1
 -631 -539 l 2,63,64
 -662 -539 -662 -539 -664 -553 c 2,65,-1
 -674 -604 l 1,66,-1
 -670 -614 l 1,67,-1
 -647 -625 l 1,68,-1
 -309 -625 l 2,69,70
 -270 -625 -270 -625 -236.5 -605.5 c 128,-1,71
 -203 -586 -203 -586 -201 -567 c 2,72,-1
 -182 -471 l 1,73,-1
 63 -471 l 1,74,-1
 47 -553 l 2,75,76
 39 -590 39 -590 61 -606 c 1,77,78
 92 -637 92 -637 123 -637 c 2,79,-1
 406 -637 l 2,80,81
 429 -637 429 -637 438 -623 c 2,82,-1
 461 -594 l 1,83,-1
 492 -442 l 1,84,-1
 729 -442 l 1,85,-1
 684 -643 l 1,4,5
EndSplineSet
LCarets2: 1 0
EndChar

StartChar: ca.base
Encoding: 139 -1 139
Width: 1677
Flags: W
LayerCount: 2
Fore
SplineSet
2259 678 m 1,0,-1
 2056 678 l 1,1,2
 2070 649 2070 649 2071 621 c 0,3,4
 2071 603 2071 603 2068 594 c 2,5,-1
 1995 240 l 2,6,7
 1972 140 1972 140 1884 74 c 1,8,9
 1798 2 1798 2 1698 2 c 2,10,-1
 1274 4 l 2,11,12
 1208 4 1208 4 1165 37 c 0,13,14
 1147 53 1147 53 1133 78 c 1,15,16
 1115 53 1115 53 1077 37 c 1,17,18
 1011 0 1011 0 938 0 c 2,19,-1
 575 2 l 2,20,21
 466 2 466 2 416 76 c 1,22,23
 369 133 369 133 369 205 c 0,24,25
 369 219 369 219 373 252 c 1,26,-1
 438 561 l 1,27,-1
 938 834 l 1,28,-1
 991 1094 l 1,29,30
 999 1123 999 1123 980 1142 c 128,-1,31
 961 1161 961 1161 924 1161 c 2,32,-1
 848 1161 l 1,33,-1
 831 1096 l 1,34,35
 829 1071 829 1071 843.5 1056.5 c 128,-1,36
 858 1042 858 1042 872 1042 c 2,37,-1
 940 1042 l 1,38,-1
 889 811 l 1,39,-1
 707 813 l 2,40,41
 621 813 621 813 569 874 c 1,42,43
 532 913 532 913 532 975 c 0,44,45
 532 989 532 989 537 1018 c 2,46,-1
 616 1389 l 1,47,-1
 1092 1389 l 2,48,49
 1194 1389 1194 1389 1245 1317 c 1,50,51
 1288 1266 1288 1266 1288 1194 c 0,52,53
 1288 1161 1288 1161 1284 1145 c 2,54,-1
 1194 700 l 1,55,-1
 690 412 l 1,56,-1
 668 317 l 1,57,58
 666 274 666 274 678 250.5 c 128,-1,59
 690 227 690 227 719 227 c 2,60,-1
 963 227 l 2,61,62
 1000 227 1000 227 1029.5 246.5 c 128,-1,63
 1059 266 1059 266 1061 289 c 1,64,-1
 1092 440 l 1,65,-1
 1368 440 l 1,66,-1
 1343 315 l 2,67,68
 1341 305 1341 305 1341 287 c 0,69,70
 1341 271 1341 271 1352.5 251 c 128,-1,71
 1364 231 1364 231 1386 231 c 2,72,-1
 1632 231 l 2,73,74
 1671 231 1671 231 1701 250.5 c 128,-1,75
 1731 270 1731 270 1733 293 c 1,76,-1
 1792 580 l 2,77,78
 1802 625 1802 625 1774 647 c 1,79,80
 1758 676 1758 676 1714 676 c 2,81,-1
 1403 676 l 1,82,-1
 1454 907 l 1,83,-1
 1815 907 l 1,84,-1
 1868 1161 l 1,85,-1
 1507 1161 l 1,86,-1
 1554 1393 l 1,87,-1
 2052 1393 l 1,88,-1
 2146 1190 l 1,89,-1
 2089 907 l 1,90,-1
 2312 907 l 1,91,-1
 2259 678 l 1,0,-1
EndSplineSet
EndChar

StartChar: ca.imathra
Encoding: 140 -1 140
Width: 2039
Flags: W
LayerCount: 2
Fore
SplineSet
2273 682 m 1,0,-1
 2071 682 l 1,1,2
 2081 659 2081 659 2081 629 c 0,3,4
 2081 606 2081 606 2079 596 c 2,5,-1
 2005 244 l 2,6,7
 1987 154 1987 154 1919 80 c 1,8,9
 1845 6 1845 6 1769 6 c 2,10,-1
 1286 8 l 2,11,12
 1225 8 1225 8 1186 45 c 0,13,14
 1168 61 1168 61 1153 84 c 1,15,16
 1137 66 1137 66 1098 47 c 1,17,18
 1028 8 1028 8 961 8 c 2,19,-1
 565 8 l 2,20,21
 471 8 471 8 420 68 c 0,22,23
 381 111 381 111 381 170 c 0,24,25
 381 193 381 193 383 207 c 2,26,-1
 465 602 l 1,27,-1
 956 848 l 1,28,-1
 1014 1108 l 1,29,30
 1018 1141 1018 1141 999 1155 c 1,31,32
 981 1173 981 1173 944 1174 c 2,33,-1
 868 1174 l 1,34,-1
 854 1106 l 2,35,36
 850 1083 850 1083 858 1069 c 1,37,38
 874 1053 874 1053 891 1053 c 2,39,-1
 987 1053 l 1,40,-1
 940 821 l 1,41,-1
 725 821 l 2,42,43
 637 821 637 821 594 881 c 1,44,45
 555 920 555 920 555 973 c 0,46,47
 555 996 555 996 557 1006 c 2,48,-1
 639 1403 l 1,49,-1
 1130 1403 l 2,50,51
 1230 1403 1230 1403 1276 1335 c 1,52,53
 1309 1278 1309 1278 1309 1210 c 0,54,55
 1309 1181 1309 1181 1307 1167 c 2,56,-1
 1210 709 l 1,57,-1
 713 449 l 1,58,-1
 680 301 l 1,59,60
 680 272 680 272 694.5 254 c 128,-1,61
 709 236 709 236 733 236 c 2,62,-1
 950 236 l 2,63,64
 997 236 997 236 1035 255 c 128,-1,65
 1073 274 1073 274 1075 297 c 1,66,-1
 1118 506 l 1,67,-1
 1395 506 l 1,68,-1
 1358 324 l 2,69,70
 1350 291 1350 291 1366 264.5 c 128,-1,71
 1382 238 1382 238 1399 238 c 2,72,-1
 1675 238 l 2,73,74
 1698 238 1698 238 1720.5 257 c 128,-1,75
 1743 276 1743 276 1745 299 c 1,76,-1
 1804 588 l 2,77,78
 1812 621 1812 621 1796 645 c 1,79,80
 1782 659 1782 659 1770.5 668.5 c 128,-1,81
 1759 678 1759 678 1737 682 c 1,82,-1
 1417 680 l 1,83,-1
 1464 911 l 1,84,-1
 1798 911 l 1,85,86
 1880 944 1880 944 1894 1001 c 1,87,-1
 1968 1354 l 2,88,89
 1968 1356 1968 1356 1911 1356 c 2,90,-1
 1827 1356 l 1,91,92
 1829 1338 1829 1338 1827 1321 c 2,93,-1
 1819 1274 l 2,94,95
 1817 1264 1817 1264 1831 1252.5 c 128,-1,96
 1845 1241 1845 1241 1855 1241 c 2,97,-1
 1958 1241 l 1,98,-1
 1911 1010 l 1,99,-1
 1679 1010 l 2,100,101
 1603 1010 1603 1010 1556 1067 c 0,102,103
 1523 1106 1523 1106 1524 1153 c 0,104,105
 1524 1163 1524 1163 1528 1192 c 2,106,-1
 1573 1409 l 2,107,108
 1591 1491 1591 1491 1655.5 1541 c 128,-1,109
 1720 1591 1720 1591 1802 1591 c 2,110,-1
 2079 1591 l 2,111,112
 2173 1591 2173 1591 2218 1526 c 1,113,114
 2255 1481 2255 1481 2255 1419 c 0,115,116
 2255 1405 2255 1405 2251 1372 c 1,117,-1
 2177 1030 l 1,118,119
 2167 971 2167 971 2122 918 c 1,120,-1
 2331 918 l 1,121,-1
 2273 682 l 1,0,-1
EndSplineSet
LCarets2: 1 0
EndChar

StartChar: ca.sub
Encoding: 141 -1 141
Width: 401
Flags: W
AnchorPoint: "Sub" -676 276 mark 0
AnchorPoint: "Sub" 547 -815 basemark 0
LayerCount: 2
Fore
SplineSet
754 -324 m 1,0,-1
 625 -324 l 1,1,2
 643 -353 643 -353 643 -397 c 0,3,4
 643 -407 643 -407 639 -440 c 1,5,-1
 600 -629 l 2,6,7
 584 -711 584 -711 511 -769 c 128,-1,8
 438 -827 438 -827 362 -827 c 2,9,-1
 68 -827 l 2,10,11
 -22 -827 -22 -827 -84 -782 c 0,12,13
 -123 -751 -123 -751 -139 -707 c 1,14,15
 -176 -758 -176 -758 -229 -786 c 1,16,17
 -262 -800 -262 -800 -309 -814.5 c 128,-1,18
 -356 -829 -356 -829 -393 -829 c 2,19,-1
 -707 -829 l 1,20,21
 -773 -833 -773 -833 -809.5 -824 c 128,-1,22
 -846 -815 -846 -815 -889 -793 c 1,23,24
 -918 -775 -918 -775 -930 -742 c 128,-1,25
 -942 -709 -942 -709 -938 -680 c 1,26,-1
 -899 -504 l 2,27,28
 -885 -430 -885 -430 -823 -383 c 1,29,30
 -784 -360 -784 -360 -755.5 -351 c 128,-1,31
 -727 -342 -727 -342 -688 -342 c 2,32,-1
 -543 -342 l 2,33,34
 -527 -342 -527 -342 -498 -328 c 1,35,-1
 -483 -317 l 1,36,-1
 -475 -281 l 1,37,38
 -498 -277 -498 -277 -512 -276 c 2,39,-1
 -825 -276 l 1,40,-1
 -782 -76 l 1,41,-1
 -401 -76 l 2,42,43
 -315 -76 -315 -76 -254 -106 c 1,44,45
 -201 -159 -201 -159 -209 -211 c 1,46,-1
 -246 -387 l 2,47,48
 -260 -455 -260 -455 -340 -514 c 1,49,50
 -422 -567 -422 -567 -508 -567 c 2,51,-1
 -637 -567 l 1,52,-1
 -666 -571 l 1,53,-1
 -670 -582 l 1,54,-1
 -674 -610 l 1,55,-1
 -670 -618 l 1,56,-1
 -651 -629 l 1,57,-1
 -383 -629 l 2,58,59
 -332 -629 -332 -629 -281.5 -592 c 128,-1,60
 -231 -555 -231 -555 -217 -502 c 1,61,-1
 -195 -387 l 1,62,-1
 53 -387 l 1,63,-1
 25 -518 l 1,64,65
 23 -551 23 -551 51.5 -589 c 128,-1,66
 80 -627 80 -627 113 -627 c 2,67,-1
 301 -627 l 2,68,69
 311 -627 311 -627 340 -612 c 1,70,71
 358 -596 358 -596 362 -567 c 1,72,-1
 399 -406 l 2,73,74
 407 -373 407 -373 385 -348 c 1,75,76
 369 -323 369 -323 322 -324 c 2,77,-1
 39 -324 l 1,78,-1
 82 -121 l 1,79,-1
 266 -121 l 1,80,81
 426 2 426 2 444 90 c 2,82,-1
 524 473 l 1,83,-1
 778 473 l 1,84,-1
 696 90 l 1,85,86
 665 -25 665 -25 557 -121 c 1,87,-1
 797 -121 l 1,88,-1
 754 -324 l 1,0,-1
EndSplineSet
LCarets2: 1 0
EndChar

StartChar: cha.base
Encoding: 143 -1 143
Width: 1492
Flags: W
LayerCount: 2
Fore
SplineSet
1980 248 m 2,0,1
 1957 139 1957 139 1868 68 c 1,2,3
 1778 -8 1778 -8 1673 -8 c 2,4,-1
 1378 -8 l 2,5,6
 1304 -8 1304 -8 1251 37 c 1,7,8
 1222 55 1222 55 1198 94 c 1,9,10
 1175 63 1175 63 1128 37 c 0,11,12
 1054 -8 1054 -8 989 -8 c 2,13,-1
 672 -6 l 2,14,15
 563 -6 563 -6 496 61 c 1,16,17
 445 108 445 108 444 180 c 0,18,19
 444 194 444 194 449 227 c 1,20,-1
 637 1116 l 2,21,22
 653 1196 653 1196 700 1255 c 1,23,24
 753 1329 753 1329 821 1354 c 1,25,26
 882 1391 882 1391 963 1391 c 2,27,-1
 1405 1391 l 1,28,-1
 1325 1016 l 2,29,30
 1302 914 1302 914 1231 852 c 1,31,32
 1149 778 1149 778 1067 778 c 2,33,-1
 881 778 l 1,34,-1
 928 1012 l 1,35,-1
 1004 1012 l 1,36,37
 1027 1016 1027 1016 1034 1024 c 0,38,39
 1052 1047 1052 1047 1055 1071 c 1,40,-1
 1073 1157 l 1,41,-1
 993 1157 l 2,42,43
 950 1157 950 1157 928 1141 c 1,44,45
 905 1118 905 1118 897 1090 c 1,46,-1
 731 297 l 1,47,48
 723 268 723 268 737.5 242.5 c 128,-1,49
 752 217 752 217 776 217 c 2,50,-1
 971 217 l 2,51,52
 1008 217 1008 217 1059 248 c 1,53,54
 1069 262 1069 262 1081.5 276.5 c 128,-1,55
 1094 291 1094 291 1096 305 c 2,56,-1
 1128 463 l 1,57,-1
 1403 463 l 1,58,-1
 1370 305 l 1,59,60
 1368 276 1368 276 1384.5 246.5 c 128,-1,61
 1401 217 1401 217 1446 217 c 2,62,-1
 1620 217 l 2,63,64
 1645 217 1645 217 1671.5 243.5 c 128,-1,65
 1698 270 1698 270 1706 303 c 2,66,-1
 1868 1071 l 2,67,68
 1882 1130 1882 1130 1786 1153 c 1,69,-1
 1475 1151 l 1,70,-1
 1522 1382 l 1,71,-1
 1862 1382 l 1,72,73
 2007 1366 2007 1366 2089 1280 c 1,74,75
 2148 1206 2148 1206 2148 1124 c 0,76,77
 2148 1108 2148 1108 2144 1075 c 1,78,-1
 1980 248 l 2,0,1
1225 -340 m 1,79,-1
 950 -340 l 1,80,-1
 1016 -29 l 1,81,-1
 1290 -29 l 1,82,-1
 1225 -340 l 1,79,-1
EndSplineSet
EndChar

StartChar: cha.imathra
Encoding: 144 -1 144
Width: 1845
Flags: W
LayerCount: 2
Fore
SplineSet
1982 252 m 1,0,1
 1957 143 1957 143 1878 72 c 1,2,3
 1796 -8 1796 -8 1696 -8 c 2,4,-1
 1376 -8 l 2,5,6
 1302 -8 1302 -8 1249 37 c 1,7,8
 1212 62 1212 62 1198 100 c 1,9,10
 1184 82 1184 82 1165 66 c 0,11,12
 1163 64 1163 64 1126 35 c 1,13,14
 1058 -6 1058 -6 987 -6 c 2,15,-1
 670 -4 l 2,16,17
 561 -4 561 -4 494 63 c 0,18,19
 443 114 443 114 442 186 c 0,20,21
 442 200 442 200 446 233 c 1,22,-1
 637 1124 l 1,23,24
 647 1196 647 1196 699.5 1264.5 c 128,-1,25
 752 1333 752 1333 819 1364 c 1,26,27
 852 1382 852 1382 890 1390.5 c 128,-1,28
 928 1399 928 1399 958 1399 c 2,29,-1
 1401 1399 l 1,30,-1
 1321 1024 l 2,31,32
 1298 920 1298 920 1227 858 c 1,33,34
 1145 784 1145 784 1063 784 c 2,35,-1
 877 784 l 1,36,-1
 928 1022 l 1,37,-1
 1004 1022 l 1,38,-1
 1034 1030 l 1,39,40
 1038 1040 1038 1040 1040 1042 c 128,-1,41
 1042 1044 1042 1044 1044 1049 c 2,42,-1
 1069 1163 l 1,43,-1
 989 1163 l 2,44,45
 952 1163 952 1163 928 1149 c 1,46,47
 901 1126 901 1126 899 1096 c 1,48,-1
 731 303 l 2,49,50
 723 266 723 266 744.5 244.5 c 128,-1,51
 766 223 766 223 795 223 c 2,52,-1
 971 223 l 2,53,54
 994 223 994 223 1009 228 c 128,-1,55
 1024 233 1024 233 1057 250 c 1,56,57
 1067 264 1067 264 1079.5 278.5 c 128,-1,58
 1092 293 1092 293 1094 309 c 2,59,-1
 1126 465 l 1,60,-1
 1401 465 l 1,61,-1
 1368 309 l 1,62,63
 1366 276 1366 276 1385.5 249.5 c 128,-1,64
 1405 223 1405 223 1444 223 c 2,65,-1
 1618 223 l 2,66,67
 1647 223 1647 223 1672.5 248.5 c 128,-1,68
 1698 274 1698 274 1706 311 c 2,69,-1
 1921 1317 l 1,70,71
 1925 1348 1925 1348 1914 1366 c 128,-1,72
 1903 1384 1903 1384 1884 1384 c 2,73,-1
 1796 1384 l 2,74,75
 1773 1384 1773 1384 1755 1374 c 1,76,77
 1741 1351 1741 1351 1739 1343 c 2,78,-1
 1722 1262 l 2,79,80
 1720 1246 1720 1246 1724 1229 c 1,81,82
 1747 1213 1747 1213 1761 1212 c 2,83,-1
 1851 1212 l 1,84,-1
 1804 981 l 1,85,-1
 1638 983 l 2,86,87
 1529 983 1529 983 1470 1042 c 0,88,89
 1425 1089 1425 1089 1425 1157 c 0,90,91
 1425 1171 1425 1171 1430 1204 c 1,92,-1
 1468 1395 l 2,93,94
 1491 1495 1491 1495 1570 1554.5 c 128,-1,95
 1649 1614 1649 1614 1739 1614 c 2,96,-1
 2021 1614 l 2,97,98
 2082 1614 2082 1614 2136 1577 c 1,99,100
 2161 1552 2161 1552 2175 1529.5 c 128,-1,101
 2189 1507 2189 1507 2194.5 1481.5 c 128,-1,102
 2200 1456 2200 1456 2204 1440.5 c 128,-1,103
 2208 1425 2208 1425 2208 1401 c 256,104,105
 2208 1376 2208 1376 2200 1346 c 1,106,-1
 1982 252 l 1,0,1
1223 -336 m 1,107,-1
 948 -336 l 1,108,-1
 1016 -23 l 1,109,-1
 1290 -23 l 1,110,-1
 1223 -336 l 1,107,-1
EndSplineSet
LCarets2: 1 0
EndChar

StartChar: cha.sub
Encoding: 145 -1 145
Width: 319
Flags: W
AnchorPoint: "Sub" -598 346 mark 0
AnchorPoint: "Sub" 535 -758 basemark 0
LayerCount: 2
Fore
SplineSet
582 -475 m 2,0,1
 557 -598 557 -598 483 -684 c 1,2,3
 409 -778 409 -778 330 -778 c 2,4,-1
 72 -778 l 2,5,6
 -10 -778 -10 -778 -57 -735 c 1,7,8
 -94 -706 -94 -706 -104 -674 c 1,9,10
 -133 -711 -133 -711 -176 -735 c 1,11,12
 -242 -778 -242 -778 -311 -778 c 2,13,-1
 -606 -776 l 1,14,-1
 -614 -774 l 1,15,16
 -694 -774 -694 -774 -745 -707 c 1,17,18
 -778 -656 -778 -656 -778 -598 c 0,19,20
 -778 -588 -778 -588 -774 -555 c 1,21,-1
 -729 -338 l 2,22,23
 -711 -248 -711 -248 -637 -180 c 1,24,25
 -563 -119 -563 -119 -461 -119 c 2,26,-1
 -193 -119 l 1,27,-1
 -240 -348 l 1,28,-1
 -451 -348 l 1,29,30
 -474 -352 -474 -352 -481.5 -360.5 c 128,-1,31
 -489 -369 -489 -369 -494 -397 c 2,32,-1
 -518 -514 l 2,33,34
 -522 -543 -522 -543 -513 -552 c 128,-1,35
 -504 -561 -504 -561 -494 -561 c 2,36,-1
 -285 -561 l 2,37,38
 -254 -561 -254 -561 -221 -531.5 c 128,-1,39
 -188 -502 -188 -502 -180 -449 c 1,40,-1
 -162 -362 l 1,41,-1
 72 -362 l 1,42,-1
 49 -459 l 1,43,44
 47 -482 47 -482 47 -492 c 0,45,46
 47 -517 47 -517 60.5 -537 c 128,-1,47
 74 -557 74 -557 111 -557 c 2,48,-1
 256 -557 l 2,49,50
 287 -557 287 -557 317 -535 c 1,51,52
 348 -506 348 -506 356 -473 c 2,53,-1
 444 -53 l 2,54,55
 452 -20 452 -20 453 12 c 0,56,57
 453 65 453 65 424 113 c 1,58,59
 387 181 387 181 276 203 c 1,60,-1
 406 403 l 1,61,62
 459 389 459 389 483 381 c 0,63,64
 544 358 544 358 578 313 c 1,65,66
 650 247 650 247 666 150 c 1,67,68
 676 105 676 105 676 49 c 0,69,70
 676 31 676 31 675 8.5 c 128,-1,71
 674 -14 674 -14 666 -57 c 2,72,-1
 582 -475 l 2,0,1
-41 -907 m 1,73,-1
 -289 -907 l 1,74,-1
 -264 -788 l 1,75,-1
 -104 -643 l 1,76,-1
 -18 -788 l 1,77,-1
 -41 -907 l 1,73,-1
EndSplineSet
LCarets2: 1 0
EndChar

StartChar: ja
Encoding: 146 3228 146
Width: 1900
Flags: W
LayerCount: 2
Fore
SplineSet
2107 553 m 1,0,-1
 2040 238 l 1,1,2
 2024 177 2024 177 1985 123 c 0,3,4
 1967 94 1967 94 1941 74.5 c 128,-1,5
 1915 55 1915 55 1886 39 c 1,6,7
 1843 23 1843 23 1817.5 14.5 c 128,-1,8
 1792 6 1792 6 1763 6 c 2,9,-1
 1315 6 l 2,10,11
 1256 6 1256 6 1208 49 c 1,12,13
 1183 67 1183 67 1176 96 c 1,14,15
 1158 67 1158 67 1126 51 c 1,16,17
 1079 6 1079 6 1012 6 c 2,18,-1
 559 8 l 2,19,20
 508 8 508 8 472 21.5 c 128,-1,21
 436 35 436 35 399 66 c 1,22,23
 354 117 354 117 354 174 c 0,24,25
 354 184 354 184 358 213 c 2,26,-1
 432 567 l 1,27,-1
 952 801 l 1,28,29
 1020 846 1020 846 1028 891 c 2,30,-1
 1067 1079 l 2,31,32
 1075 1112 1075 1112 1049.5 1137.5 c 128,-1,33
 1024 1163 1024 1163 979 1163 c 2,34,-1
 868 1163 l 1,35,-1
 846 1067 l 2,36,37
 844 1059 844 1059 862.5 1059 c 128,-1,38
 881 1059 881 1059 911 1059 c 2,39,-1
 991 1059 l 1,40,-1
 938 811 l 1,41,-1
 743 813 l 2,42,43
 647 813 647 813 596 874 c 0,44,45
 557 919 557 919 557 977 c 0,46,47
 557 991 557 991 561 1020 c 2,48,-1
 641 1391 l 1,49,-1
 1118 1391 l 2,50,51
 1194 1391 1194 1391 1255 1368 c 1,52,53
 1323 1331 1323 1331 1341 1288 c 1,54,55
 1366 1255 1366 1255 1366 1212 c 0,56,57
 1366 1194 1366 1194 1364 1186 c 1,58,59
 1417 1098 1417 1098 1489 1098 c 2,60,-1
 1784 1098 l 2,61,62
 1788 1098 1788 1098 1817 1112 c 1,63,64
 1831 1122 1831 1122 1832 1124 c 128,-1,65
 1833 1126 1833 1126 1835 1128 c 2,66,-1
 1845 1174 l 1,67,68
 1835 1188 1835 1188 1827 1188 c 2,69,-1
 1761 1188 l 1,70,-1
 1808 1419 l 1,71,-1
 1933 1419 l 2,72,73
 1994 1419 1994 1419 2042 1395 c 0,74,75
 2071 1379 2071 1379 2087 1362.5 c 128,-1,76
 2103 1346 2103 1346 2107 1317 c 1,77,78
 2123 1284 2123 1284 2124 1245 c 0,79,80
 2124 1235 2124 1235 2120 1206 c 2,81,-1
 2095 1083 l 2,82,83
 2087 1042 2087 1042 2063.5 1006.5 c 128,-1,84
 2040 971 2040 971 2001 938 c 1,85,86
 1921 877 1921 877 1827 877 c 2,87,-1
 1464 877 l 2,88,89
 1378 877 1378 877 1305 934 c 1,90,-1
 1282 831 l 2,91,92
 1272 780 1272 780 1238 735 c 128,-1,93
 1204 690 1204 690 1151 653 c 1,94,-1
 676 442 l 1,95,-1
 651 324 l 2,96,97
 643 287 643 287 665.5 266.5 c 128,-1,98
 688 246 688 246 717 246 c 2,99,-1
 979 246 l 2,100,101
 1002 246 1002 246 1038 270 c 0,102,103
 1048 278 1048 278 1059.5 292.5 c 128,-1,104
 1071 307 1071 307 1075 332 c 2,105,-1
 1094 434 l 1,106,-1
 1370 434 l 1,107,-1
 1354 346 l 1,108,109
 1346 313 1346 313 1370 281 c 1,110,111
 1401 248 1401 248 1440 248 c 2,112,-1
 1657 248 l 2,113,114
 1696 248 1696 248 1729.5 278.5 c 128,-1,115
 1763 309 1763 309 1774 348 c 1,116,-1
 1810 524 l 2,117,118
 1814 547 1814 547 1796 563.5 c 128,-1,119
 1778 580 1778 580 1741 580 c 2,120,-1
 1587 580 l 1,121,-1
 1638 811 l 1,122,-1
 1942 811 l 2,123,124
 2028 811 2028 811 2073 737 c 0,125,126
 2104 684 2104 684 2103 618 c 0,127,128
 2103 604 2103 604 2107 553 c 1,0,-1
EndSplineSet
LCarets2: 1 0
EndChar

StartChar: ja.base
Encoding: 147 -1 147
Width: 1548
Flags: W
LayerCount: 2
Fore
SplineSet
2048 266 m 1,0,1
 2023 164 2023 164 1930 83 c 128,-1,2
 1837 2 1837 2 1735 2 c 2,3,-1
 1305 4 l 2,4,5
 1248 4 1248 4 1204 43 c 1,6,7
 1186 66 1186 66 1171 94 c 1,8,9
 1163 84 1163 84 1152 72.5 c 128,-1,10
 1141 61 1141 61 1112 45 c 0,11,12
 1046 2 1046 2 973 2 c 2,13,-1
 547 4 l 2,14,15
 453 4 453 4 393 63 c 1,16,17
 348 114 348 114 348 172 c 0,18,19
 348 182 348 182 352 211 c 2,20,-1
 426 565 l 1,21,-1
 903 797 l 1,22,23
 964 842 964 842 995 874.5 c 128,-1,24
 1026 907 1026 907 1030 940 c 1,25,-1
 1059 1073 l 2,26,27
 1067 1110 1067 1110 1049 1139 c 1,28,29
 1031 1157 1031 1157 997 1157 c 2,30,-1
 864 1157 l 1,31,-1
 854 1114 l 1,32,33
 852 1089 852 1089 857 1077 c 128,-1,34
 862 1065 862 1065 867 1061 c 128,-1,35
 872 1057 872 1057 877 1057 c 2,36,-1
 956 1057 l 1,37,-1
 903 809 l 1,38,-1
 737 811 l 2,39,40
 647 811 647 811 590 872 c 1,41,42
 551 917 551 917 551 975 c 0,43,44
 551 989 551 989 555 1018 c 2,45,-1
 635 1389 l 1,46,-1
 1108 1389 l 2,47,48
 1184 1389 1184 1389 1246.5 1359 c 128,-1,49
 1309 1329 1309 1329 1339 1268 c 0,50,51
 1357 1231 1357 1231 1358 1186 c 0,52,53
 1358 1163 1358 1163 1356 1153 c 1,54,55
 1403 1096 1403 1096 1448 1096 c 2,56,-1
 1731 1096 l 2,57,58
 1735 1096 1735 1096 1743 1103 c 128,-1,59
 1751 1110 1751 1110 1760 1115 c 128,-1,60
 1769 1120 1769 1120 1774 1145 c 1,61,-1
 1778 1159 l 1,62,-1
 1454 1159 l 1,63,-1
 1501 1391 l 1,64,-1
 1849 1391 l 2,65,66
 1958 1391 1958 1391 2015 1337 c 1,67,68
 2060 1284 2060 1284 2060 1227 c 0,69,70
 2060 1213 2060 1213 2056 1184 c 2,71,-1
 2034 1075 l 2,72,73
 2018 995 2018 995 1933.5 930.5 c 128,-1,74
 1849 866 1849 866 1761 866 c 2,75,-1
 1452 866 l 2,76,77
 1409 866 1409 866 1373 878.5 c 128,-1,78
 1337 891 1337 891 1298 922 c 1,79,-1
 1282 848 l 2,80,81
 1266 768 1266 768 1118 668 c 1,82,-1
 670 428 l 1,83,-1
 645 309 l 2,84,85
 643 295 643 295 645 280.5 c 128,-1,86
 647 266 647 266 658.5 247.5 c 128,-1,87
 670 229 670 229 702 229 c 2,88,-1
 965 229 l 2,89,90
 994 229 994 229 1030 254 c 1,91,92
 1061 283 1061 283 1069 315 c 1,93,-1
 1087 416 l 1,94,-1
 1364 416 l 1,95,-1
 1348 330 l 2,96,97
 1338 287 1338 287 1360 258 c 1,98,99
 1374 227 1374 227 1403 227 c 2,100,-1
 1655 227 l 2,101,102
 1692 227 1692 227 1729 252 c 1,103,104
 1766 283 1766 283 1769 313 c 1,105,-1
 1812 518 l 2,106,107
 1814 532 1814 532 1798 546.5 c 128,-1,108
 1782 561 1782 561 1737 561 c 2,109,-1
 1589 561 l 1,110,-1
 1636 791 l 1,111,-1
 1919 791 l 2,112,113
 2021 791 2021 791 2068 729 c 1,114,115
 2105 690 2105 690 2105 625 c 0,116,117
 2105 611 2105 611 2101 578 c 2,118,-1
 2048 266 l 1,0,1
EndSplineSet
EndChar

StartChar: ja.imathra
Encoding: 148 -1 148
Width: 1923
Flags: W
LayerCount: 2
Fore
SplineSet
2060 240 m 2,0,1
 2042 140 2042 140 1948 72 c 1,2,3
 1860 0 1860 0 1755 0 c 2,4,-1
 1296 2 l 2,5,6
 1235 2 1235 2 1198 41 c 1,7,8
 1173 57 1173 57 1165 88 c 1,9,-1
 1114 41 l 1,10,11
 1057 -2 1057 -2 995 -2 c 2,12,-1
 569 -2 l 2,13,14
 522 -2 522 -2 477 17.5 c 128,-1,15
 432 37 432 37 399 68 c 1,16,17
 354 121 354 121 354 186 c 0,18,19
 354 200 354 200 358 233 c 1,20,-1
 420 532 l 1,21,-1
 967 819 l 1,22,23
 1018 862 1018 862 1026 909 c 2,24,-1
 1065 1092 l 2,25,26
 1073 1121 1073 1121 1059 1143 c 1,27,28
 1043 1159 1043 1159 1014 1159 c 2,29,-1
 860 1159 l 1,30,-1
 844 1094 l 1,31,32
 846 1071 846 1071 853 1063 c 128,-1,33
 860 1055 860 1055 874 1055 c 2,34,-1
 954 1055 l 1,35,-1
 903 807 l 1,36,-1
 735 809 l 2,37,38
 641 809 641 809 590 870 c 1,39,40
 547 913 547 913 547 975 c 0,41,42
 547 985 547 985 551 1014 c 2,43,-1
 631 1389 l 1,44,-1
 1104 1389 l 2,45,46
 1229 1389 1229 1389 1298.5 1340.5 c 128,-1,47
 1368 1292 1368 1292 1368 1212 c 1,48,49
 1462 1161 1462 1161 1571 1161 c 2,50,-1
 1638 1161 l 1,51,-1
 1690 1399 l 1,52,53
 1706 1489 1706 1489 1782 1548 c 1,54,55
 1815 1577 1815 1577 1862 1591.5 c 128,-1,56
 1909 1606 1909 1606 1952 1606 c 2,57,-1
 2097 1606 l 2,58,59
 2199 1606 2199 1606 2247 1538 c 1,60,61
 2280 1487 2280 1487 2279 1421 c 0,62,63
 2279 1411 2279 1411 2275 1372 c 1,64,-1
 2230 1155 l 2,65,66
 2220 1104 2220 1104 2191.5 1064 c 128,-1,67
 2163 1024 2163 1024 2116 991 c 1,68,69
 2034 917 2034 917 1925 918 c 2,70,-1
 1554 918 l 2,71,72
 1421 918 1421 918 1313 963 c 1,73,-1
 1284 831 l 1,74,75
 1266 737 1266 737 1190 694 c 1,76,-1
 674 428 l 1,77,-1
 645 289 l 1,78,79
 643 264 643 264 657 250 c 1,80,81
 665 227 665 227 696 227 c 2,82,-1
 971 227 l 2,83,84
 996 227 996 227 1034 256 c 1,85,86
 1061 272 1061 272 1069 305 c 2,87,-1
 1092 416 l 1,88,-1
 1368 416 l 1,89,-1
 1352 330 l 2,90,91
 1350 322 1350 322 1350 312.5 c 128,-1,92
 1350 303 1350 303 1350 301 c 0,93,94
 1350 276 1350 276 1365 252.5 c 128,-1,95
 1380 229 1380 229 1403 229 c 2,96,-1
 1698 229 l 2,97,98
 1727 229 1727 229 1762.5 257 c 128,-1,99
 1798 285 1798 285 1802 315 c 1,100,-1
 1839 496 l 1,101,102
 1847 525 1847 525 1825 547 c 1,103,104
 1796 565 1796 565 1759 565 c 2,105,-1
 1593 565 l 1,106,-1
 1640 797 l 1,107,-1
 1923 797 l 2,108,109
 1997 797 1997 797 2044 772 c 1,110,111
 2097 739 2097 739 2114 692 c 1,112,113
 2132 655 2132 655 2132 623 c 0,114,115
 2132 613 2132 613 2128 584 c 2,116,-1
 2060 240 l 2,0,1
1989 1223 m 1,117,-1
 2017 1356 l 1,118,119
 2021 1387 2021 1387 1993 1386 c 2,120,-1
 1956 1386 l 1,121,-1
 1925 1378 l 2,122,123
 1921 1376 1921 1376 1917 1358 c 2,124,-1
 1874 1157 l 1,125,-1
 1939 1157 l 2,126,127
 1949 1157 1949 1157 1964 1172.5 c 128,-1,128
 1979 1188 1979 1188 1989 1223 c 1,117,-1
EndSplineSet
LCarets2: 1 0
EndChar

StartChar: ja.sub
Encoding: 149 -1 149
Width: 387
Flags: W
AnchorPoint: "Sub" -881 -53 mark 0
AnchorPoint: "Sub" 635 -827 basemark 0
LayerCount: 2
Fore
SplineSet
735 -246 m 1,0,1
 719 -326 719 -326 646 -383 c 128,-1,2
 573 -440 573 -440 494 -440 c 2,3,-1
 53 -440 l 2,4,5
 -105 -440 -105 -440 -264 -279 c 1,6,-1
 -127 -133 l 1,7,8
 -59 -172 -59 -172 -16 -197 c 0,9,10
 60 -242 60 -242 76 -242 c 2,11,-1
 428 -242 l 2,12,13
 451 -242 451 -242 467 -228.5 c 128,-1,14
 483 -215 483 -215 485 -213 c 128,-1,15
 487 -211 487 -211 489 -209 c 2,16,-1
 504 -133 l 2,17,18
 508 -110 508 -110 449 -57 c 1,19,-1
 625 80 l 1,20,21
 754 -14 754 -14 754 -102 c 0,22,23
 754 -120 754 -120 752 -131 c 2,24,-1
 735 -246 l 1,0,1
672 -618 m 2,25,26
 656 -706 656 -706 584 -768 c 1,27,28
 516 -840 516 -840 428 -840 c 2,29,-1
 76 -840 l 2,30,31
 4 -840 4 -840 -57 -797 c 1,32,33
 -73 -781 -73 -781 -85.5 -768.5 c 128,-1,34
 -98 -756 -98 -756 -102 -733 c 1,35,36
 -200 -842 -200 -842 -319 -842 c 2,37,-1
 -731 -842 l 2,38,39
 -821 -842 -821 -842 -883 -795 c 0,40,41
 -928 -762 -928 -762 -928 -705 c 0,42,43
 -928 -687 -928 -687 -926 -676 c 2,44,-1
 -895 -537 l 2,45,46
 -879 -455 -879 -455 -819 -412 c 1,47,48
 -760 -361 -760 -361 -680 -360 c 2,49,-1
 -535 -360 l 2,50,51
 -525 -360 -525 -360 -508 -350 c 1,52,-1
 -494 -336 l 1,53,-1
 -485 -303 l 1,54,-1
 -502 -299 l 1,55,-1
 -817 -299 l 1,56,-1
 -772 -82 l 1,57,-1
 -399 -82 l 2,58,59
 -317 -82 -317 -82 -262 -127 c 1,60,61
 -215 -186 -215 -186 -225 -248 c 1,62,-1
 -262 -416 l 1,63,64
 -272 -473 -272 -473 -341 -517 c 128,-1,65
 -410 -561 -410 -561 -475 -561 c 2,66,-1
 -621 -561 l 2,67,68
 -658 -561 -658 -561 -659 -571 c 2,69,-1
 -670 -625 l 1,70,-1
 -666 -635 l 1,71,72
 -656 -645 -656 -645 -639 -645 c 2,73,-1
 -319 -645 l 2,74,75
 -290 -645 -290 -645 -240 -614 c 1,76,77
 -201 -583 -201 -583 -193 -545 c 2,78,-1
 -176 -463 l 1,79,-1
 76 -463 l 1,80,-1
 59 -545 l 2,81,82
 51 -584 51 -584 76 -612 c 1,83,84
 115 -645 115 -645 147 -645 c 2,85,-1
 385 -645 l 1,86,87
 403 -635 403 -635 411.5 -631 c 128,-1,88
 420 -627 420 -627 421 -622.5 c 128,-1,89
 422 -618 422 -618 422 -616 c 2,90,-1
 453 -463 l 1,91,-1
 700 -463 l 1,92,-1
 672 -618 l 2,25,26
EndSplineSet
LCarets2: 1 0
EndChar

StartChar: jha.sub
Encoding: 154 -1 154
Width: 423
Flags: W
AnchorPoint: "Sub" -877 -66 mark 0
AnchorPoint: "Sub" 694 -770 basemark 0
LayerCount: 2
Fore
SplineSet
764 -535 m 1,0,1
 741 -639 741 -639 651 -707 c 1,2,3
 565 -781 565 -781 457 -780 c 2,4,-1
 254 -780 l 2,5,6
 182 -780 182 -780 154 -727 c 1,7,8
 86 -780 86 -780 -2 -780 c 2,9,-1
 -178 -780 l 2,10,11
 -244 -780 -244 -780 -285 -737 c 1,12,13
 -357 -780 -357 -780 -430 -780 c 2,14,-1
 -750 -780 l 2,15,16
 -873 -780 -873 -780 -930 -707 c 1,17,18
 -975 -660 -975 -660 -975 -586 c 0,19,20
 -975 -570 -975 -570 -971 -537 c 1,21,-1
 -918 -291 l 1,22,23
 -902 -195 -902 -195 -801 -129 c 128,-1,24
 -700 -63 -700 -63 -586 -63 c 2,25,-1
 -319 -63 l 2,26,27
 -204 -63 -204 -63 -139 -131 c 0,28,29
 -84 -188 -84 -188 -84 -254 c 0,30,31
 -84 -268 -84 -268 -88 -301 c 1,32,-1
 -135 -526 l 1,33,34
 -137 -551 -137 -551 -117.5 -567.5 c 128,-1,35
 -98 -584 -98 -584 -82 -584 c 2,36,-1
 4 -584 l 2,37,38
 18 -584 18 -584 26.5 -578.5 c 128,-1,39
 35 -573 35 -573 37 -571 c 0,40,41
 55 -561 55 -561 59 -537 c 2,42,-1
 104 -328 l 1,43,44
 108 -295 108 -295 84.5 -265.5 c 128,-1,45
 61 -236 61 -236 -35 -211 c 1,46,-1
 168 -63 l 1,47,48
 270 -94 270 -94 324 -164 c 1,49,50
 332 -180 332 -180 346 -214 c 128,-1,51
 360 -248 360 -248 360 -285 c 0,52,53
 360 -303 360 -303 358 -313 c 2,54,-1
 307 -551 l 2,55,56
 307 -555 307 -555 309 -571 c 1,57,58
 323 -575 323 -575 325.5 -576.5 c 128,-1,59
 328 -578 328 -578 330 -580 c 1,60,-1
 434 -580 l 2,61,62
 457 -580 457 -580 486.5 -561.5 c 128,-1,63
 516 -543 516 -543 518 -520 c 1,64,-1
 555 -338 l 1,65,66
 559 -295 559 -295 526 -258 c 1,67,68
 501 -221 501 -221 387 -190 c 1,69,-1
 582 -53 l 1,70,71
 643 -69 643 -69 683 -95 c 128,-1,72
 723 -121 723 -121 760 -158 c 1,73,74
 807 -215 807 -215 807 -276 c 0,75,76
 807 -294 807 -294 805 -305 c 2,77,-1
 764 -535 l 1,0,1
244 -829 m 1,78,-1
 -8 -829 l 1,79,-1
 2 -768 l 1,80,-1
 147 -709 l 1,81,-1
 252 -768 l 1,82,-1
 244 -829 l 1,78,-1
-393 -506 m 2,83,-1
 -356 -334 l 1,84,85
 -352 -297 -352 -297 -381 -274 c 1,86,87
 -399 -251 -399 -251 -436 -252 c 2,88,-1
 -602 -252 l 2,89,90
 -641 -252 -641 -252 -659 -270 c 1,91,92
 -684 -286 -684 -286 -688 -317 c 1,93,-1
 -727 -504 l 1,94,95
 -735 -529 -735 -529 -708.5 -552 c 128,-1,96
 -682 -575 -682 -575 -651 -575 c 2,97,-1
 -492 -575 l 2,98,99
 -469 -575 -469 -575 -430 -553 c 1,100,101
 -399 -531 -399 -531 -393 -506 c 2,83,-1
EndSplineSet
LCarets2: 1 0
EndChar

StartChar: jha.part
Encoding: 155 -1 155
Width: 882
Flags: W
LayerCount: 2
Fore
SplineSet
1022 274 m 2,0,1
 1012 219 1012 219 986.5 176 c 128,-1,2
 961 133 961 133 909 80 c 1,3,4
 807 -6 807 -6 705 -6 c 2,5,-1
 352 -6 l 2,6,7
 178 -6 178 -6 61 217 c 1,8,-1
 129 535 l 1,9,-1
 168 543 l 1,10,11
 205 402 205 402 299 314.5 c 128,-1,12
 393 227 393 227 487 227 c 2,13,-1
 616 227 l 2,14,15
 667 227 667 227 700 260 c 1,16,17
 745 297 745 297 754 342 c 2,18,-1
 907 1069 l 1,19,20
 911 1102 911 1102 891.5 1132.5 c 128,-1,21
 872 1163 872 1163 834 1163 c 2,22,-1
 547 1163 l 1,23,-1
 594 1395 l 1,24,-1
 952 1395 l 2,25,26
 1075 1395 1075 1395 1149 1300 c 1,27,28
 1194 1234 1194 1234 1194 1145 c 0,29,30
 1194 1108 1194 1108 1186 1069 c 2,31,-1
 1022 274 l 2,0,1
877 -391 m 1,32,-1
 596 -391 l 1,33,-1
 662 -76 l 1,34,-1
 942 -76 l 1,35,-1
 877 -391 l 1,32,-1
EndSplineSet
EndChar

StartChar: nya
Encoding: 157 3230 157
Width: 2373
Flags: W
LayerCount: 2
Fore
SplineSet
2681 987 m 2,0,1
 2673 942 2673 942 2653.5 908 c 128,-1,2
 2634 874 2634 874 2595 831 c 1,3,4
 2515 759 2515 759 2435 760 c 2,5,-1
 2267 760 l 1,6,-1
 2318 991 l 1,7,-1
 2370 991 l 2,8,9
 2403 991 2403 991 2417 1053 c 2,10,-1
 2433 1133 l 1,11,12
 2437 1164 2437 1164 2372 1163 c 2,13,-1
 2269 1163 l 2,14,15
 2218 1163 2218 1163 2181 1130.5 c 128,-1,16
 2144 1098 2144 1098 2136 1053 c 2,17,-1
 2075 756 l 2,18,19
 2057 666 2057 666 2006.5 589 c 128,-1,20
 1956 512 1956 512 1866 440 c 1,21,-1
 1835 297 l 1,22,23
 1833 274 1833 274 1843 256 c 1,24,25
 1859 238 1859 238 1882 238 c 2,26,-1
 1997 238 l 1,27,-1
 1950 6 l 1,28,-1
 1749 8 l 2,29,30
 1645 8 1645 8 1585 76 c 0,31,32
 1542 127 1542 127 1542 188 c 0,33,34
 1542 204 1542 204 1546 238 c 1,35,-1
 1569 352 l 1,36,-1
 1358 352 l 2,37,38
 1264 352 1264 352 1212 414 c 1,39,40
 1173 453 1173 453 1174 512 c 0,41,42
 1174 535 1174 535 1176 549 c 2,43,-1
 1206 694 l 2,44,45
 1220 762 1220 762 1289 806 c 128,-1,46
 1358 850 1358 850 1446 850 c 2,47,-1
 1698 850 l 2,48,49
 1745 850 1745 850 1782 813 c 1,50,-1
 1806 784 l 1,51,-1
 1868 1090 l 2,52,53
 1876 1121 1876 1121 1849.5 1139 c 128,-1,54
 1823 1157 1823 1157 1772 1157 c 2,55,-1
 1642 1157 l 2,56,57
 1603 1157 1603 1157 1588 1153 c 128,-1,58
 1573 1149 1573 1149 1542 1129.5 c 128,-1,59
 1511 1110 1511 1110 1503 1073 c 2,60,-1
 1470 915 l 1,61,-1
 1194 915 l 1,62,-1
 1225 1063 l 2,63,64
 1233 1096 1233 1096 1206.5 1125.5 c 128,-1,65
 1180 1155 1180 1155 1120 1155 c 2,66,-1
 930 1155 l 2,67,68
 905 1155 905 1155 893 1146 c 128,-1,69
 881 1137 881 1137 870 1100 c 1,70,-1
 842 967 l 2,71,72
 838 938 838 938 852 922 c 1,73,74
 856 906 856 906 879 905 c 2,75,-1
 975 905 l 1,76,-1
 918 645 l 1,77,-1
 731 647 l 2,78,79
 631 647 631 647 580 721 c 1,80,81
 543 778 543 778 543 840 c 0,82,83
 543 877 543 877 547 895 c 2,84,-1
 600 1153 l 2,85,86
 610 1204 610 1204 633.5 1244 c 128,-1,87
 657 1284 657 1284 705 1317 c 1,88,89
 781 1385 781 1385 883 1384 c 2,90,-1
 1223 1384 l 2,91,92
 1309 1384 1309 1384 1366 1341 c 0,93,94
 1399 1318 1399 1318 1409 1282 c 1,95,96
 1427 1305 1427 1305 1443.5 1319 c 128,-1,97
 1460 1333 1460 1333 1483 1341 c 1,98,99
 1549 1384 1549 1384 1624 1384 c 2,100,-1
 1901 1384 l 2,101,102
 1969 1384 1969 1384 2007 1348 c 1,103,104
 2036 1330 2036 1330 2052 1290 c 1,105,106
 2091 1335 2091 1335 2128 1350 c 1,107,108
 2185 1387 2185 1387 2265 1386 c 2,109,-1
 2540 1386 l 2,110,111
 2628 1386 2628 1386 2679 1325 c 0,112,113
 2716 1280 2716 1280 2716 1219 c 0,114,115
 2716 1205 2716 1205 2712 1171 c 2,116,-1
 2681 987 l 2,0,1
1604 598 m 1,117,-1
 1587 606 l 2,118,119
 1571 616 1571 616 1528 616 c 2,120,-1
 1440 616 l 2,121,122
 1432 616 1432 616 1427 627 c 1,123,-1
 1423 598 l 1,124,-1
 1432 590 l 2,125,126
 1446 576 1446 576 1460 575 c 2,127,-1
 1550 575 l 2,128,129
 1561 575 1561 575 1604 598 c 1,117,-1
EndSplineSet
LCarets2: 1 0
EndChar

StartChar: nya.sub
Encoding: 158 -1 158
Width: 481
Flags: W
AnchorPoint: "Sub" -911 -23 mark 0
AnchorPoint: "Sub" 682 -725 basemark 0
LayerCount: 2
Fore
SplineSet
807 -446 m 2,0,1
 799 -483 799 -483 779.5 -513 c 128,-1,2
 760 -543 760 -543 727 -575 c 1,3,4
 659 -634 659 -634 588 -635 c 2,5,-1
 440 -635 l 1,6,-1
 477 -449 l 1,7,-1
 557 -449 l 1,8,-1
 571 -446 l 1,9,-1
 588 -418 l 1,10,-1
 618 -264 l 1,11,12
 622 -231 622 -231 623 -229 c 0,13,14
 623 -211 623 -211 606 -211 c 2,15,-1
 449 -211 l 2,16,17
 424 -211 424 -211 405.5 -227.5 c 128,-1,18
 387 -244 387 -244 365 -283 c 1,19,-1
 317 -524 l 2,20,21
 301 -612 301 -612 199.5 -671.5 c 128,-1,22
 98 -731 98 -731 10 -731 c 1,23,24
 12 -721 12 -721 16 -721 c 1,25,-1
 18 -723 l 2,26,27
 22 -727 22 -727 26.5 -729 c 128,-1,28
 31 -731 31 -731 33 -733 c 1,29,-1
 137 -733 l 1,30,-1
 104 -893 l 1,31,-1
 -53 -893 l 2,32,33
 -114 -893 -114 -893 -166 -850 c 1,34,35
 -199 -825 -199 -825 -199 -782 c 0,36,37
 -199 -764 -199 -764 -197 -754 c 2,38,-1
 -195 -731 l 1,39,-1
 -270 -731 l 2,40,41
 -331 -731 -331 -731 -371.5 -697.5 c 128,-1,42
 -412 -664 -412 -664 -403 -616 c 2,43,-1
 -381 -506 l 1,44,45
 -367 -447 -367 -447 -322 -414 c 1,46,47
 -269 -385 -269 -385 -203 -385 c 2,48,-1
 -72 -385 l 2,49,50
 -11 -385 -11 -385 27 -414 c 1,51,52
 64 -457 64 -457 53 -508 c 2,53,-1
 45 -549 l 1,54,55
 84 -541 84 -541 86 -522 c 2,56,-1
 145 -242 l 2,57,58
 145 -238 145 -238 132 -225.5 c 128,-1,59
 119 -213 119 -213 68 -213 c 2,60,-1
 -147 -213 l 2,61,62
 -186 -213 -186 -213 -217 -229 c 1,63,64
 -248 -254 -248 -254 -256 -283 c 1,65,-1
 -266 -340 l 1,66,-1
 -492 -340 l 1,67,-1
 -477 -268 l 1,68,69
 -469 -239 -469 -239 -491.5 -225 c 128,-1,70
 -514 -211 -514 -211 -551 -211 c 2,71,-1
 -666 -211 l 1,72,-1
 -688 -219 l 1,73,74
 -702 -233 -702 -233 -705 -256 c 1,75,-1
 -735 -410 l 1,76,77
 -727 -420 -727 -420 -712.5 -427 c 128,-1,78
 -698 -434 -698 -434 -680 -435 c 128,-1,79
 -662 -436 -662 -436 -643 -436 c 1,80,-1
 -682 -637 l 1,81,82
 -782 -637 -782 -637 -850 -606 c 1,83,84
 -887 -583 -887 -583 -903 -573 c 0,85,86
 -928 -555 -928 -555 -946.5 -522 c 128,-1,87
 -965 -489 -965 -489 -965 -453 c 0,88,89
 -965 -439 -965 -439 -965 -428 c 1,90,91
 -961 -418 -961 -418 -961 -416 c 2,92,-1
 -922 -215 l 2,93,94
 -906 -135 -906 -135 -844 -80 c 1,95,96
 -776 -29 -776 -29 -700 -29 c 2,97,-1
 -471 -29 l 2,98,99
 -405 -29 -405 -29 -358 -66 c 1,100,101
 -342 -82 -342 -82 -328 -115 c 1,102,103
 -305 -84 -305 -84 -274 -61 c 1,104,105
 -219 -28 -219 -28 -176 -29 c 2,106,-1
 184 -29 l 2,107,108
 288 -29 288 -29 328 -86 c 1,109,110
 402 -29 402 -29 473 -29 c 2,111,-1
 711 -29 l 2,112,113
 785 -29 785 -29 827 -80 c 0,114,115
 858 -119 858 -119 858 -172 c 0,116,117
 858 -190 858 -190 856 -199 c 2,118,-1
 807 -446 l 2,0,1
-164 -557 m 1,119,-1
 -160 -532 l 1,120,121
 -170 -530 -170 -530 -180 -528 c 0,122,123
 -184 -528 -184 -528 -195 -528 c 1,124,-1
 -203 -575 l 1,125,126
 -189 -577 -189 -577 -178 -580 c 1,127,128
 -162 -563 -162 -563 -164 -557 c 1,119,-1
EndSplineSet
LCarets2: 1 0
EndChar

StartChar: tta
Encoding: 159 3231 159
Width: 1886
Flags: W
LayerCount: 2
Fore
SplineSet
2032 240 m 2,0,1
 2014 144 2014 144 1933.5 72 c 128,-1,2
 1853 0 1853 0 1753 0 c 2,3,-1
 1395 0 l 2,4,5
 1319 0 1319 0 1260 53 c 1,6,7
 1223 80 1223 80 1212 125 c 1,8,9
 1189 98 1189 98 1174 83 c 128,-1,10
 1159 68 1159 68 1137 55 c 1,11,12
 1061 2 1061 2 979 2 c 2,13,-1
 676 2 l 2,14,15
 561 2 561 2 492 78 c 0,16,17
 445 129 445 129 444 205 c 0,18,19
 444 221 444 221 449 254 c 1,20,-1
 559 780 l 2,21,22
 575 862 575 862 719 942 c 1,23,24
 610 1024 610 1024 627 1096 c 2,25,-1
 678 1339 l 2,26,27
 701 1448 701 1448 792 1517.5 c 128,-1,28
 883 1587 883 1587 993 1587 c 2,29,-1
 1235 1587 l 1,30,-1
 1188 1354 l 1,31,-1
 1001 1354 l 2,32,33
 976 1354 976 1354 965 1344.5 c 128,-1,34
 954 1335 954 1335 950 1319 c 2,35,-1
 911 1133 l 1,36,37
 909 1110 909 1110 920.5 1083.5 c 128,-1,38
 932 1057 932 1057 961 1047 c 1,39,-1
 1305 1047 l 1,40,-1
 1231 717 l 2,41,42
 1206 608 1206 608 1124 541 c 1,43,44
 1038 465 1038 465 936 465 c 2,45,-1
 788 465 l 1,46,-1
 836 692 l 1,47,-1
 926 692 l 1,48,-1
 944 700 l 1,49,50
 952 708 952 708 954 715.5 c 128,-1,51
 956 723 956 723 958 727 c 2,52,-1
 977 813 l 1,53,-1
 883 813 l 1,54,55
 838 795 838 795 829 758 c 2,56,-1
 735 311 l 2,57,58
 727 278 727 278 743 260 c 1,59,60
 757 235 757 235 780 236 c 2,61,-1
 969 236 l 2,62,63
 994 236 994 236 1019 244 c 128,-1,64
 1044 252 1044 252 1067 267.5 c 128,-1,65
 1090 283 1090 283 1108 306.5 c 128,-1,66
 1126 330 1126 330 1135 352 c 1,67,-1
 1159 477 l 1,68,-1
 1440 477 l 1,69,-1
 1411 352 l 1,70,71
 1411 295 1411 295 1442 266 c 0,72,73
 1456 252 1456 252 1472.5 242.5 c 128,-1,74
 1489 233 1489 233 1505 233 c 2,75,-1
 1724 233 l 2,76,77
 1738 233 1738 233 1765 263 c 128,-1,78
 1792 293 1792 293 1796 322 c 2,79,-1
 1864 649 l 1,80,81
 1872 674 1872 674 1856.5 689.5 c 128,-1,82
 1841 705 1841 705 1812 705 c 2,83,-1
 1616 705 l 1,84,-1
 1663 936 l 1,85,-1
 1800 936 l 2,86,87
 1818 936 1818 936 1834.5 944 c 128,-1,88
 1851 952 1851 952 1866 967 c 1,89,90
 1905 992 1905 992 1909 1022 c 1,91,-1
 1966 1284 l 2,92,93
 1968 1294 1968 1294 1954 1319 c 1,94,95
 1944 1323 1944 1323 1907 1323 c 2,96,-1
 1741 1323 l 1,97,-1
 1788 1554 l 1,98,-1
 2071 1554 l 2,99,100
 2167 1554 2167 1554 2198 1489 c 1,101,102
 2212 1466 2212 1466 2220 1439.5 c 128,-1,103
 2228 1413 2228 1413 2228 1382 c 0,104,105
 2228 1353 2228 1353 2220 1321 c 2,106,-1
 2148 987 l 2,107,108
 2134 921 2134 921 2083 879 c 1,109,-1
 2030 840 l 1,110,111
 2063 830 2063 830 2081 797 c 1,112,113
 2110 760 2110 760 2109 702 c 0,114,115
 2109 692 2109 692 2105 664 c 2,116,-1
 2032 240 l 2,0,1
EndSplineSet
LCarets2: 1 0
EndChar

StartChar: tta.base
Encoding: 160 -1 160
Width: 1572
Flags: W
LayerCount: 2
Fore
SplineSet
2060 248 m 1,0,1
 2042 146 2042 146 1962 80 c 1,2,3
 1882 8 1882 8 1796 8 c 1,4,-1
 1786 0 l 1,5,-1
 1397 4 l 2,6,7
 1325 4 1325 4 1264 51 c 1,8,9
 1231 84 1231 84 1221 123 c 1,10,11
 1203 98 1203 98 1187 83 c 128,-1,12
 1171 68 1171 68 1147 51 c 0,13,14
 1065 0 1065 0 989 0 c 2,15,-1
 680 2 l 2,16,17
 565 2 565 2 492 61 c 1,18,19
 445 112 445 112 444 182 c 0,20,21
 444 211 444 211 446 225 c 2,22,-1
 563 778 l 2,23,24
 579 858 579 858 725 944 c 1,25,26
 700 960 700 960 691 971.5 c 128,-1,27
 682 983 682 983 659 1014 c 1,28,29
 636 1059 636 1059 637 1096 c 0,30,31
 637 1110 637 1110 639 1118 c 2,32,-1
 690 1362 l 2,33,34
 700 1419 700 1419 724 1460 c 128,-1,35
 748 1501 748 1501 793 1538 c 0,36,37
 875 1610 875 1610 977 1610 c 2,38,-1
 1245 1610 l 1,39,-1
 1198 1378 l 1,40,-1
 1018 1378 l 2,41,42
 985 1378 985 1378 956 1360 c 1,43,44
 927 1346 927 1346 924 1315 c 1,45,-1
 887 1133 l 2,46,47
 883 1108 883 1108 905.5 1084.5 c 128,-1,48
 928 1061 928 1061 965 1053 c 1,49,-1
 1309 1053 l 1,50,-1
 1241 723 l 2,51,52
 1218 614 1218 614 1124 547 c 1,53,54
 1034 467 1034 467 920 467 c 2,55,-1
 795 467 l 1,56,-1
 842 698 l 1,57,-1
 938 698 l 1,58,-1
 948 709 l 1,59,-1
 973 760 l 1,60,-1
 983 819 l 1,61,-1
 889 819 l 1,62,63
 844 801 844 801 840 762 c 1,64,-1
 745 315 l 2,65,66
 737 284 737 284 753.5 262 c 128,-1,67
 770 240 770 240 788 240 c 2,68,-1
 983 240 l 2,69,70
 1034 240 1034 240 1077 272 c 1,71,72
 1106 288 1106 288 1117 303.5 c 128,-1,73
 1128 319 1128 319 1145 352 c 1,74,-1
 1182 535 l 1,75,-1
 1462 535 l 1,76,-1
 1423 352 l 1,77,78
 1423 299 1423 299 1454 268.5 c 128,-1,79
 1485 238 1485 238 1518 238 c 2,80,-1
 1712 238 l 2,81,82
 1730 238 1730 238 1769 256 c 1,83,84
 1802 295 1802 295 1804 324 c 1,85,-1
 1876 653 l 2,86,87
 1880 676 1880 676 1859.5 692.5 c 128,-1,88
 1839 709 1839 709 1792 709 c 2,89,-1
 1626 709 l 1,90,-1
 1673 940 l 1,91,-1
 1810 940 l 2,92,93
 1849 940 1849 940 1880 971 c 1,94,95
 1923 1010 1923 1010 1931 1053 c 2,96,-1
 1939 1098 l 2,97,98
 1943 1123 1943 1123 1927 1151 c 1,99,100
 1904 1167 1904 1167 1876 1167 c 2,101,-1
 1665 1167 l 1,102,-1
 1712 1397 l 1,103,-1
 2017 1397 l 2,104,105
 2121 1397 2121 1397 2179 1307 c 1,106,107
 2224 1254 2224 1254 2224 1178 c 0,108,109
 2224 1147 2224 1147 2216 1114 c 2,110,-1
 2191 995 l 2,111,112
 2181 942 2181 942 2130 891 c 0,113,114
 2101 862 2101 862 2077 852 c 1,115,116
 2110 836 2110 836 2133.5 803 c 128,-1,117
 2157 770 2157 770 2157 713 c 0,118,119
 2157 705 2157 705 2152 672 c 1,120,-1
 2060 248 l 1,0,1
EndSplineSet
EndChar

StartChar: tta.imathra
Encoding: 161 -1 161
Width: 1923
Flags: W
LayerCount: 2
Fore
SplineSet
2060 248 m 1,0,1
 2042 146 2042 146 1962 80 c 1,2,3
 1882 8 1882 8 1796 8 c 1,4,-1
 1786 0 l 1,5,-1
 1397 4 l 2,6,7
 1323 4 1323 4 1270 51 c 1,8,9
 1239 82 1239 82 1225 127 c 1,10,11
 1188 82 1188 82 1143 51 c 1,12,13
 1061 0 1061 0 979 0 c 2,14,-1
 676 0 l 2,15,16
 619 0 619 0 577 18.5 c 128,-1,17
 535 37 535 37 492 78 c 1,18,19
 447 131 447 131 446 203 c 0,20,21
 446 221 446 221 451 260 c 1,22,-1
 559 774 l 2,23,24
 575 854 575 854 721 940 c 1,25,26
 713 944 713 944 694.5 963.5 c 128,-1,27
 676 983 676 983 653 1014 c 1,28,29
 635 1053 635 1053 635 1096 c 0,30,31
 635 1114 635 1114 637 1122 c 2,32,-1
 680 1331 l 2,33,34
 690 1388 690 1388 713.5 1428 c 128,-1,35
 737 1468 737 1468 782 1505 c 1,36,37
 862 1577 862 1577 963 1577 c 2,38,-1
 1237 1577 l 1,39,-1
 1190 1346 l 1,40,-1
 975 1346 l 2,41,42
 959 1346 959 1346 940.5 1331.5 c 128,-1,43
 922 1317 922 1317 918 1286 c 1,44,-1
 889 1153 l 2,45,46
 881 1110 881 1110 899 1081 c 1,47,48
 915 1048 915 1048 958 1038 c 1,49,-1
 1303 1038 l 1,50,-1
 1231 709 l 1,51,52
 1215 648 1215 648 1191 609.5 c 128,-1,53
 1167 571 1167 571 1116 535 c 1,54,55
 1014 455 1014 455 905 455 c 2,56,-1
 786 455 l 1,57,-1
 838 686 l 1,58,-1
 895 686 l 1,59,60
 926 690 926 690 936 705 c 1,61,62
 961 728 961 728 969 750 c 1,63,-1
 979 807 l 1,64,-1
 907 807 l 2,65,66
 882 807 882 807 860 793 c 1,67,68
 837 770 837 770 836 754 c 2,69,-1
 741 319 l 1,70,71
 737 276 737 276 755.5 253.5 c 128,-1,72
 774 231 774 231 799 231 c 2,73,-1
 1008 231 l 2,74,75
 1024 231 1024 231 1042.5 239.5 c 128,-1,76
 1061 248 1061 248 1082.5 263.5 c 128,-1,77
 1104 279 1104 279 1116 300.5 c 128,-1,78
 1128 322 1128 322 1143 346 c 1,79,-1
 1180 528 l 1,80,-1
 1460 528 l 1,81,-1
 1421 346 l 1,82,83
 1421 293 1421 293 1452 262 c 128,-1,84
 1483 231 1483 231 1516 231 c 2,85,-1
 1675 231 l 2,86,87
 1720 231 1720 231 1759 256 c 1,88,89
 1802 289 1802 289 1804 317 c 1,90,-1
 1876 647 l 2,91,92
 1876 655 1876 655 1874 669.5 c 128,-1,93
 1872 684 1872 684 1870 688 c 0,94,95
 1860 702 1860 702 1827 702 c 2,96,-1
 1630 702 l 1,97,-1
 1677 934 l 1,98,-1
 1815 934 l 2,99,100
 1829 934 1829 934 1847.5 941 c 128,-1,101
 1866 948 1866 948 1884 958 c 0,102,103
 1923 983 1923 983 1925 1008 c 1,104,-1
 1997 1335 l 2,105,106
 1999 1351 1999 1351 1991 1366 c 1,107,-1
 1980 1374 l 1,108,-1
 1864 1374 l 2,109,110
 1846 1374 1846 1374 1843 1370 c 2,111,-1
 1839 1346 l 1,112,113
 1841 1330 1841 1330 1845 1327 c 1,114,115
 1849 1319 1849 1319 1854.5 1317 c 128,-1,116
 1860 1315 1860 1315 1862 1315 c 2,117,-1
 1976 1315 l 1,118,-1
 1925 1083 l 1,119,-1
 1708 1085 l 2,120,121
 1622 1085 1622 1085 1577 1139 c 1,122,123
 1538 1178 1538 1178 1538 1231 c 0,124,125
 1538 1249 1538 1249 1540 1260 c 2,126,-1
 1571 1413 l 1,127,128
 1589 1493 1589 1493 1665 1552 c 1,129,130
 1751 1605 1751 1605 1837 1606 c 2,131,-1
 2083 1606 l 2,132,133
 2177 1606 2177 1606 2238 1548 c 1,134,135
 2283 1495 2283 1495 2284 1434 c 0,136,137
 2284 1409 2284 1409 2281 1399 c 2,138,-1
 2214 1073 l 2,139,140
 2204 1026 2204 1026 2188.5 993.5 c 128,-1,141
 2173 961 2173 961 2136 909 c 0,142,143
 2118 884 2118 884 2102.5 868 c 128,-1,144
 2087 852 2087 852 2068 844 c 1,145,146
 2113 826 2113 826 2130 797 c 1,147,148
 2163 758 2163 758 2163 705 c 0,149,150
 2163 691 2163 691 2159 662 c 1,151,-1
 2060 248 l 1,0,1
EndSplineSet
LCarets2: 1 0
EndChar

StartChar: tta.sub
Encoding: 162 -1 162
Width: 346
Flags: W
AnchorPoint: "Sub" -598 303 mark 0
AnchorPoint: "Sub" 561 -821 basemark 0
LayerCount: 2
Fore
SplineSet
578 -676 m 1,0,1
 562 -737 562 -737 494 -788 c 0,2,3
 469 -804 469 -804 432 -816.5 c 128,-1,4
 395 -829 395 -829 362 -829 c 2,5,-1
 57 -829 l 2,6,7
 24 -829 24 -829 -8.5 -818 c 128,-1,8
 -41 -807 -41 -807 -59.5 -792.5 c 128,-1,9
 -78 -778 -78 -778 -87 -763 c 128,-1,10
 -96 -748 -96 -748 -98 -739 c 1,11,-1
 -164 -793 l 1,12,13
 -232 -830 -232 -830 -289 -829 c 2,14,-1
 -561 -829 l 1,15,-1
 -592 -829 l 2,16,17
 -703 -829 -703 -829 -768 -770 c 1,18,19
 -821 -727 -821 -727 -821 -659 c 0,20,21
 -821 -645 -821 -645 -817 -612 c 1,22,-1
 -774 -399 l 1,23,24
 -751 -305 -751 -305 -672 -250 c 1,25,26
 -598 -184 -598 -184 -489 -184 c 2,27,-1
 -127 -184 l 1,28,-1
 -203 -547 l 1,29,-1
 -449 -547 l 1,30,-1
 -420 -414 l 1,31,-1
 -459 -414 l 2,32,33
 -496 -414 -496 -414 -514 -424 c 1,34,-1
 -530 -442 l 1,35,-1
 -553 -559 l 2,36,37
 -561 -596 -561 -596 -539 -610 c 1,38,39
 -516 -635 -516 -635 -477 -635 c 2,40,-1
 -291 -635 l 2,41,42
 -275 -635 -275 -635 -256.5 -626.5 c 128,-1,43
 -238 -618 -238 -618 -212 -604 c 128,-1,44
 -186 -590 -186 -590 -178 -547 c 2,45,-1
 -156 -451 l 1,46,-1
 96 -451 l 1,47,-1
 74 -547 l 2,48,49
 72 -557 72 -557 72 -573 c 256,50,51
 72 -589 72 -589 82 -606 c 1,52,53
 107 -631 107 -631 135 -631 c 2,54,-1
 283 -631 l 2,55,56
 301 -631 301 -631 334 -614 c 0,57,58
 338 -612 338 -612 342 -607 c 128,-1,59
 346 -602 346 -602 348 -600 c 2,60,-1
 391 -397 l 2,61,62
 393 -387 393 -387 366.5 -378 c 128,-1,63
 340 -369 340 -369 287 -369 c 2,64,-1
 139 -369 l 1,65,-1
 182 -168 l 1,66,-1
 319 -168 l 2,67,68
 362 -168 362 -168 401 -137 c 1,69,70
 438 -119 438 -119 442 -80 c 1,71,-1
 489 143 l 1,72,73
 493 174 493 174 479 188 c 1,74,75
 477 196 477 196 440 233 c 0,76,77
 424 251 424 251 414 274 c 0,78,79
 414 276 414 276 412 279 c 1,80,81
 416 293 416 293 432 303 c 1,82,-1
 557 434 l 1,83,84
 602 405 602 405 643 365.5 c 128,-1,85
 684 326 684 326 707 297 c 1,86,87
 740 240 740 240 739 186 c 0,88,89
 739 172 739 172 735 143 c 2,90,-1
 692 -72 l 2,91,92
 674 -154 674 -154 623 -207 c 1,93,94
 586 -250 586 -250 557 -266 c 1,95,96
 594 -284 594 -284 610 -313 c 0,97,98
 618 -329 618 -329 626.5 -353 c 128,-1,99
 635 -377 635 -377 635 -395 c 0,100,101
 635 -411 635 -411 633 -420 c 2,102,-1
 578 -676 l 1,0,1
EndSplineSet
LCarets2: 1 0
EndChar

StartChar: ttha.base
Encoding: 164 -1 164
Width: 1320
Flags: W
LayerCount: 2
Fore
SplineSet
1778 334 m 2,0,1
 1749 197 1749 197 1613 98.5 c 128,-1,2
 1477 0 1477 0 1329 0 c 2,3,-1
 762 2 l 2,4,5
 600 2 600 2 506 96 c 1,6,7
 436 172 436 172 436 266 c 0,8,9
 436 297 436 297 444 330 c 2,10,-1
 555 860 l 1,11,12
 594 1034 594 1034 756 1159 c 1,13,-1
 651 1159 l 1,14,-1
 698 1391 l 1,15,-1
 1704 1391 l 1,16,-1
 1696 1354 l 1,17,18
 1813 1272 1813 1272 1864 1139 c 1,19,20
 1901 1057 1901 1057 1901 961 c 0,21,22
 1901 938 1901 938 1896.5 908.5 c 128,-1,23
 1892 879 1892 879 1890 864 c 2,24,-1
 1778 334 l 2,0,1
1501 346 m 2,25,-1
 1610 864 l 1,26,27
 1614 897 1614 897 1614 913 c 0,28,29
 1614 966 1614 966 1591 1026 c 0,30,31
 1560 1106 1560 1106 1489 1159 c 1,32,-1
 1085 1159 l 1,33,34
 1038 1141 1038 1141 1001.5 1112 c 128,-1,35
 965 1083 965 1083 924 1038 c 1,36,37
 856 952 856 952 838 862 c 2,38,-1
 727 348 l 1,39,40
 725 305 725 305 750 266 c 1,41,42
 781 233 781 233 827 233 c 2,43,-1
 1358 233 l 2,44,45
 1405 233 1405 233 1450 264 c 1,46,47
 1460 274 1460 274 1478.5 296.5 c 128,-1,48
 1497 319 1497 319 1501 346 c 2,25,-1
1307 539 m 1,49,-1
 1026 539 l 1,50,-1
 1079 797 l 1,51,-1
 1360 797 l 1,52,-1
 1307 539 l 1,49,-1
EndSplineSet
EndChar

StartChar: ttha.imathra
Encoding: 165 -1 165
Width: 1615
Flags: W
LayerCount: 2
Fore
SplineSet
1786 348 m 2,0,1
 1763 246 1763 246 1716 180 c 0,2,3
 1687 137 1687 137 1657.5 104.5 c 128,-1,4
 1628 72 1628 72 1595 53 c 1,5,6
 1519 2 1519 2 1458 2 c 2,7,-1
 754 4 l 2,8,9
 650 4 650 4 584 51 c 1,10,11
 508 92 508 92 475 174 c 0,12,13
 459 217 459 217 459 268 c 0,14,15
 459 305 459 305 467 344 c 2,16,-1
 600 975 l 2,17,18
 631 1129 631 1129 807 1260 c 1,19,20
 776 1285 776 1285 759.5 1300 c 128,-1,21
 743 1315 743 1315 725 1343 c 1,22,23
 702 1388 702 1388 702 1427 c 0,24,25
 702 1441 702 1441 707 1475 c 1,26,-1
 731 1593 l 2,27,28
 741 1646 741 1646 768 1686 c 128,-1,29
 795 1726 795 1726 848 1763 c 0,30,31
 950 1831 950 1831 1069 1831 c 2,32,-1
 1274 1831 l 2,33,34
 1331 1831 1331 1831 1370 1821 c 0,35,36
 1446 1798 1446 1798 1497 1737 c 1,37,38
 1730 1514 1730 1514 1839 1327 c 1,39,40
 1927 1169 1927 1169 1927 1044 c 0,41,42
 1927 1026 1927 1026 1923 987 c 1,43,-1
 1786 348 l 2,0,1
1450 1399 m 1,44,-1
 1335 1528 l 1,45,46
 1278 1602 1278 1602 1212 1602 c 2,47,-1
 1067 1602 l 2,48,49
 1034 1602 1034 1602 1020 1587 c 1,50,51
 997 1573 997 1573 995 1559 c 2,52,-1
 979 1477 l 2,53,54
 969 1424 969 1424 1034 1401 c 1,55,-1
 1018 1358 l 1,56,-1
 1022 1401 l 1,57,-1
 1450 1399 l 1,44,-1
1509 340 m 1,58,-1
 1642 971 l 2,59,60
 1646 1000 1646 1000 1647 1014 c 0,61,62
 1647 1080 1647 1080 1589 1165 c 1,63,-1
 1034 1165 l 1,64,65
 874 1036 874 1036 864 971 c 1,66,-1
 735 369 l 2,67,68
 733 361 733 361 733 351.5 c 128,-1,69
 733 342 733 342 733 340 c 0,70,71
 733 307 733 307 756.5 267 c 128,-1,72
 780 227 780 227 827 227 c 2,73,-1
 1368 227 l 2,74,75
 1411 227 1411 227 1450 260 c 0,76,77
 1473 278 1473 278 1485 297.5 c 128,-1,78
 1497 317 1497 317 1509 340 c 1,58,-1
1307 537 m 1,79,-1
 1026 537 l 1,80,-1
 1079 795 l 1,81,-1
 1360 795 l 1,82,-1
 1307 537 l 1,79,-1
EndSplineSet
LCarets2: 1 0
EndChar

StartChar: ttha.sub
Encoding: 166 -1 166
Width: 210
Flags: W
AnchorPoint: "Sub" -455 -55 mark 0
AnchorPoint: "Sub" 287 -834 basemark 0
LayerCount: 2
Fore
SplineSet
334 -578 m 2,0,1
 311 -687 311 -687 209 -760 c 1,2,3
 115 -836 115 -836 -4 -836 c 2,4,-1
 -299 -836 l 2,5,6
 -428 -836 -428 -836 -508 -762 c 1,7,8
 -567 -703 -567 -703 -567 -629 c 0,9,10
 -567 -619 -567 -619 -563 -590 c 2,11,-1
 -508 -324 l 2,12,13
 -483 -209 -483 -209 -371.5 -133 c 128,-1,14
 -260 -57 -260 -57 -127 -57 c 2,15,-1
 96 -57 l 2,16,17
 241 -57 241 -57 324 -133 c 1,18,19
 385 -194 385 -194 385 -281 c 0,20,21
 385 -318 385 -318 381 -336 c 2,22,-1
 334 -578 l 2,0,1
90 -530 m 1,23,-1
 127 -362 l 2,24,25
 135 -317 135 -317 99 -284.5 c 128,-1,26
 63 -252 63 -252 -4 -252 c 2,27,-1
 -137 -252 l 2,28,29
 -182 -252 -182 -252 -215 -285 c 1,30,31
 -256 -318 -256 -318 -264 -360 c 2,32,-1
 -301 -528 l 2,33,34
 -309 -567 -309 -567 -276.5 -598 c 128,-1,35
 -244 -629 -244 -629 -197 -629 c 2,36,-1
 -53 -629 l 2,37,38
 0 -629 0 -629 43 -596 c 1,39,40
 86 -567 86 -567 90 -530 c 1,23,-1
29 -543 m 1,41,-1
 -248 -543 l 1,42,-1
 -205 -340 l 1,43,-1
 72 -340 l 1,44,-1
 29 -543 l 1,41,-1
EndSplineSet
LCarets2: 1 0
EndChar

StartChar: dda.base
Encoding: 168 -1 168
Width: 1609
Flags: W
LayerCount: 2
Fore
SplineSet
2103 539 m 2,0,-1
 2042 256 l 2,1,2
 2017 152 2017 152 1923 80 c 1,3,4
 1829 4 1829 4 1720 4 c 2,5,-1
 1380 4 l 2,6,7
 1300 4 1300 4 1247 51 c 1,8,9
 1216 74 1216 74 1202 119 c 1,10,11
 1171 80 1171 80 1133 51 c 1,12,13
 1061 4 1061 4 989 4 c 2,14,-1
 670 6 l 2,15,16
 568 6 568 6 494 72 c 1,17,18
 447 119 447 119 446 186 c 0,19,20
 446 202 446 202 451 236 c 1,21,-1
 590 903 l 2,22,23
 608 993 608 993 680 1067 c 0,24,25
 705 1094 705 1094 728.5 1115.5 c 128,-1,26
 752 1137 752 1137 788 1159 c 1,27,-1
 643 1159 l 1,28,-1
 690 1391 l 1,29,-1
 1997 1391 l 1,30,-1
 1989 1348 l 1,31,32
 2061 1323 2061 1323 2107 1266 c 1,33,34
 2166 1215 2166 1215 2189 1128 c 1,35,36
 2201 1067 2201 1067 2202 1022 c 0,37,38
 2202 1006 2202 1006 2198 973 c 1,39,-1
 2175 883 l 2,40,41
 2161 830 2161 830 2137.5 793 c 128,-1,42
 2114 756 2114 756 2066 719 c 1,43,44
 2113 672 2113 672 2114 596 c 0,45,46
 2113 580 2113 580 2103 539 c 2,0,-1
1851 731 m 1,47,48
 1835 792 1835 792 1774 793 c 2,49,-1
 1716 793 l 2,50,51
 1693 793 1693 793 1692 788 c 2,52,-1
 1673 709 l 2,53,54
 1673 701 1673 701 1718 700 c 2,55,-1
 1755 700 l 2,56,57
 1788 700 1788 700 1851 731 c 1,47,48
1786 330 m 1,58,-1
 1823 512 l 1,59,-1
 1819 508 l 2,60,61
 1794 485 1794 485 1776 481 c 2,62,-1
 1751 473 l 1,63,-1
 1593 473 l 2,64,65
 1511 473 1511 473 1457 524 c 128,-1,66
 1403 575 1403 575 1417 647 c 2,67,-1
 1454 819 l 2,68,69
 1470 895 1470 895 1531.5 947 c 128,-1,70
 1593 999 1593 999 1675 999 c 2,71,-1
 1823 999 l 2,72,73
 1882 999 1882 999 1921 967 c 1,74,-1
 1923 983 l 1,75,76
 1933 1040 1933 1040 1889 1097.5 c 128,-1,77
 1845 1155 1845 1155 1749 1178 c 1,78,-1
 1167 1176 l 1,79,80
 1048 1131 1048 1131 965.5 1057 c 128,-1,81
 883 983 883 983 866 903 c 2,82,-1
 748 334 l 2,83,84
 740 297 740 297 761 271.5 c 128,-1,85
 782 246 782 246 821 246 c 2,86,-1
 983 246 l 2,87,88
 1022 246 1022 246 1067 276 c 1,89,90
 1106 315 1106 315 1114 346 c 1,91,-1
 1130 432 l 1,92,-1
 1405 432 l 1,93,-1
 1386 332 l 2,94,95
 1382 307 1382 307 1400.5 276.5 c 128,-1,96
 1419 246 1419 246 1462 246 c 2,97,-1
 1667 246 l 2,98,99
 1683 246 1683 246 1699.5 253 c 128,-1,100
 1716 260 1716 260 1735 274 c 0,101,102
 1772 299 1772 299 1786 330 c 1,58,-1
EndSplineSet
EndChar

StartChar: dda.imathra
Encoding: 169 -1 169
Width: 1933
Flags: W
LayerCount: 2
Fore
SplineSet
2062 229 m 2,0,1
 2039 133 2039 133 1963.5 67.5 c 128,-1,2
 1888 2 1888 2 1800 2 c 2,3,-1
 1325 4 l 2,4,5
 1266 4 1266 4 1223 43 c 0,6,7
 1198 68 1198 68 1196 86 c 1,8,9
 1180 63 1180 63 1141 41 c 0,10,11
 1073 -2 1073 -2 1014 -2 c 2,12,-1
 680 -2 l 2,13,14
 563 -2 563 -2 498 78 c 1,15,16
 447 133 447 133 446 201 c 0,17,18
 446 230 446 230 455 262 c 2,19,-1
 592 907 l 2,20,21
 602 954 602 954 620.5 990 c 128,-1,22
 639 1026 639 1026 682 1073 c 1,23,24
 741 1145 741 1145 831 1202 c 1,25,26
 770 1241 770 1241 736 1302.5 c 128,-1,27
 702 1364 702 1364 702 1415 c 0,28,29
 702 1425 702 1425 707 1458 c 1,30,-1
 735 1583 l 2,31,32
 758 1687 758 1687 846 1755 c 1,33,34
 928 1829 928 1829 1038 1829 c 2,35,-1
 1579 1829 l 2,36,37
 1653 1829 1653 1829 1737 1777.5 c 128,-1,38
 1821 1726 1821 1726 1903 1622 c 1,39,40
 1948 1561 1948 1561 1978 1516 c 0,41,42
 2021 1455 2021 1455 2052 1389 c 1,43,44
 2210 1100 2210 1100 2210 954 c 0,45,46
 2210 925 2210 925 2208 911 c 2,47,-1
 2198 850 l 2,48,49
 2194 821 2194 821 2170 787.5 c 128,-1,50
 2146 754 2146 754 2107 725 c 1,51,52
 2146 678 2146 678 2146 621 c 0,53,54
 2146 607 2146 607 2142 578 c 1,55,-1
 2062 229 l 2,0,1
1747 1407 m 1,56,57
 1722 1438 1722 1438 1681 1483 c 128,-1,58
 1640 1528 1640 1528 1618 1546 c 0,59,60
 1542 1605 1542 1605 1489 1606 c 2,61,-1
 1108 1606 l 2,62,63
 1061 1606 1061 1606 1037.5 1594.5 c 128,-1,64
 1014 1583 1014 1583 1010 1565 c 2,65,-1
 995 1493 l 2,66,67
 985 1440 985 1440 1030 1407 c 1,68,-1
 1747 1407 l 1,56,57
1909 729 m 1,69,70
 1872 790 1872 790 1849 791 c 2,71,-1
 1745 791 l 2,72,73
 1729 791 1729 791 1724 774 c 2,74,-1
 1710 702 l 2,75,76
 1702 669 1702 669 1720 670 c 2,77,-1
 1800 670 l 2,78,79
 1868 670 1868 670 1909 729 c 1,69,70
1817 293 m 1,80,-1
 1862 508 l 1,81,82
 1790 461 1790 461 1765 461 c 2,83,-1
 1620 461 l 2,84,85
 1534 461 1534 461 1491 520 c 1,86,87
 1452 559 1452 559 1452 612 c 0,88,89
 1452 635 1452 635 1454 645 c 2,90,-1
 1487 805 l 1,91,92
 1510 891 1510 891 1563 936 c 1,93,94
 1620 989 1620 989 1702 989 c 2,95,-1
 1876 989 l 2,96,97
 1894 989 1894 989 1919 971 c 1,98,-1
 1948 934 l 1,99,100
 1948 1045 1948 1045 1866 1163 c 1,101,-1
 1169 1163 l 1,102,103
 1038 1089 1038 1089 959.5 1018.5 c 128,-1,104
 881 948 881 948 870 895 c 2,105,-1
 754 336 l 2,106,107
 752 326 752 326 752 303 c 0,108,109
 752 285 752 285 760 268 c 1,110,111
 785 235 785 235 827 236 c 2,112,-1
 999 231 l 2,113,114
 1038 231 1038 231 1072 255 c 128,-1,115
 1106 279 1106 279 1108 295 c 2,116,-1
 1145 475 l 1,117,-1
 1419 475 l 1,118,-1
 1386 309 l 1,119,120
 1382 272 1382 272 1399 260 c 1,121,122
 1428 231 1428 231 1446 231 c 2,123,-1
 1755 231 l 2,124,125
 1778 231 1778 231 1782 248 c 1,126,127
 1801 266 1801 266 1817 293 c 1,80,-1
EndSplineSet
LCarets2: 1 0
EndChar

StartChar: dda.sub
Encoding: 170 -1 170
Width: 380
Flags: W
AnchorPoint: "Sub" -815 -133 mark 0
AnchorPoint: "Sub" 625 -811 basemark 0
LayerCount: 2
Fore
SplineSet
668 -616 m 1,0,1
 652 -702 652 -702 580 -750 c 1,2,3
 506 -809 506 -809 430 -809 c 2,4,-1
 78 -809 l 2,5,6
 -55 -809 -55 -809 -164 -627 c 1,7,8
 -236 -707 -236 -707 -324 -750 c 1,9,10
 -426 -809 -426 -809 -522 -809 c 2,11,-1
 -711 -809 l 2,12,13
 -801 -809 -801 -809 -858 -741 c 1,14,15
 -891 -680 -891 -680 -891 -627 c 0,16,17
 -891 -617 -891 -617 -887 -584 c 1,18,-1
 -850 -414 l 1,19,20
 -846 -381 -846 -381 -819.5 -347 c 128,-1,21
 -793 -313 -793 -313 -748 -283 c 1,22,23
 -672 -215 -672 -215 -557 -168 c 1,24,25
 -438 -125 -438 -125 -362 -125 c 2,26,-1
 225 -125 l 2,27,28
 370 -125 370 -125 471 -193 c 1,29,30
 555 -269 555 -269 547 -358 c 1,31,32
 623 -366 623 -366 658.5 -400 c 128,-1,33
 694 -434 694 -434 694 -479 c 0,34,35
 694 -493 694 -493 690 -516 c 2,36,-1
 668 -616 l 1,0,1
422 -596 m 1,37,-1
 432 -543 l 2,38,39
 434 -529 434 -529 416 -528 c 2,40,-1
 57 -528 l 1,41,-1
 94 -356 l 1,42,-1
 295 -356 l 1,43,-1
 266 -334 l 1,44,45
 250 -326 250 -326 216 -324 c 128,-1,46
 182 -322 182 -322 172 -322 c 2,47,-1
 -369 -322 l 2,48,49
 -412 -322 -412 -322 -457 -338 c 128,-1,50
 -502 -354 -502 -354 -510 -359.5 c 128,-1,51
 -518 -365 -518 -365 -559 -394.5 c 128,-1,52
 -600 -424 -600 -424 -602 -434 c 2,53,-1
 -627 -557 l 2,54,55
 -631 -573 -631 -573 -616.5 -587.5 c 128,-1,56
 -602 -602 -602 -602 -586 -602 c 2,57,-1
 -481 -602 l 1,58,-1
 -489 -641 l 1,59,-1
 -487 -602 l 1,60,61
 -444 -602 -444 -602 -401 -586 c 0,62,63
 -387 -582 -387 -582 -353 -563.5 c 128,-1,64
 -319 -545 -319 -545 -295 -526 c 0,65,66
 -250 -493 -250 -493 -207 -436 c 1,67,-1
 -4 -436 l 1,68,69
 14 -487 14 -487 33.5 -521 c 128,-1,70
 53 -555 53 -555 76 -571 c 1,71,72
 123 -618 123 -618 176 -618 c 2,73,-1
 360 -618 l 2,74,75
 389 -618 389 -618 399 -608 c 1,76,-1
 422 -596 l 1,37,-1
EndSplineSet
LCarets2: 1 0
EndChar

StartChar: ddha.base
Encoding: 172 -1 172
Width: 1609
Flags: W
LayerCount: 2
Fore
SplineSet
2103 535 m 2,0,-1
 2038 248 l 2,1,2
 2024 191 2024 191 1997 147.5 c 128,-1,3
 1970 104 1970 104 1919 72 c 1,4,5
 1829 -8 1829 -8 1718 -8 c 2,6,-1
 1378 -8 l 2,7,8
 1302 -8 1302 -8 1245 43 c 0,9,10
 1214 72 1214 72 1200 109 c 1,11,12
 1182 86 1182 86 1167.5 71.5 c 128,-1,13
 1153 57 1153 57 1130 43 c 1,14,15
 1064 -8 1064 -8 989 -8 c 2,16,-1
 672 -6 l 2,17,18
 563 -6 563 -6 496 61 c 1,19,20
 445 108 445 108 444 180 c 0,21,22
 444 194 444 194 449 227 c 1,23,-1
 590 897 l 1,24,25
 613 991 613 991 680 1065 c 1,26,27
 690 1079 690 1079 719 1104.5 c 128,-1,28
 748 1130 748 1130 791 1159 c 1,29,-1
 645 1159 l 1,30,-1
 692 1391 l 1,31,-1
 1999 1391 l 1,32,-1
 1991 1348 l 1,33,34
 2063 1323 2063 1323 2109 1266 c 1,35,36
 2170 1205 2170 1205 2187 1138 c 128,-1,37
 2204 1071 2204 1071 2204 1020 c 0,38,39
 2204 1004 2204 1004 2200 971 c 1,40,-1
 2177 881 l 2,41,42
 2152 781 2152 781 2066 715 c 1,43,44
 2113 662 2113 662 2114 590 c 0,45,46
 2113 574 2113 574 2103 535 c 2,0,-1
1251 -289 m 1,47,-1
 979 -289 l 1,48,-1
 1047 25 l 1,49,-1
 1317 25 l 1,50,-1
 1251 -289 l 1,47,-1
1847 723 m 1,51,52
 1831 782 1831 782 1769 782 c 2,53,-1
 1712 782 l 2,54,55
 1702 782 1702 782 1688 780 c 1,56,-1
 1669 700 l 1,57,58
 1669 690 1669 690 1751 690 c 0,59,60
 1775 690 1775 690 1847 723 c 1,51,52
1778 317 m 1,61,-1
 1817 500 l 1,62,-1
 1812 496 l 1,63,-1
 1765 467 l 1,64,-1
 1743 459 l 1,65,-1
 1585 459 l 2,66,67
 1503 459 1503 459 1446 510 c 1,68,69
 1407 549 1407 549 1407 600 c 0,70,71
 1407 623 1407 623 1409 633 c 2,72,-1
 1446 805 l 2,73,74
 1462 881 1462 881 1524 934 c 0,75,76
 1555 963 1555 963 1588.5 975 c 128,-1,77
 1622 987 1622 987 1665 987 c 2,78,-1
 1812 987 l 2,79,80
 1873 987 1873 987 1911 950 c 1,81,-1
 1913 967 l 2,82,83
 1917 996 1917 996 1909 1025.5 c 128,-1,84
 1901 1055 1901 1055 1881.5 1080.5 c 128,-1,85
 1862 1106 1862 1106 1822 1128.5 c 128,-1,86
 1782 1151 1782 1151 1739 1161 c 1,87,-1
 1157 1159 l 1,88,89
 1030 1106 1030 1106 954 1036 c 1,90,91
 874 970 874 970 858 889 c 2,92,-1
 735 313 l 1,93,94
 731 274 731 274 750.5 248.5 c 128,-1,95
 770 223 770 223 813 223 c 2,96,-1
 975 223 l 2,97,98
 998 223 998 223 1020 234.5 c 128,-1,99
 1042 246 1042 246 1055 256 c 0,100,101
 1100 295 1100 295 1102 326 c 1,102,-1
 1120 414 l 1,103,-1
 1395 414 l 1,104,-1
 1372 311 l 1,105,106
 1370 278 1370 278 1389 250 c 1,107,108
 1403 221 1403 221 1448 221 c 2,109,-1
 1653 221 l 2,110,111
 1671 221 1671 221 1696 236 c 0,112,113
 1700 238 1700 238 1718 252 c 0,114,115
 1751 276 1751 276 1778 317 c 1,61,-1
EndSplineSet
EndChar

StartChar: ddha.imathra
Encoding: 173 -1 173
Width: 1933
Flags: W
LayerCount: 2
Fore
SplineSet
2062 223 m 2,0,1
 2039 125 2039 125 1964 66 c 1,2,3
 1888 -2 1888 -2 1802 -2 c 2,4,-1
 1327 0 l 2,5,6
 1268 0 1268 0 1225 39 c 1,7,8
 1202 64 1202 64 1194 82 c 1,9,10
 1180 64 1180 64 1141 39 c 0,11,12
 1073 -4 1073 -4 1014 -4 c 2,13,-1
 680 -4 l 2,14,15
 563 -4 563 -4 498 76 c 1,16,17
 447 131 447 131 446 203 c 0,18,19
 446 232 446 232 455 262 c 2,20,-1
 592 909 l 2,21,22
 602 956 602 956 620.5 992 c 128,-1,23
 639 1028 639 1028 682 1075 c 1,24,25
 748 1155 748 1155 834 1202 c 1,26,27
 766 1247 766 1247 737 1307 c 1,28,29
 704 1364 704 1364 705 1415 c 0,30,31
 705 1429 705 1429 709 1462 c 1,32,-1
 737 1587 l 2,33,34
 760 1691 760 1691 848 1759 c 1,35,36
 930 1833 930 1833 1040 1833 c 2,37,-1
 1581 1833 l 2,38,39
 1655 1833 1655 1833 1742 1781 c 128,-1,40
 1829 1729 1829 1729 1903 1624 c 1,41,42
 1942 1577 1942 1577 1981.5 1515.5 c 128,-1,43
 2021 1454 2021 1454 2054 1389 c 1,44,45
 2212 1102 2212 1102 2212 954 c 0,46,47
 2212 925 2212 925 2210 911 c 2,48,-1
 2200 850 l 1,49,50
 2186 789 2186 789 2105 727 c 1,51,52
 2144 674 2144 674 2144 623 c 0,53,54
 2144 609 2144 609 2140 580 c 1,55,-1
 2062 223 l 2,0,1
1249 -295 m 1,56,-1
 977 -295 l 1,57,-1
 1044 23 l 1,58,-1
 1315 23 l 1,59,-1
 1249 -295 l 1,56,-1
1741 1409 m 1,60,61
 1710 1452 1710 1452 1674 1489 c 128,-1,62
 1638 1526 1638 1526 1610 1554 c 1,63,64
 1534 1613 1534 1613 1481 1614 c 2,65,-1
 1100 1614 l 2,66,67
 1053 1614 1053 1614 1029.5 1602.5 c 128,-1,68
 1006 1591 1006 1591 1001 1573 c 2,69,-1
 985 1499 l 1,70,71
 977 1448 977 1448 1022 1411 c 1,72,-1
 1741 1409 l 1,60,61
1898 733 m 1,73,74
 1867 792 1867 792 1843 793 c 2,75,-1
 1739 793 l 2,76,77
 1716 793 1716 793 1716 776 c 1,78,-1
 1702 709 l 2,79,80
 1694 676 1694 676 1712 676 c 2,81,-1
 1792 676 l 2,82,83
 1857 676 1857 676 1898 733 c 1,73,74
1810 295 m 1,84,-1
 1855 510 l 1,85,86
 1779 465 1779 465 1761 465 c 2,87,-1
 1616 465 l 2,88,89
 1534 465 1534 465 1490 516 c 128,-1,90
 1446 567 1446 567 1446 612 c 0,91,92
 1446 620 1446 620 1450 649 c 2,93,-1
 1483 811 l 1,94,95
 1499 872 1499 872 1513.5 893.5 c 128,-1,96
 1528 915 1528 915 1559 940 c 1,97,98
 1616 993 1616 993 1698 993 c 2,99,-1
 1872 993 l 2,100,101
 1888 993 1888 993 1913 975 c 1,102,-1
 1944 938 l 1,103,104
 1942 995 1942 995 1923.5 1050.5 c 128,-1,105
 1905 1106 1905 1106 1862 1171 c 1,106,-1
 1165 1171 l 1,107,108
 1038 1097 1038 1097 959.5 1026.5 c 128,-1,109
 881 956 881 956 866 899 c 1,110,-1
 748 340 l 2,111,112
 746 332 746 332 745.5 322.5 c 128,-1,113
 745 313 745 313 745 311 c 0,114,115
 745 282 745 282 760.5 259 c 128,-1,116
 776 236 776 236 821 236 c 2,117,-1
 995 231 l 2,118,119
 1032 231 1032 231 1066 255 c 128,-1,120
 1100 279 1100 279 1104 295 c 2,121,-1
 1141 477 l 1,122,-1
 1415 477 l 1,123,-1
 1382 311 l 2,124,125
 1374 274 1374 274 1397.5 251.5 c 128,-1,126
 1421 229 1421 229 1440 229 c 2,127,-1
 1749 229 l 2,128,129
 1765 229 1765 229 1777.5 244.5 c 128,-1,130
 1790 260 1790 260 1810 295 c 1,84,-1
EndSplineSet
LCarets2: 1 0
EndChar

StartChar: ddha.sub
Encoding: 174 -1 174
Width: 380
Flags: W
AnchorPoint: "Sub" -795 -119 mark 0
AnchorPoint: "Sub" 621 -795 basemark 0
LayerCount: 2
Fore
SplineSet
668 -618 m 2,0,1
 654 -690 654 -690 581 -737 c 128,-1,2
 508 -784 508 -784 434 -784 c 2,3,-1
 82 -784 l 2,4,5
 -49 -784 -49 -784 -166 -625 c 1,6,7
 -240 -701 -240 -701 -336 -752 c 1,8,9
 -438 -811 -438 -811 -524 -811 c 2,10,-1
 -713 -811 l 2,11,12
 -809 -811 -809 -811 -860 -739 c 1,13,14
 -893 -678 -893 -678 -893 -625 c 0,15,16
 -893 -615 -893 -615 -889 -582 c 1,17,-1
 -852 -412 l 1,18,19
 -848 -379 -848 -379 -821.5 -345 c 128,-1,20
 -795 -311 -795 -311 -750 -281 c 1,21,22
 -674 -213 -674 -213 -559 -166 c 1,23,24
 -440 -123 -440 -123 -365 -123 c 2,25,-1
 223 -123 l 2,26,27
 368 -123 368 -123 465 -195 c 1,28,29
 553 -269 553 -269 545 -358 c 1,30,31
 619 -366 619 -366 655 -399 c 1,32,33
 688 -438 688 -438 688 -483 c 0,34,35
 688 -506 688 -506 686 -516 c 2,36,-1
 668 -618 l 2,0,1
-84 -842 m 1,37,-1
 -330 -842 l 1,38,-1
 -307 -731 l 1,39,-1
 -176 -649 l 1,40,-1
 -61 -735 l 1,41,-1
 -84 -842 l 1,37,-1
416 -596 m 1,42,-1
 426 -543 l 2,43,44
 428 -533 428 -533 410 -532 c 2,45,-1
 51 -532 l 1,46,-1
 88 -358 l 1,47,-1
 289 -358 l 1,48,49
 279 -344 279 -344 262 -340 c 1,50,51
 233 -324 233 -324 166 -324 c 2,52,-1
 -375 -324 l 2,53,54
 -418 -324 -418 -324 -463 -340 c 128,-1,55
 -508 -356 -508 -356 -516 -361.5 c 128,-1,56
 -524 -367 -524 -367 -565 -396.5 c 128,-1,57
 -606 -426 -606 -426 -608 -436 c 2,58,-1
 -633 -559 l 2,59,60
 -637 -575 -637 -575 -622.5 -589.5 c 128,-1,61
 -608 -604 -608 -604 -592 -604 c 2,62,-1
 -487 -604 l 1,63,-1
 -496 -643 l 1,64,-1
 -494 -604 l 1,65,66
 -451 -604 -451 -604 -408 -588 c 0,67,68
 -394 -584 -394 -584 -360 -565.5 c 128,-1,69
 -326 -547 -326 -547 -301 -528 c 0,70,71
 -256 -495 -256 -495 -213 -438 c 1,72,-1
 -10 -438 l 1,73,74
 8 -485 8 -485 27.5 -521 c 128,-1,75
 47 -557 47 -557 70 -575 c 0,76,77
 123 -622 123 -622 168 -623 c 2,78,-1
 352 -623 l 2,79,80
 383 -623 383 -623 393 -612 c 1,81,-1
 416 -596 l 1,42,-1
EndSplineSet
LCarets2: 1 0
EndChar

StartChar: nna
Encoding: 175 3235 175
Width: 2058
Flags: W
LayerCount: 2
Fore
SplineSet
2198 283 m 2,0,1
 2173 168 2173 168 2071.5 84 c 128,-1,2
 1970 0 1970 0 1853 0 c 2,3,-1
 1393 0 l 1,4,-1
 1468 362 l 1,5,6
 1486 464 1486 464 1565.5 536 c 128,-1,7
 1645 608 1645 608 1733 608 c 2,8,-1
 1913 608 l 1,9,-1
 1866 379 l 1,10,-1
 1804 379 l 2,11,12
 1779 379 1779 379 1763 363.5 c 128,-1,13
 1747 348 1747 348 1745 334 c 2,14,-1
 1722 231 l 1,15,-1
 1837 231 l 2,16,17
 1870 231 1870 231 1894 256 c 1,18,19
 1925 295 1925 295 1933 332 c 2,20,-1
 2093 1094 l 1,21,22
 2101 1123 2101 1123 2079 1145 c 1,23,24
 2056 1161 2056 1161 2013 1161 c 2,25,-1
 1739 1161 l 2,26,27
 1716 1161 1716 1161 1694.5 1160 c 128,-1,28
 1673 1159 1673 1159 1643.5 1140.5 c 128,-1,29
 1614 1122 1614 1122 1610 1094 c 2,30,-1
 1581 948 l 1,31,-1
 1307 948 l 1,32,-1
 1335 1094 l 2,33,34
 1339 1123 1339 1123 1317.5 1142 c 128,-1,35
 1296 1161 1296 1161 1239 1161 c 2,36,-1
 977 1161 l 2,37,38
 934 1161 934 1161 911 1147 c 1,39,40
 882 1118 882 1118 879 1094 c 2,41,-1
 827 866 l 1,42,43
 827 841 827 841 828 822 c 128,-1,44
 829 803 829 803 844 784 c 0,45,46
 869 751 869 751 897 752 c 2,47,-1
 1069 752 l 1,48,-1
 1022 520 l 1,49,-1
 840 520 l 2,50,51
 803 520 803 520 778 506 c 1,52,53
 753 481 753 481 745 451 c 2,54,-1
 715 322 l 1,55,56
 715 277 715 277 729 266 c 1,57,58
 754 241 754 241 782 242 c 2,59,-1
 1110 242 l 1,60,-1
 1063 10 l 1,61,-1
 647 12 l 2,62,63
 534 12 534 12 473 74 c 1,64,65
 420 133 420 133 420 195 c 0,66,67
 420 205 420 205 424 233 c 2,68,-1
 475 475 l 2,69,70
 485 520 485 520 547 582 c 1,71,72
 580 607 580 607 594 614 c 0,73,74
 619 630 619 630 649 645 c 1,75,76
 598 682 598 682 575 719 c 1,77,78
 546 776 546 776 547 823 c 0,79,80
 547 831 547 831 551 860 c 2,81,-1
 610 1147 l 1,82,83
 635 1249 635 1249 732 1321 c 128,-1,84
 829 1393 829 1393 948 1393 c 2,85,-1
 1317 1393 l 2,86,87
 1417 1393 1417 1393 1462 1360 c 1,88,89
 1495 1342 1495 1342 1513 1303 c 1,90,91
 1607 1397 1607 1397 1761 1397 c 2,92,-1
 2114 1397 l 2,93,94
 2253 1397 2253 1397 2318 1311 c 1,95,96
 2371 1258 2371 1258 2372 1169 c 0,97,98
 2372 1132 2372 1132 2363 1100 c 2,99,-1
 2198 283 l 2,0,1
EndSplineSet
LCarets2: 1 0
EndChar

